<svg width="2060" height="1730" viewBox="0 0 2060 1730" fill="none" xmlns="http://www.w3.org/2000/svg">
<path d="M1073 220.876C1096.42 206.418 1115.16 185.129 1135.82 167.157C1172.62 135.144 1210.71 104.067 1250.96 76.3183C1331.54 20.7638 1426.47 -12.9887 1525.63 4.74552C1625.12 22.5385 1712.7 99.2234 1769 179.391C1660.9 172.257 1571.39 186.454 1465.26 199.493C1367.06 211.556 1267.23 222.451 1168.19 223.516C1144.44 223.772 1093.26 225.37 1073 220.876Z" fill="#D9BCBB"/>
<path d="M81.9253 1363C66.4735 1340.05 55.9549 1311.34 46.6662 1285.37C12.3807 1189.55 -11.5622 1071.42 5.80328 969.984C16.3893 908.147 45.1435 849.126 97.952 812.205C146.462 778.288 204.542 762.911 263.294 773.107C267.797 795.71 270.174 818.978 273.776 841.775C281.281 889.285 296.577 954.752 290.676 1001.41C282.488 1066.14 126.463 1292.51 81.9253 1363Z" fill="#6FB0C5"/>
<path d="M1808.37 881.029C1820.77 860.887 1826.26 831.77 1833.31 809.149C1851.35 751.246 1867.58 690.584 1889.17 634C1899.26 650.019 1907.24 667.285 1916.17 683.954C1929.01 707.354 1941.98 730.68 1955.1 753.932C1979.13 796.933 2004.98 839.829 2023.83 885.369C2069.31 995.281 2068.14 1120.58 2041.12 1234.79C2003.01 1395.83 1917.58 1539.79 1772.77 1628.43C1768.87 1630.83 1764.95 1633.2 1761 1635.53C1757.05 1637.86 1753.08 1640.15 1749.09 1642.4C1745.1 1644.64 1741.08 1646.85 1737.04 1649.02C1733 1651.19 1728.94 1653.32 1724.85 1655.4C1720.77 1657.49 1716.67 1659.53 1712.54 1661.53C1708.41 1663.54 1704.27 1665.5 1700.1 1667.42C1695.93 1669.34 1691.75 1671.22 1687.54 1673.05C1683.34 1674.89 1679.11 1676.68 1674.87 1678.43C1670.63 1680.18 1666.37 1681.89 1662.09 1683.55C1657.81 1685.22 1653.52 1686.84 1649.2 1688.41C1644.89 1689.99 1640.56 1691.53 1636.22 1693.02C1631.88 1694.51 1627.52 1695.95 1623.14 1697.36C1618.77 1698.76 1614.38 1700.12 1609.98 1701.43C1605.58 1702.75 1601.17 1704.02 1596.74 1705.24C1592.31 1706.47 1587.87 1707.65 1583.42 1708.78C1578.96 1709.92 1574.5 1711.01 1570.03 1712.06C1565.55 1713.1 1561.07 1714.1 1556.57 1715.06C1552.08 1716.01 1547.57 1716.92 1543.05 1717.79C1538.54 1718.65 1534.02 1719.47 1529.48 1720.25C1524.95 1721.02 1520.41 1721.75 1515.87 1722.43C1511.32 1723.11 1506.77 1723.75 1502.21 1724.34C1497.65 1724.93 1493.08 1725.47 1488.51 1725.97C1483.94 1726.47 1479.36 1726.92 1474.78 1727.33C1470.2 1727.73 1465.62 1728.09 1461.03 1728.4C1456.44 1728.72 1451.85 1728.99 1447.26 1729.21C1442.67 1729.43 1438.07 1729.6 1433.47 1729.73C1428.88 1729.86 1424.28 1729.94 1419.68 1729.98C1415.08 1730.01 1410.48 1730 1405.88 1729.95C1401.29 1729.89 1396.69 1729.79 1392.09 1729.64C1387.49 1729.49 1382.9 1729.29 1378.31 1729.05C1373.71 1728.81 1369.12 1728.52 1364.54 1728.19C1359.95 1727.85 1355.37 1727.47 1350.79 1727.04C1306.87 1723.04 1263.34 1714.37 1220.45 1704.44C1192.26 1697.79 1164.33 1690.24 1136.64 1681.78C1108.96 1673.33 1081.58 1663.99 1054.52 1653.76C963.132 1619.76 870.882 1577.71 772.836 1566.92C752.95 1564.7 733.002 1563.57 712.991 1563.51C692.979 1563.45 673.024 1564.46 653.125 1566.56C569.807 1575.81 509 1596.44 422.073 1587.92C407.922 1586.53 392.845 1585.12 379 1581.98C388.875 1577.17 398.812 1572.4 407.935 1566.28C455.502 1534.36 478.103 1468.73 488.426 1415.14L1709.13 1410.95C1739 1410.63 1761.18 1405.75 1782.41 1384.11C1793 1373.31 1801.31 1359.14 1804.39 1344.33C1809.75 1318.65 1806.8 1256.43 1806.94 1226.29C1807.13 1182.85 1809.29 1139.44 1808.62 1095.99C1808 1082.04 1808.13 1068.22 1808.43 1054.27C1804.44 1033.54 1806.97 1010.64 1806.93 989.55C1806.86 953.394 1805.35 917.1 1808.37 881.029Z" fill="#FECC34"/>
<path d="M1808.25 1054C1836.69 1094.35 1861.23 1134.38 1880.24 1179.88C1884.41 1189.85 1891.99 1205.47 1889.52 1216.32C1888.87 1219.16 1887.5 1220.52 1885.26 1222.27C1881.92 1223.37 1879.37 1223.25 1876.17 1221.77C1872.59 1220.1 1871.04 1217.48 1869.27 1214.17C1863.4 1203.15 1859.55 1190.41 1854.75 1178.84C1846.02 1157.82 1824.34 1109.2 1808.45 1095.74C1807.82 1081.79 1807.95 1067.96 1808.25 1054Z" fill="#54599B"/>
<path d="M263.222 773.432C255.331 754.363 253.771 729.411 249.743 709.1C228.305 600.964 208.583 491.833 213.603 381.125C217.221 301.282 241.717 216.911 303.39 161.678C406.444 69.3806 554.181 103.404 674.192 136.423C722.682 149.764 770.899 164.224 819.521 177.059C903.337 199.178 986.508 216.862 1073.39 220.967C1093.65 225.466 1144.83 223.866 1168.58 223.611C1267.62 222.545 1367.46 211.637 1465.66 199.562C1571.79 186.51 1661.3 172.297 1769.41 179.439C1831.73 198.046 1880.87 214.242 1913.8 274.479C1961.84 362.36 1933.81 475.892 1908.82 566.613C1903.32 586.562 1892.32 614.931 1889.27 634.077C1867.69 690.664 1851.46 751.329 1833.42 809.235C1826.37 831.857 1820.88 860.975 1808.48 881.118C1805.46 917.192 1806.97 953.488 1807.04 989.646C1807.08 1010.73 1804.55 1033.63 1808.54 1054.37C1808.24 1068.32 1808.11 1082.14 1808.73 1096.09C1809.4 1139.55 1807.25 1182.96 1807.05 1226.4C1806.91 1256.54 1809.86 1318.76 1804.51 1344.44C1801.42 1359.25 1793.11 1373.42 1782.52 1384.23C1761.29 1405.87 1739.11 1410.75 1709.24 1411.07L488.623 1415.26C478.3 1468.85 455.701 1534.49 408.137 1566.4C399.014 1572.52 389.078 1577.3 379.203 1582.11C330.294 1579.26 270.484 1563.25 225.781 1543.64C143.83 1507.7 119.967 1462.61 89.5614 1384.44C82.1701 1395.61 76.4581 1407.86 71.7102 1420.32C52.1485 1471.68 45.2806 1546.58 98.4534 1581.5C110.173 1589.2 133.809 1593.59 139.842 1606.65C139.666 1610.07 139.816 1609.86 137.266 1612.17C126.179 1615.14 114.602 1609.57 104.953 1604.42C76.3311 1589.16 55.1704 1564.82 46.2162 1533.82C30.0547 1477.86 54.1337 1411.73 81.7062 1362.78C126.28 1292.35 282.431 1066.2 290.626 1001.53C296.533 954.909 281.224 889.503 273.713 842.036C270.108 819.26 267.729 796.014 263.222 773.432ZM280.138 777.162L293.524 780.183C297.24 772.065 294.988 732.2 295.175 721.119L297.761 433.137C298.349 400.394 302.41 363.96 327.809 340.172C342.983 325.957 363.822 317.997 384.363 315.313C406.46 312.427 430.331 314.464 452.619 314.661L597.591 316.852C723.213 319.124 849.123 318.82 974.685 322.685C998.09 291.064 1029.77 265.827 1055.49 236.075C1034.09 234.02 1012.46 232.601 991.186 229.584C922.067 219.786 854.355 202.565 786.928 184.971C644.401 147.778 452.962 61.5176 320.332 168.176C262.981 214.298 238.042 288.92 231.244 359.41C220.704 468.766 241.616 581.815 262.333 688.928C267.944 717.942 272.07 748.739 280.138 777.162ZM1784.27 198.721C1795.37 221.231 1807.17 243.6 1815.19 267.406C1830.55 312.997 1834.27 361.087 1837.8 408.681C1839.08 425.913 1840.98 443.508 1840.9 460.775C1842.12 475.88 1843.12 491.089 1845.67 506.043C1850.22 532.784 1864.08 587.686 1880.68 609.99C1890.76 576.825 1899.89 542.771 1908.19 509.136C1927.11 432.46 1939.82 345.415 1895.69 274.579C1871.28 235.395 1829.14 209.498 1784.27 198.721Z" fill="#54599B"/>
<path d="M280 777L293.921 780.019C296.8 785.849 293.094 838.347 292.323 848C286.773 824.542 285.657 800.277 280 777Z" fill="#6FB0C5"/>
<path d="M512 1362.52C494.113 1365.7 473.932 1363.64 455.793 1363.79C428.739 1364.01 401.517 1366.17 374.486 1364.14C356.459 1362.78 339.932 1357.98 327.938 1343.68C321.117 1335.54 315.075 1324.19 313.831 1313.64C310.323 1283.94 312.898 1252.7 313.098 1222.83C313.181 1166.14 313.607 1109.46 314.378 1052.77C314.813 969.706 315.763 886.644 317.228 803.589C317.759 770.66 314.971 736.745 318.212 704C318.487 733.589 318.546 763.178 318.391 792.768C367.672 839.407 399.354 895.171 426.239 956.465C440.533 989.054 455.006 1021.87 465.613 1055.84C488.998 1130.75 495.82 1214.44 497.46 1292.41C497.921 1314.3 495.597 1337.61 497.758 1359.29C502.204 1363.27 506.22 1362.57 512 1362.52Z" fill="#6FB0C5"/>
<path d="M421.279 1186C430.9 1188.48 440.333 1193.51 446.08 1201.81C451.732 1209.97 453.263 1220.28 450.989 1229.83C447.407 1244.88 436.751 1253.07 424.183 1260.73C423.148 1261.14 422.879 1261.29 421.646 1261.55C418.521 1262.21 416.83 1262.32 414.118 1260.68C414.079 1260.25 413.978 1259.82 414.004 1259.39C414.492 1250.65 433.006 1233.29 438.857 1226.71C442.021 1210.9 424.913 1207.36 420.435 1195.45C418.913 1191.4 419.989 1189.79 421.279 1186Z" fill="#FEFEFE"/>
<path d="M1830.39 467.989C1831.95 463.931 1833.25 459.061 1836.43 456L1838.64 456.508L1841.22 460.891C1842.44 475.989 1843.45 491.193 1845.99 506.141C1850.54 532.871 1864.4 587.752 1881 610.046C1878.09 624.907 1872.2 639.745 1867.55 654.167L1842.24 733.435C1831.16 768.674 1823.68 806.274 1809.4 840.281C1807.93 853.673 1808.16 867.619 1808.8 881.067C1805.79 917.127 1807.29 953.408 1807.36 989.552C1807.4 1010.63 1804.88 1033.52 1808.86 1054.25C1808.56 1068.19 1808.43 1082.01 1809.06 1095.95C1809.73 1139.39 1807.57 1182.79 1807.37 1226.21C1807.23 1256.34 1810.18 1318.54 1804.83 1344.21C1801.74 1359.01 1793.43 1373.18 1782.85 1383.97C1761.62 1405.61 1739.44 1410.49 1709.57 1410.81L489 1415C491.576 1405.88 492.413 1395.73 493.901 1386.35C553.439 1385.07 613.07 1385.87 672.636 1385.39L1143.82 1382.82L1475.89 1381.56C1533.05 1381.42 1590.19 1380.53 1647.34 1381.64C1681.4 1382.31 1718.15 1379.39 1743.82 1354.67C1757.55 1341.45 1766.47 1321.97 1768.92 1303.26C1773.16 1270.76 1769.91 1235.58 1769.49 1202.8C1768.81 1154.51 1768.83 1106.21 1769.54 1057.92L1775.11 505.16L1807.29 505.201C1807.27 495.35 1807.93 485.464 1808.38 475.624C1809.45 473.605 1810.62 471.643 1811.77 469.665C1817.17 466.456 1824.29 467.741 1830.39 467.989Z" fill="#FEFEFE"/>
<path d="M1829.87 467.98C1831.44 463.926 1832.75 459.059 1835.97 456L1838.2 456.508L1840.81 460.887C1842.04 475.975 1843.06 491.167 1845.63 506.104C1850.23 532.815 1864.23 587.656 1881 609.933C1878.06 624.784 1872.11 639.611 1867.41 654.022L1841.84 733.232C1830.65 768.445 1823.09 806.018 1808.66 840C1805.73 834.199 1806.24 824.997 1806.1 818.572C1805.6 795.156 1807.19 771.568 1807.26 748.12L1807.33 584.53C1807.53 558.652 1810.62 530.69 1806.53 505.165C1806.51 495.321 1807.17 485.443 1807.63 475.61C1808.71 473.593 1809.9 471.632 1811.06 469.655C1816.51 466.448 1823.7 467.733 1829.87 467.98Z" fill="#FECC34"/>
<path d="M291.41 1053C292.548 1076.87 291.594 1101.01 291.301 1124.91L290.114 1229.55C289.658 1259.74 286.737 1292.18 292.828 1321.86C296.156 1338.08 302.488 1352.87 315.113 1364.28C341.405 1388.03 375.403 1386.55 408.748 1386.42L463.62 1386.07C472.599 1385.96 485.486 1384.21 494 1386.63C492.512 1396 491.675 1406.15 489.099 1415.27C478.775 1468.82 456.174 1534.41 408.605 1566.31C399.482 1572.42 389.544 1577.19 379.669 1582C330.755 1579.15 270.94 1563.16 226.232 1543.56C144.274 1507.64 120.408 1462.58 90 1384.47C118.671 1337.2 151.15 1292.31 181.087 1245.85C200.186 1216.21 217.544 1184.98 235.648 1154.71C255.313 1121.82 275.898 1088.01 291.41 1053Z" fill="#6FB0C5"/>
<path d="M1055.78 236.292C1091.97 242.639 1141.51 239.93 1178.66 239.256C1221.61 238.436 1264.51 236.427 1307.35 233.228C1350.19 230.028 1392.9 225.644 1435.49 220.074C1555.41 205.501 1662.63 184.243 1784.39 198.982C1795.48 221.466 1807.28 243.809 1815.3 267.587C1830.65 313.123 1834.37 361.156 1837.9 408.694C1839.18 425.905 1841.08 443.478 1841 460.725L1838.42 456.346L1836.21 455.838C1833.02 458.897 1831.73 463.763 1830.17 467.818C1824.07 467.57 1816.96 466.286 1811.56 469.493C1810.41 471.469 1809.23 473.43 1808.16 475.447C1807.71 485.279 1807.06 495.157 1807.08 505L1774.9 504.959C1775.19 483.272 1777.21 461.586 1775.94 439.889C1773.6 400.026 1752.29 365.044 1713.83 349.409C1703.51 345.211 1686.95 342.017 1678.91 334.401C1678.35 333.862 1677.81 333.293 1677.26 332.741C1614.95 328.958 1551.92 329.981 1489.48 329.103L1131.24 324.821C1079.44 324.242 1026.64 325.743 975 322.799C998.399 291.216 1030.07 266.009 1055.78 236.292Z" fill="#D9BCBB"/>
<path d="M1677 333.039C1712.85 332.715 1747.28 333.814 1774.56 359.911C1806.07 390.035 1807.77 431.427 1807.98 471.891L1808 475.498C1807.55 485.313 1806.9 495.174 1806.92 505L1774.72 504.959C1775 483.31 1777.03 461.661 1775.75 440.001C1773.41 400.207 1752.08 365.286 1713.6 349.677C1703.26 345.487 1686.69 342.299 1678.65 334.696C1678.09 334.158 1677.55 333.59 1677 333.039Z" fill="#058D9C"/>
<path d="M320.775 484.66C319.663 446.053 311.826 384.853 341.127 354.203C356.933 337.671 381.421 333.557 403.416 333.311C538.869 331.792 674.814 336.213 810.264 338.524L1269.05 344.539L1527.33 346.935C1570.92 347.404 1616.26 345.185 1659.51 350.752C1686 354.162 1710.15 363.684 1729.41 382.383C1753.1 405.384 1756.97 431.118 1757 462.68C1757.01 476.27 1756.93 490.612 1754.36 504C1678.99 501.877 1603.59 500.765 1528.19 500.664L1252.12 497.311L320.775 484.66Z" fill="#058D9C"/>
<path d="M619.009 392.559C622.552 391.99 626.498 391.801 630.066 392.249C636.375 393.04 643.071 397.494 646.568 402.834C646.971 403.447 647.341 404.081 647.679 404.735C648.015 405.388 648.315 406.059 648.582 406.747C648.848 407.434 649.078 408.133 649.271 408.845C649.462 409.556 649.617 410.276 649.734 411.005C649.851 411.733 649.929 412.466 649.97 413.204C650.009 413.94 650.01 414.678 649.973 415.416C649.935 416.152 649.859 416.885 649.744 417.614C649.629 418.344 649.476 419.065 649.286 419.777C647.056 428.373 641.25 432.005 634.102 436.221C632.548 436.656 630.936 437.038 629.311 436.997C623.391 436.847 616.853 434.625 612.776 430.116C608.189 425.041 606.582 417.951 607.09 411.22C607.764 402.29 612.476 397.921 619.009 392.559Z" fill="#FEFEFE"/>
<path d="M448.344 390.028C450.73 389.992 453.174 389.941 455.548 390.226C461.937 390.996 468.843 395.373 472.412 400.625C475.853 405.687 476.721 411.805 475.435 417.716C473.57 426.296 467.869 430.347 460.732 434.761C457.226 434.948 453.346 435.29 449.907 434.516C444.217 433.233 438.225 429.233 435.139 424.316C431.968 419.264 431.282 413.241 432.708 407.513C434.947 398.534 440.731 394.573 448.344 390.028Z" fill="#FEFEFE"/>
<path d="M537.942 390C539.935 390.215 541.938 390.396 543.892 390.865C550.422 392.435 556.843 396.315 560.27 402.201C563.316 407.436 563.743 413.694 561.901 419.414C559.062 428.234 553.216 432.13 545.214 436C541.519 435.705 537.544 435.443 534.055 434.101C527.728 431.669 522.179 426.491 519.598 420.219C519.322 419.568 519.082 418.904 518.877 418.227C518.671 417.552 518.501 416.867 518.367 416.173C518.234 415.479 518.137 414.78 518.076 414.078C518.015 413.373 517.991 412.668 518.003 411.961C518.015 411.255 518.065 410.551 518.151 409.85C518.238 409.149 518.36 408.454 518.518 407.765C518.678 407.076 518.873 406.397 519.104 405.729C519.332 405.061 519.596 404.406 519.894 403.765C523.688 395.727 529.887 392.699 537.942 390Z" fill="#FEFEFE"/>
<path d="M1279.71 378.733C1308.44 376.921 1337.97 378.983 1366.77 379.427L1504.31 380.736L1595.33 380.92C1616.36 380.943 1643.04 378.526 1663.27 384.002C1672.4 386.477 1680.28 393.691 1684.52 401.897C1688.11 408.845 1689.26 416.669 1686.36 424.045C1680.57 438.758 1670.66 444.887 1656.8 451.085C1586.36 453.56 1515.25 450.292 1444.75 449.71C1414.35 449.46 1383.89 448.694 1353.5 448.753C1333.94 448.791 1314.33 450.297 1294.77 449.077C1285.9 448.524 1276.87 447.289 1268.9 443.165C1259.43 438.263 1251.86 430.136 1249.13 419.815C1247.05 411.951 1247.74 403.803 1251.99 396.75C1258.17 386.47 1268.34 381.497 1279.71 378.733Z" fill="#FEFEFE"/>
<path d="M320.659 485L1251.85 497.617L1527.86 500.961C1603.26 501.062 1678.64 502.17 1754 504.288C1752.48 558.58 1751.29 612.88 1750.42 667.187C1747.95 792.522 1746.46 917.868 1745.95 1043.23C1745.87 1090.95 1745.36 1138.79 1746.2 1186.5C1746.82 1222.37 1749.95 1258.69 1746.04 1294.47C1744.09 1312.32 1739.7 1328.87 1725.93 1341.66C1714.29 1352.49 1698.68 1358.33 1682.92 1359.87C1651.17 1362.97 1610.32 1359.92 1577.52 1359.72L1380.99 1359.54L843.175 1361.41L617.722 1362.34C582.591 1362.56 546.838 1361.28 511.808 1362.92C506.027 1362.97 502.011 1363.67 497.564 1359.69C495.403 1338.01 497.728 1314.69 497.266 1292.78C495.626 1214.79 488.804 1131.06 465.416 1056.12C454.808 1022.14 440.334 989.311 426.038 956.71C399.15 895.392 367.465 839.606 318.179 792.949C318.334 763.349 318.275 733.748 318 704.148C318.759 680.271 318.052 656.267 318.477 632.367C319.345 583.225 320.995 534.161 320.659 485Z" fill="#FEFEFE"/>
<path d="M1010.67 537.164C1027.38 536.504 1046.13 537.381 1059.57 548.552C1077.33 563.301 1103.54 611.199 1116.09 631.579L1153.44 691.392L1289.14 908.985L1370.27 1038C1391.32 1071.01 1414.07 1104.11 1432.26 1138.75C1436.34 1146.54 1438.62 1156.33 1438.96 1165.05C1439.48 1178.62 1435.31 1192.88 1425.63 1202.82C1416.43 1212.27 1404.89 1215.18 1392.21 1216.9C1378.51 1218.77 1364.01 1217.66 1350.19 1217.54C1327.95 1217.33 1305.7 1217.25 1283.45 1217.3L1040.24 1217.99L827.554 1218.5C788.211 1218.55 669.22 1224.33 638.477 1212.87C626.752 1208.5 618.155 1198.42 613.451 1187.18C608.102 1174.4 609.375 1161.28 614.501 1148.66C628.717 1113.66 654.118 1081.04 674.168 1049.02L778.832 880.195L912.168 666.764L953.654 600.568C962.88 585.881 971.866 570.479 982.513 556.737C989.966 547.119 999.662 541.835 1010.67 537.164Z" fill="#FECC34"/>
<path d="M1016.96 631.053C1029.02 630.56 1041.1 633.465 1050.6 641.078C1070.71 657.185 1124.5 756.747 1141.79 784.391C1185.68 853.824 1228.94 923.633 1271.58 993.82C1292.45 1027.78 1315.55 1061.51 1334.27 1096.62C1337.93 1103.5 1340.59 1111.63 1340.97 1119.42C1341.5 1130.49 1335.27 1141.14 1327.57 1148.83C1321.38 1155.01 1314.1 1159.15 1305.43 1160.81C1276.47 1166.35 1243.76 1163 1214.25 1162.92C1155.99 1162.31 1097.73 1162.09 1039.46 1162.26L856.54 1162.28C824.095 1162.36 790.943 1164.67 758.626 1161.53C749.7 1160.66 741.807 1159.19 734.043 1154.44C723.004 1147.69 716.088 1136.21 713.225 1123.87C710.802 1113.44 712.026 1100.85 716.433 1091.04C723.878 1074.47 735.555 1058.74 745.264 1043.37C760.731 1018.72 776.032 993.976 791.169 969.132L980.902 662.087C991.083 645.666 996.704 635.874 1016.96 631.053Z" fill="#058D9C"/>
<path d="M1014.71 645.717C1016.8 645.431 1018.89 645.157 1021 645.045C1028.91 644.62 1035.64 647.22 1041.48 652.458C1058.6 667.821 1083.52 716.867 1096.29 738.293C1111.53 763.463 1126.9 788.551 1142.41 813.558L1240.55 971.655C1264.5 1009.69 1289.49 1047.49 1311.94 1086.38C1316.96 1095.08 1324.49 1107.54 1324.98 1117.66C1325.34 1125.34 1321.5 1133.3 1316.09 1138.71C1311.27 1143.52 1306.04 1145.44 1299.36 1146.45C1269.81 1150.92 1238.09 1147.94 1208.24 1147.86L1040.36 1147.79L851.782 1147.8C822.366 1147.87 779.089 1153.67 751.475 1146.15C742.703 1143.76 735.856 1138.6 731.479 1130.69C726.877 1122.37 725.666 1111.69 728.571 1102.62C735.659 1080.49 765.354 1039.51 778.789 1017.42C829.647 933.092 881.349 849.275 933.895 765.965C948.172 743.01 962.258 719.941 976.154 696.759C984.345 682.973 992.005 667.954 1001.43 654.961C1004.63 650.546 1009.97 648.204 1014.71 645.717Z" fill="#FECC34"/>
<path d="M1021.26 1021C1026.73 1021.24 1032.38 1021.7 1037.6 1023.41C1038.79 1023.81 1039.96 1024.27 1041.1 1024.79C1042.25 1025.3 1043.36 1025.88 1044.45 1026.5C1045.53 1027.13 1046.58 1027.81 1047.6 1028.54C1048.61 1029.27 1049.59 1030.05 1050.52 1030.88C1051.46 1031.71 1052.35 1032.58 1053.19 1033.5C1054.04 1034.41 1054.83 1035.37 1055.58 1036.36C1056.33 1037.36 1057.02 1038.39 1057.66 1039.45C1058.3 1040.52 1058.89 1041.61 1059.41 1042.73C1059.96 1043.88 1060.44 1045.04 1060.86 1046.23C1061.29 1047.42 1061.65 1048.63 1061.95 1049.86C1062.25 1051.09 1062.48 1052.32 1062.65 1053.57C1062.83 1054.82 1062.93 1056.08 1062.98 1057.34C1063.02 1058.6 1063 1059.86 1062.91 1061.12C1062.83 1062.38 1062.68 1063.63 1062.47 1064.87C1062.25 1066.12 1061.98 1067.35 1061.64 1068.56C1061.3 1069.78 1060.9 1070.97 1060.43 1072.15C1055.36 1084.97 1045.4 1090.79 1033.17 1095.8C1026.15 1096.19 1019.04 1096.27 1012.44 1093.57C1003.16 1089.77 995.73 1082.78 991.934 1073.59C991.415 1072.34 990.962 1071.07 990.577 1069.78C990.193 1068.48 989.878 1067.17 989.633 1065.84C989.388 1064.51 989.214 1063.17 989.112 1061.83C989.007 1060.48 988.976 1059.13 989.018 1057.78C989.058 1056.43 989.17 1055.09 989.354 1053.75C989.537 1052.41 989.79 1051.09 990.115 1049.78C990.44 1048.46 990.833 1047.17 991.293 1045.9C991.756 1044.63 992.284 1043.38 992.878 1042.17C998.946 1029.86 1008.78 1025.07 1021.26 1021Z" fill="#058D9C"/>
<path d="M1018.44 1037.24C1021.76 1037.11 1025.27 1036.84 1028.58 1037.13C1034.71 1037.67 1040.4 1040.81 1044.34 1045.43C1048.1 1049.85 1049.61 1055.49 1048.78 1061.16C1047.4 1070.6 1041.41 1076.01 1033.88 1081.26C1030.09 1082.04 1025.39 1082.31 1021.59 1081.55C1015.97 1080.44 1010.63 1076.95 1007.58 1072.17C1003.89 1066.38 1003.21 1059.65 1004.82 1053.08C1006.8 1044.94 1011.55 1041.6 1018.44 1037.24Z" fill="#FECC34"/>
<path d="M1014.75 779C1026.28 779.168 1036.27 782.453 1044.55 790.576C1060.26 805.993 1064.49 832.19 1063.96 853.087C1063.3 878.716 1049.26 954.34 1037.73 976.86C1036.08 980.068 1033.6 982.546 1030.98 985C1028.27 984.924 1025.33 984.602 1022.68 984.057C1019.04 983.308 1016.16 981.251 1014.27 978.134C999.942 954.508 976.348 837.66 984.77 811.189C989.679 795.765 1000.58 786.287 1014.75 779Z" fill="#058D9C"/>
</svg>
