<?xml version="1.0" encoding="utf-8" ?>
<svg xmlns="http://www.w3.org/2000/svg" xmlns:xlink="http://www.w3.org/1999/xlink" width="1523" height="1523">
	<path fill="#42423A" transform="scale(1.48787 1.48787)" d="M610.881 236.011C643.5 190.655 690.006 157.068 745.928 148.016Q748.515 147.573 751.112 147.195Q753.709 146.817 756.315 146.504Q758.92 146.191 761.533 145.942Q764.146 145.694 766.764 145.511Q769.382 145.328 772.003 145.21Q774.625 145.092 777.249 145.04Q779.873 144.988 782.497 145.001Q785.122 145.014 787.745 145.092Q790.368 145.171 792.989 145.315Q795.609 145.458 798.225 145.667Q800.841 145.876 803.452 146.151Q806.062 146.425 808.664 146.764Q811.266 147.103 813.86 147.507Q816.453 147.911 819.035 148.379Q821.617 148.848 824.187 149.381Q826.757 149.913 829.313 150.51Q831.869 151.106 834.409 151.766Q836.949 152.426 839.472 153.149Q841.994 153.872 844.498 154.658Q847.003 155.444 849.486 156.292Q851.97 157.14 854.432 158.049Q856.893 158.959 859.332 159.93Q861.77 160.9 864.184 161.931Q866.597 162.963 868.984 164.053Q871.371 165.144 873.73 166.295Q876.089 167.445 878.418 168.653Q880.748 169.862 883.047 171.128Q885.346 172.394 887.612 173.717Q889.879 175.04 892.111 176.419Q894.344 177.799 896.542 179.233Q898.74 180.667 900.901 182.156Q903.062 183.645 905.186 185.187C948.603 216.695 978.787 267.743 987.102 320.585C996.056 377.489 984.134 435.945 949.979 482.772C937.037 500.516 920.929 516.906 902.393 528.832C894.857 533.68 886.781 537.691 879.109 542.326C899.91 567.096 908.073 596.583 905.278 628.772C903.581 648.323 896.814 666.197 886.598 682.804C883.567 687.731 880.108 692.396 877.104 697.324C872.932 701.115 869.296 705.729 865.303 709.748Q861.295 713.803 856.987 717.536Q852.678 721.27 848.095 724.659Q843.511 728.049 838.679 731.076Q833.848 734.102 828.797 736.746C793.742 755.219 754.236 756.874 716.726 745.354C678.879 733.731 648.486 705.406 630.191 670.796C618.38 648.452 610.018 623.384 614.025 597.844C614.992 591.68 616.831 585.803 618.669 579.86C609.044 586.871 577.768 650.276 570.943 664.011C567.625 670.69 565.033 680.195 559.986 685.661C561.25 663.53 566.303 641.521 566.574 619.315L563.38 616.564C558.318 606.077 550.858 596.864 544 587.512Q536.692 577.421 529.633 567.155L458.462 464.945Q450.441 453.337 442.192 441.891C437.358 435.237 432.244 428.676 427.865 421.707C418.069 406.118 415.372 388.96 419.532 370.987C425.949 343.267 446.786 321.225 471.846 308.817C476.015 306.753 488.642 302.623 491.2 300.822C491.35 300.716 491.48 300.587 491.62 300.47C500.426 296.788 511.538 295.705 520.966 294.554C533.915 272.466 547.848 250.758 561.486 229.083C568.406 218.084 575.631 204.858 583.459 194.698C593.779 205.771 602.832 223.039 610.881 236.011ZM583.677 201.099Q553.632 247.528 525.633 295.218C540.359 294.366 569.351 300.12 582.18 306.588C584.576 300.697 585.573 293.696 587.423 287.534C592.075 272.038 599.582 253.341 608.713 239.985Q600.401 226.384 591.701 213.028C589.11 209.058 586.623 204.807 583.677 201.099ZM884.706 556.561C886.977 563.35 890.036 569.835 891.965 576.74C899.489 603.663 896.305 630.81 889.542 657.478C887.424 665.83 883.843 674.383 882.327 682.793C884.123 680.987 885.489 677.997 886.786 675.745Q888.533 672.676 890.096 669.509Q891.66 666.343 893.034 663.089Q894.408 659.836 895.588 656.508Q896.768 653.179 897.75 649.787Q898.731 646.395 899.512 642.95Q900.292 639.506 900.868 636.022Q901.445 632.538 901.815 629.026Q902.185 625.514 902.347 621.986C903.102 603.71 897.648 570.651 884.706 556.561Z"/>
	<path fill="#FC3" transform="scale(1.48787 1.48787)" d="M776.419 501.5C777.293 502.529 776.248 507.945 776.081 509.422C775.012 518.861 776.09 527.5 778.609 536.629Q777.666 538.213 776.687 539.775C771.393 548.194 763.86 554.531 753.991 556.711C742.565 559.235 732.686 555.526 723.163 549.392L723.794 543.621C725.142 530.504 722.237 519.604 716.7 507.73C725.402 513.961 734.937 519.926 746.043 519.719C759.317 519.471 767.832 510.353 776.419 501.5Z"/>
	<path fill="#53599A" transform="scale(1.48787 1.48787)" d="M780.636 544.708C786.398 548.971 794.784 562.234 799.583 568.471C805.258 575.847 811.459 583.36 817.954 590.019C813.237 599.773 809.754 610.593 805.724 620.694L780.002 684.978C776.423 694.393 772.101 703.555 768.944 713.125C769.453 688.906 771.643 664.694 773.325 640.532Q776.22 592.562 780.636 544.708Z"/>
	<path fill="#53599A" transform="scale(1.48787 1.48787)" d="M774.826 549.396C776.017 551.031 775.603 554.485 775.515 556.539C775.112 565.884 774.046 575.251 773.329 584.58L769.506 636.358C767.895 658.501 767.4 680.997 764.669 703.007C761.286 690.037 757.265 677.292 753.637 664.392C742.758 627.557 730.878 590.639 721.962 553.29C728.692 557.656 735.249 560.642 743.336 561.373C755.832 562.503 765.516 557.137 774.826 549.396Z"/>
	<path fill="#53599A" transform="scale(1.48787 1.48787)" d="M718.071 559.437C721.39 562.112 758.598 697.573 763.02 713.657C757.755 706.974 752.751 700.049 747.639 693.246C735.485 677.24 723.195 661.273 711.385 645.012C702.302 632.508 693.691 619.461 683.894 607.504C690.844 597.207 695.812 585.057 701.568 574.024C708.343 570.602 713.354 565.264 718.071 559.437Z"/>
	<path fill="#FC3" transform="scale(1.48787 1.48787)" d="M608.713 239.985C616.177 254.284 628.353 271.054 637.263 285.114L660.605 321.739C668.562 334.393 676.284 347.057 684.967 359.235C675.875 365.531 669.817 372.953 666.424 383.567Q665.061 381.071 663.618 378.622Q662.175 376.172 660.652 373.771Q659.13 371.369 657.53 369.019Q655.929 366.669 654.253 364.372Q652.577 362.075 650.827 359.834Q649.077 357.593 647.255 355.411Q645.433 353.228 643.54 351.106Q641.648 348.984 639.687 346.925Q637.726 344.866 635.699 342.872Q633.672 340.878 631.581 338.952Q629.49 337.025 627.337 335.168Q625.184 333.31 622.972 331.524Q620.76 329.738 618.49 328.025Q616.221 326.312 613.897 324.674Q611.573 323.036 609.196 321.475Q606.82 319.914 604.394 318.431C597.194 314.046 589.652 310.47 582.18 306.588C584.576 300.697 585.573 293.696 587.423 287.534C592.075 272.038 599.582 253.341 608.713 239.985Z"/>
	<path fill="#FC3" transform="scale(1.48787 1.48787)" d="M709.84 378.534C714.813 378.457 722.536 386.864 726.564 389.759C729.845 392.117 733.343 394.261 736.862 396.244C753.972 405.89 772.034 409.258 791.36 410.593C792.358 421.521 793.385 431.946 792.721 442.956C791.049 470.678 782.198 492.087 761.316 510.562Q760.416 511.155 759.486 511.7C752.793 515.58 745.317 516.467 737.847 514.481C717.486 509.068 705.266 489.422 695.497 472.235C684.974 453.723 678.626 433.029 684.555 411.861C688.505 397.76 696.944 385.711 709.84 378.534Z"/>
	<path fill="#53599A" transform="scale(1.48787 1.48787)" d="M658.005 549.429C660.649 549.913 658.953 563.538 667.945 571.192C676.186 578.207 686.238 577.099 696.178 576.294C693.112 580.475 691.019 585.549 688.601 590.129C685.512 595.979 682.155 601.691 678.987 607.5C690.402 622.18 701.064 637.679 711.963 652.762C720.13 664.065 728.634 675.105 736.971 686.28C746.043 698.441 754.79 710.422 764.86 721.798C765.835 730.93 766.112 740.177 766.579 749.349C759.245 748.886 751.892 748.617 744.62 747.51C736.72 747.094 727.874 744.552 720.361 742.193C682.015 730.154 651.663 703.181 633.285 667.717C620.92 643.854 611.848 614.949 620.43 588.33C626.393 569.832 641.286 558.068 658.005 549.429Z"/>
	<path fill="#53599A" transform="scale(1.48787 1.48787)" d="M801.334 564.766C805.485 566.425 809.3 567.978 813.737 568.787C823.185 570.508 834.326 568.924 842.263 563.255Q842.736 562.918 843.192 562.558Q843.647 562.197 844.083 561.813Q844.519 561.43 844.935 561.024Q845.35 560.619 845.745 560.192Q846.139 559.765 846.51 559.319Q846.882 558.873 847.23 558.408Q847.578 557.943 847.901 557.46Q848.225 556.978 848.523 556.48Q848.821 555.981 849.093 555.468Q849.365 554.955 849.611 554.428Q849.856 553.902 850.074 553.363Q850.291 552.825 850.481 552.276Q850.67 551.727 850.831 551.169Q850.992 550.611 851.124 550.045Q851.256 549.48 851.359 548.908Q851.461 548.336 851.534 547.76C852.908 537.422 847.696 529.202 841.615 521.455Q844.584 522.554 847.518 523.743C859.548 528.72 879.72 544.43 884.706 556.561C886.977 563.35 890.036 569.835 891.965 576.74C899.489 603.663 896.305 630.81 889.542 657.478C887.424 665.83 883.843 674.383 882.327 682.793C882.332 685.162 878.869 689.093 877.392 690.946C848.132 727.652 816.374 744.125 770.168 749.375C769.658 740.817 768.161 730.716 769.869 722.303C772.474 709.474 779.896 697.148 784.717 684.998C797.329 653.208 809.28 621.078 822.372 589.488C815.169 581.448 808.318 573.001 801.334 564.766Z"/>
	<path fill="#53599A" transform="scale(1.48787 1.48787)" d="M525.633 295.218C540.359 294.366 569.351 300.12 582.18 306.588C589.652 310.47 597.194 314.046 604.394 318.431Q606.82 319.914 609.196 321.475Q611.573 323.036 613.897 324.674Q616.221 326.312 618.49 328.025Q620.76 329.738 622.972 331.524Q625.184 333.31 627.337 335.168Q629.49 337.025 631.581 338.952Q633.672 340.878 635.699 342.872Q637.726 344.866 639.687 346.925Q641.648 348.984 643.54 351.106Q645.433 353.228 647.255 355.411Q649.077 357.593 650.827 359.834Q652.577 362.075 654.253 364.372Q655.929 366.669 657.53 369.019Q659.13 371.369 660.652 373.771Q662.175 376.172 663.618 378.622Q665.061 381.071 666.424 383.567C661.49 392.3 661.521 410.284 661.244 420.253L449.105 420.236C457.726 408.315 465.037 394.966 472.647 382.351L506.252 326.934C512.544 316.402 518.209 304.995 525.633 295.218Z"/>
	<path fill="#53599A" transform="scale(1.48787 1.48787)" d="M491.62 300.47C500.426 296.788 511.538 295.705 520.966 294.554L520.716 295.044C515.671 304.753 509.346 314.108 503.647 323.455L469.092 380.524C461.518 392.838 453.247 404.909 446.54 417.724C445.603 419.514 444.776 421.363 444.576 423.39C445.89 424.78 449.2 424.622 451.119 424.67C456.869 424.814 462.669 424.345 468.423 424.265C479.258 424.113 490.111 424.234 500.949 424.225C554.512 424.179 608.121 423.538 661.679 424.004C665.615 449.443 677.747 473.584 671.837 499.803C668.54 514.426 662.106 528.051 659.691 542.939C643.103 553.016 628.831 562.874 618.669 579.86C609.044 586.871 577.768 650.276 570.943 664.011C567.625 670.69 565.033 680.195 559.986 685.661C561.25 663.53 566.303 641.521 566.574 619.315L563.38 616.564C558.318 606.077 550.858 596.864 544 587.512Q536.692 577.421 529.633 567.155L458.462 464.945Q450.441 453.337 442.192 441.891C437.358 435.237 432.244 428.676 427.865 421.707C418.069 406.118 415.372 388.96 419.532 370.987C425.949 343.267 446.786 321.225 471.846 308.817C476.015 306.753 488.642 302.623 491.2 300.822C491.35 300.716 491.48 300.587 491.62 300.47Z"/>
	<path fill="#FC3" transform="scale(1.48787 1.48787)" d="M610.881 236.011C643.5 190.655 690.006 157.068 745.928 148.016Q748.515 147.573 751.112 147.195Q753.709 146.817 756.315 146.504Q758.92 146.191 761.533 145.942Q764.146 145.694 766.764 145.511Q769.382 145.328 772.003 145.21Q774.625 145.092 777.249 145.04Q779.873 144.988 782.497 145.001Q785.122 145.014 787.745 145.092Q790.368 145.171 792.989 145.315Q795.609 145.458 798.225 145.667Q800.841 145.876 803.452 146.151Q806.062 146.425 808.664 146.764Q811.266 147.103 813.86 147.507Q816.453 147.911 819.035 148.379Q821.617 148.848 824.187 149.381Q826.757 149.913 829.313 150.51Q831.869 151.106 834.409 151.766Q836.949 152.426 839.472 153.149Q841.994 153.872 844.498 154.658Q847.003 155.444 849.486 156.292Q851.97 157.14 854.432 158.049Q856.893 158.959 859.332 159.93Q861.77 160.9 864.184 161.931Q866.597 162.963 868.984 164.053Q871.371 165.144 873.73 166.295Q876.089 167.445 878.418 168.653Q880.748 169.862 883.047 171.128Q885.346 172.394 887.612 173.717Q889.879 175.04 892.111 176.419Q894.344 177.799 896.542 179.233Q898.74 180.667 900.901 182.156Q903.062 183.645 905.186 185.187C948.603 216.695 978.787 267.743 987.102 320.585C996.056 377.489 984.134 435.945 949.979 482.772C937.037 500.516 920.929 516.906 902.393 528.832C894.857 533.68 886.781 537.691 879.109 542.326C876.532 541.376 867.901 531.723 864.825 529.261C856.771 522.813 847.434 519.466 837.686 516.67C821.593 495.758 828.113 467.548 825.461 443.151C823.047 420.944 816.348 397.873 804.832 378.672C793.274 359.4 775.956 342.511 753.629 336.97C741.965 334.076 728.294 334.533 717.796 340.923C713.381 343.61 704.851 349.108 703.958 354.627C703.842 355.348 703.893 355.17 704.377 355.715C707.892 356.041 714.916 347.664 718.167 345.463Q720.562 343.832 723.195 342.621Q725.828 341.41 728.625 340.652C742.614 336.795 757.993 341.259 770.199 348.365C804.75 368.48 820.233 414.678 822.336 452.646C823.181 467.902 820.933 483.706 824.736 498.66C829.195 516.197 843.829 525.3 847.241 539.583C848.46 544.687 848.105 550.38 845.179 554.858C841.543 560.42 834.953 563.41 828.632 564.723C818.654 566.795 808.759 564.731 800.269 559.149C781.599 546.872 776.013 522.983 781.173 502.198C784.719 487.916 791.638 474.837 794.639 460.294C798.323 442.438 797.824 424.358 794.215 406.545C769.309 405.931 748.201 400.023 727.836 385.294C722.711 381.587 717.518 377.641 713.122 373.087C707.52 375.102 702.731 377.852 698.238 381.79C689.747 389.232 684.407 398.898 681.102 409.585C663.952 465.037 723.46 498.1 720.4 538.992C719.69 548.475 715.445 558.636 708.113 564.845C701.638 570.329 692.566 573.909 684.013 573.088C677.821 572.494 671.604 569.966 667.762 564.884C654.429 547.243 676.614 508.609 677.576 487.715C678.32 471.568 672.862 456.823 668.996 441.434C665.528 427.63 664.2 412.89 666.428 398.773C668.634 384.796 674.07 368.82 687.917 362.56C692.522 360.477 697.384 359.887 701.559 356.826L701.652 356.152C701.215 355.803 700.855 355.473 700.317 355.257C697.3 354.044 691.473 356.562 688.57 357.493C681.308 345.51 673.316 333.859 665.734 322.068L632.544 269.963C625.273 258.672 617.704 247.583 610.881 236.011Z"/>
	<path fill="#068D9D" transform="scale(1.48787 1.48787)" d="M877.104 697.324Q876.004 701.791 874.396 706.101C870.401 717.1 864.905 727.872 859.309 738.141C830.924 790.238 787.259 830.207 733.631 855.292Q731.07 856.497 728.486 857.653Q725.902 858.809 723.296 859.914Q720.69 861.02 718.064 862.076Q715.437 863.131 712.791 864.136Q710.145 865.141 707.48 866.094Q704.815 867.048 702.132 867.95Q699.449 868.852 696.749 869.703Q694.049 870.553 691.333 871.352Q688.618 872.15 685.887 872.896Q683.156 873.642 680.412 874.336Q677.668 875.029 674.91 875.669Q672.153 876.31 669.384 876.897Q666.615 877.484 663.835 878.018Q661.056 878.552 658.266 879.033Q655.476 879.513 652.678 879.94Q649.88 880.366 647.074 880.739Q644.268 881.112 641.455 881.43Q638.643 881.749 635.824 882.014Q633.006 882.278 630.183 882.489Q627.36 882.699 624.534 882.855Q621.708 883.011 618.879 883.112Q616.05 883.214 613.22 883.261Q610.39 883.308 607.559 883.301Q604.729 883.294 601.899 883.232Q599.069 883.17 596.24 883.054Q593.412 882.938 590.587 882.767Q587.761 882.596 584.939 882.372Q582.118 882.147 579.301 881.868Q576.484 881.589 573.673 881.255Q570.862 880.922 568.058 880.535Q565.254 880.148 562.458 879.707Q559.662 879.266 556.875 878.771C536.684 875.256 516.85 869.591 497.387 863.238C461.793 851.62 434.727 839.648 395.978 842.52C370.733 844.39 346.412 853.444 322.503 861.086C278.793 875.056 230.435 882.266 186.275 866.172C148.208 852.3 119.501 823.695 102.633 787.233C75.5119 728.607 79.6189 660.861 98.0309 600.399C105.456 576.017 115.367 552.423 124.126 528.504C140.372 484.143 147.007 449.946 123.452 405.927C115.9 391.816 106.843 378.531 100.12 363.975C87.6793 337.039 84.4062 307.012 94.9214 278.859C109.707 239.272 144.475 211.845 181.783 194.713C239.963 167.996 311.986 167.811 371.584 190.023C414.339 205.958 453.663 234.202 477.901 273.396C483.273 282.082 487.378 291.214 491.62 300.47C491.48 300.587 491.35 300.716 491.2 300.822C488.642 302.623 476.015 306.753 471.846 308.817C446.786 321.225 425.949 343.267 419.532 370.987C415.372 388.96 418.069 406.118 427.865 421.707C432.244 428.676 437.358 435.237 442.192 441.891Q450.441 453.337 458.462 464.945L529.633 567.155Q536.692 577.421 544 587.512C550.858 596.864 558.318 606.077 563.38 616.564L566.574 619.315C566.303 641.521 561.25 663.53 559.986 685.661C565.033 680.195 567.625 670.69 570.943 664.011C577.768 650.276 609.044 586.871 618.669 579.86C616.831 585.803 614.992 591.68 614.025 597.844C610.018 623.384 618.38 648.452 630.191 670.796C648.486 705.406 678.879 733.731 716.726 745.354C754.236 756.874 793.742 755.219 828.797 736.746Q833.848 734.102 838.679 731.076Q843.511 728.049 848.095 724.659Q852.678 721.27 856.987 717.536Q861.295 713.803 865.303 709.748C869.296 705.729 872.932 701.115 877.104 697.324Z"/>
	<path fill="#42423A" transform="scale(1.48787 1.48787)" d="M219.248 399.804C219.876 398.937 220.495 398.116 221.267 397.368C225.14 393.614 230.566 391.236 235.314 388.781C251.316 380.509 267.31 373.565 285.735 374.35C294.467 374.723 307.487 376.451 313.379 383.559C315.695 386.352 317.391 390.082 320.33 392.286C326.28 396.747 332.974 398.837 338.181 404.584C351.013 418.746 347.367 440.954 346.37 458.332C350.088 460.103 352.911 462.645 354.846 466.306C357.917 472.117 357.709 479.842 355.55 485.936C353.344 492.165 349.59 495.485 343.791 498.172C339.609 518.219 333.994 533.443 320.709 549.264L322.586 557.713C349.981 567.439 387.606 578.552 408.747 598.902C414.295 604.242 418.425 610.625 422.641 617.01C469.552 617.095 516.467 616.21 563.38 616.564L566.574 619.315C566.303 641.521 561.25 663.53 559.986 685.661L551.535 761.243C549.873 775.992 548.601 791.123 545.698 805.68C536.205 807.238 525.719 806.512 516.096 806.513L467.412 806.376L342.403 806.219L262.111 806.193C251.872 806.233 234.022 807.983 224.825 805.898C222.924 805.466 221.586 804.991 220.525 803.315C220.936 802.023 221.384 801.497 222.481 800.682C228.364 796.312 237.67 794.321 244.526 791.809C255.842 787.663 268.7 781.765 280.406 779.604C291.4 777.575 319.116 781.789 331.395 783.194C331.78 777.625 332.408 772.094 332.718 766.511L191.206 765.522L146.608 765.287C136.782 765.264 127.107 765.678 117.306 764.678C114.621 755.897 116.494 745.293 117.166 736.217C119.433 705.605 122.505 674.298 132.428 645.078C145.38 606.94 166.628 602.758 197.483 583.595C211.164 575.098 223.556 565.428 238.113 558.272C239.388 547.013 242.501 530.452 239.213 519.646C237.902 515.34 235.561 511.143 233.609 507.089C229.018 505.862 225.131 504.037 221.667 500.706C216.037 495.292 212.746 486.814 212.785 479.041C212.815 473.233 214.839 469.377 218.889 465.435C205.196 437.38 215.431 426.912 219.248 399.804Z"/>
	<path fill="#FC3" transform="scale(1.48787 1.48787)" d="M346.014 462.989C349.417 464.754 351.505 466.967 352.605 470.708C354.605 477.51 352.454 484.422 349.251 490.421L344.421 494.295C344.923 484.024 343.834 473.019 346.014 462.989Z"/>
	<path fill="#FC3" transform="scale(1.48787 1.48787)" d="M219.792 469.292C220.89 469.954 221.858 470.717 222.663 471.722C226.834 476.927 232.383 495.766 231.604 502.117L230.65 502.709C224.592 499.231 220.735 494.704 218.435 488.021C216.147 481.374 216.725 475.494 219.792 469.292Z"/>
	<path fill="#FC3" transform="scale(1.48787 1.48787)" d="M283.566 783.523C288.237 782.62 322.976 787.084 331.198 787.643Q330.679 794.832 330.234 802.026L280.25 801.745C264.092 801.718 247.79 802.386 231.654 801.893C239.181 799.544 246.537 796.336 253.951 793.622C263.738 790.039 273.683 786.833 283.566 783.523Z"/>
	<path fill="#FC3" transform="scale(1.48787 1.48787)" d="M244.149 528.717C247.449 530.859 250.295 535.77 252.855 538.843C261.215 548.876 273.964 557.145 286.875 559.596C298.863 561.871 307.408 558.477 317.237 551.864C317.735 555.065 318.381 558.241 318.999 561.421C315.201 570.196 311.063 578.83 307.361 587.64C304.105 594.259 301.222 601.051 297.922 607.645C286.926 597.277 275.014 587.631 263.413 577.932C256.526 572.175 249.8 565.899 242.495 560.693C242.306 550.132 243.2 539.239 244.149 528.717Z"/>
	<path fill="#FC3" transform="scale(1.48787 1.48787)" d="M313.478 412.984C314.601 413.129 315.693 413.58 316.665 414.155C327.643 420.656 334.286 438.55 337.452 450.074C344.875 477.093 341.603 509.275 327.622 533.649C321.928 543.575 313.434 552.608 302.021 555.547C290.142 558.605 279.411 553.787 269.353 547.835C259.69 540.965 251.951 533.114 245.648 523.031C233.352 503.361 228.828 476.99 234.214 454.391C238.349 437.042 248.011 425.315 266.541 423.513C275.834 422.61 285.379 423.185 294.542 421.203C301.56 419.686 307.394 416.704 313.478 412.984Z"/>
	<path fill="#068D9D" transform="scale(1.48787 1.48787)" d="M480.156 620.743L563.039 620.5C560.281 648.46 556.839 676.385 553.766 704.314Q548.864 753.24 542.475 801.994L416.75 802.011L334.383 801.748C336.238 783.394 337.641 764.982 339.361 746.613L352.039 621.497L427.304 621.007C444.875 620.957 462.609 621.529 480.156 620.743Z"/>
</svg>
