<svg width="1911" height="1624" viewBox="0 0 1911 1624" fill="none" xmlns="http://www.w3.org/2000/svg">
<ellipse cx="949.297" cy="923.444" rx="585" ry="711" transform="rotate(17.9097 949.297 923.444)" fill="#FEE5A7"/>
<path d="M156.316 623.16C152.618 613.516 148.896 603.902 146.226 593.913C127.328 523.23 150.754 445.912 186.881 384.418C188.311 382.008 189.77 379.617 191.257 377.244C192.747 374.87 194.265 372.515 195.812 370.179C197.358 367.842 198.933 365.524 200.538 363.226C202.142 360.928 203.774 358.65 205.435 356.393C207.094 354.134 208.782 351.897 210.498 349.681C212.214 347.464 213.956 345.269 215.725 343.095C217.495 340.921 219.291 338.768 221.113 336.637C222.937 334.508 224.786 332.401 226.661 330.316C228.536 328.231 230.436 326.169 232.362 324.131C234.287 322.093 236.238 320.079 238.212 318.088C240.188 316.097 242.189 314.131 244.213 312.19C246.236 310.248 248.283 308.331 250.356 306.44C252.427 304.548 254.52 302.682 256.637 300.842C258.755 299.002 260.895 297.188 263.057 295.401C265.22 293.613 267.403 291.851 269.609 290.117C271.814 288.382 274.041 286.675 276.29 284.996C278.537 283.317 280.805 281.664 283.093 280.039C285.382 278.415 287.69 276.819 290.018 275.252C292.346 273.684 294.693 272.145 297.059 270.634C299.425 269.124 301.809 267.643 304.211 266.191C306.614 264.738 309.034 263.316 311.471 261.922C313.909 260.53 316.364 259.168 318.834 257.835C321.306 256.502 323.794 255.199 326.297 253.927C328.8 252.656 331.318 251.415 333.853 250.204C336.387 248.994 338.936 247.815 341.499 246.667C344.062 245.519 346.639 244.404 349.23 243.32C351.82 242.235 354.424 241.181 357.041 240.16C359.657 239.14 362.286 238.151 364.928 237.194C367.568 236.237 370.22 235.314 372.884 234.422C375.548 233.53 378.223 232.671 380.908 231.845C383.593 231.018 386.287 230.226 388.992 229.466C391.697 228.705 394.411 227.977 397.134 227.284C474.618 207.195 551.92 216.551 625.923 245.043C644.92 252.357 664.516 260.534 682.105 270.807C697.142 277.997 711.324 288.078 725.089 297.399C718.094 316.722 708.667 334.965 698.841 352.99C667.822 409.896 627.727 462.469 567.453 490.79C541.11 503.168 509.712 509.049 480.651 508.029C390.802 504.876 285.349 441.765 210.285 519.992C192.095 538.946 177.078 563.277 168.005 587.879C163.816 599.236 162.369 612.676 156.316 623.16Z" fill="#068D9D"/>
<path d="M1177.8 664.781C1193.19 676.109 1206.07 689.971 1221.2 701.455C1208.9 725.46 1192.82 746.138 1176.77 767.696C1178.3 733.543 1177.43 698.993 1177.8 664.781Z" fill="#B0D0D8"/>
<path d="M461.5 584.5H1163.5L1228.5 1309.5H461.5V584.5Z" fill="black"/>
<path d="M1177.74 648.703C1186.98 651.502 1194.83 653.487 1204.5 653.422C1211.99 665.757 1219.7 678.002 1226.96 690.466L1221.2 701.455C1206.07 689.971 1193.19 676.109 1177.8 664.781L1177.74 648.703Z" fill="#FEE5A7"/>
<path d="M1167.39 861.137C1168.55 864.135 1168.42 867.418 1168.47 870.609C1168.89 895.642 1167.94 920.682 1167.67 945.711L1167.38 1041.3C1167.1 1093.63 1168.4 1146.28 1166.57 1198.56C1166.34 1205.1 1165.56 1211.17 1164.15 1217.57C1125.4 1182.81 1080.98 1149.68 1039.87 1117.4C1012.49 1095.89 985.859 1072.57 957.593 1052.3C955.106 1050.51 953.015 1049.46 949.866 1049.93C947.869 1051.49 947.601 1051.87 946.628 1054.2C946.99 1057.95 948.642 1060.18 951.288 1062.71C955.58 1066.81 960.859 1069.88 965.534 1073.54L1001.75 1102.42L1078.97 1163.77C1104.86 1184.06 1130.99 1203.85 1155.61 1225.68C1147.45 1231.24 1139.27 1235.72 1129.25 1236.87C1103.64 1239.8 1076.06 1238.37 1050.2 1238.46L903.066 1238.3L667.353 1238.22C646.343 1238.03 625.155 1239.21 604.188 1238.42C588.286 1237.82 584.532 1236.07 573.654 1224.45C588.805 1210.33 605.784 1198.71 622.382 1186.39C642.969 1171.09 663.448 1155.65 683.819 1140.07L751.998 1088.31C762.625 1080.39 780.205 1070.07 788.642 1060.35C790.706 1057.97 791.889 1056.03 791.721 1052.8C790.164 1050.8 789.426 1050.62 787.039 1049.63C777.291 1052.88 742.614 1081.3 732.531 1088.87C677.303 1130.31 622.345 1172.1 567.655 1214.25C565.969 1165.28 566.978 1116.06 566.919 1067.05C566.936 998.518 566.526 929.986 565.688 861.458C600.275 881.933 634.256 903.362 667.632 925.743C708.955 953.902 750.082 982.342 791.013 1011.06C804.966 1020.76 852.4 1057.86 865.529 1060.77C871.883 1062.18 878.593 1057.42 883.902 1054.21C896.195 1046.77 907.854 1038.04 919.625 1029.81L977.791 989.37C1040.65 946.125 1103.85 903.381 1167.39 861.137Z" fill="#FDFDFB"/>
<path d="M623.541 596.986C637.079 595.023 652.691 596.591 666.484 596.633L750.782 596.701C861.556 597.707 972.332 597.855 1083.11 597.144C1107.35 596.772 1134.21 595.196 1152.68 613.378C1153.57 614.264 1154.42 615.181 1155.24 616.126C1156.06 617.073 1156.85 618.047 1157.6 619.048C1158.35 620.049 1159.06 621.075 1159.73 622.125C1160.41 623.177 1161.05 624.25 1161.64 625.345C1162.24 626.44 1162.8 627.555 1163.31 628.689C1163.83 629.824 1164.3 630.975 1164.73 632.142C1165.17 633.309 1165.56 634.49 1165.9 635.684C1166.25 636.88 1166.55 638.085 1166.81 639.3C1171.19 660.287 1167.65 684.8 1167.61 706.287L1167.74 853.664C1118.27 884.073 1070.28 917.567 1022.04 949.848C997.333 966.1 972.829 982.636 948.524 999.456C923.527 1016.79 898.89 1034.58 872.592 1050C851.824 1037.09 832.029 1022.15 811.745 1008.45C733.738 955.766 657.376 900.646 575.982 852.982C577.16 808.379 577.249 763.773 576.251 719.165C575.865 693.489 573.427 666.233 576.631 640.715C577.709 632.142 579.613 624.269 585.036 617.228C594.206 605.318 608.749 598.768 623.541 596.986Z" fill="#FDFDFB"/>
<path d="M920.123 661.531C930.799 660.891 941.561 660.784 952.19 662.133C976.534 665.223 998.435 675.875 1013.46 695.533C1030.84 718.259 1035.28 746.162 1031.39 773.975C1027.42 802.257 1012.69 832.991 989.197 850.277C976.874 859.344 964.167 861.888 949.113 859.73C946.835 858.08 944.32 856.388 942.393 854.319C933.61 844.884 935.104 830.185 935.263 818.277C927.789 834.289 918.037 847.692 902.012 856.158C890.853 862.054 877.01 864.354 864.835 860.316C854.486 856.884 846.289 849.01 841.679 839.251C833.572 822.088 836.13 800.129 842.664 782.901C851.694 759.091 868.637 740.673 891.979 730.229C912.389 721.098 946.166 717.364 967.15 725.423C965.731 737.242 961.979 748.852 958.886 760.327C953.612 779.891 948.692 799.996 947.406 820.282C946.944 827.592 947.144 836.935 952.584 842.518C954.857 844.849 957.867 846.014 961.108 846.062C969.984 846.198 979.983 839.277 986.331 833.457C1006.21 815.228 1017.41 786.547 1018.21 759.951C1019 733.674 1009.98 713.381 992.257 694.439C978.098 683.218 961.306 677.564 943.353 676.028C906.519 672.874 869.665 685.828 841.527 709.369C839.714 710.872 837.939 712.42 836.202 714.011C834.464 715.602 832.767 717.234 831.111 718.907C829.454 720.58 827.839 722.293 826.266 724.046C824.695 725.799 823.167 727.588 821.682 729.415C820.198 731.243 818.76 733.106 817.368 735.003C815.977 736.901 814.632 738.832 813.335 740.794C812.039 742.758 810.791 744.753 809.593 746.777C808.395 748.801 807.246 750.853 806.148 752.934C805.051 755.015 804.006 757.121 803.014 759.252C802.02 761.384 801.079 763.539 800.192 765.717C799.305 767.894 798.473 770.092 797.694 772.31C796.915 774.528 796.191 776.764 795.523 779.018C794.855 781.272 794.242 783.541 793.685 785.826C793.129 788.109 792.63 790.405 792.187 792.714C791.743 795.022 791.357 797.339 791.028 799.667C790.698 801.993 790.427 804.326 790.214 806.667C788.252 829.479 792.684 857.16 808.088 875.044C834.795 906.058 884.436 912.666 922.78 904.984C933.262 902.883 948.063 895.662 958.516 897.067C961.047 897.405 961.817 898.081 963.351 900.018C963.359 902.522 963.575 903.662 961.948 905.754C954.827 914.911 920.685 919.866 909.318 921.247C875.087 925.408 837.052 921.188 809.151 899.26C789.043 883.456 777.568 860.732 774.822 835.534C770.378 794.765 784.201 751.724 810.059 720.028C837.901 685.901 876.363 665.997 920.123 661.531Z" fill="#3E3E3E"/>
<path d="M931.537 736.114C937.103 735.407 943.144 735.768 948.776 735.738C940.725 770.127 935.058 817.636 904.444 840.235C894.88 847.294 884.843 848.519 873.325 846.712C869.963 845.105 866.681 843.49 863.811 841.082C856.716 835.129 853.487 826.235 852.651 817.268C850.835 797.818 860.016 777.337 872.424 762.769C887.265 745.344 909.281 737.942 931.537 736.114Z" fill="#FDFDFB"/>
<path d="M723.678 297C762.774 322.314 798.781 351.326 835.596 379.74C876.42 411.258 917.684 442.193 959.387 472.544C995.829 499 1033.89 523.183 1070.7 549.13C1084.37 558.767 1100.57 568.244 1112.03 580.364C1071.63 578.404 1031.15 579.758 990.724 579.846L805.021 579.539L676.877 579.417C654.656 579.356 631.808 577.234 609.715 579.798C597.009 581.274 585.974 585.42 576.396 594.04C562.78 606.296 558.872 622.971 558.121 640.551C557.069 665.084 557.909 689.775 558.032 714.324L558.213 830.392C553.287 832.488 548.973 834.299 546.939 839.589C542.55 850.998 545.85 1083.3 545.937 1115.06C546.018 1144.39 544.202 1174.76 545.848 1203.94C546.321 1212.32 547.831 1220.36 551.483 1227.98C557.313 1240.14 567.57 1250.03 580.466 1254.42C601.597 1261.61 652.225 1257.43 676.407 1257.67L952.968 1258.07L1054.04 1258.19C1076.34 1258.4 1098.77 1259.49 1121.06 1258.65C1132.32 1258.23 1143.75 1258.12 1154 1252.84C1167.99 1245.62 1177.36 1232.76 1181.81 1217.89C1187.67 1198.31 1184.75 1151.85 1184.75 1129.05L1184.84 1014.36L1185.16 912.392C1185.39 889.64 1186.29 866.791 1185.73 844.043C1185.62 839.58 1185.66 833.577 1183.65 829.552C1181.96 826.17 1177.71 823.693 1174.64 821.625C1174.65 808.838 1174.55 796.062 1175.3 783.292C1186.55 768.149 1198.07 753.123 1208.71 737.544C1215.14 728.111 1220.79 717.767 1227.54 708.629C1246.16 730.239 1263.04 752.445 1277.61 777.004C1328.47 862.766 1350.04 967.909 1342.56 1066.93C1334.93 1167.88 1299.46 1268.4 1220.59 1335.82C1164.14 1384.07 1089.26 1410.43 1016.81 1422.62C1006.15 1424.41 971.915 1425.2 965.29 1428.33C934.083 1424.98 838.049 1505.68 808.599 1526.42C798.925 1533.35 788.995 1539.9 778.809 1546.05C768.624 1552.21 758.213 1557.96 747.576 1563.31C743.166 1565.48 738.723 1567.59 734.249 1569.63C729.776 1571.67 725.273 1573.64 720.74 1575.54C716.206 1577.45 711.646 1579.28 707.058 1581.05C702.47 1582.82 697.856 1584.52 693.217 1586.15C688.577 1587.78 683.915 1589.34 679.229 1590.83C674.543 1592.32 669.836 1593.74 665.107 1595.09C660.378 1596.44 655.63 1597.72 650.862 1598.92C646.095 1600.13 641.311 1601.26 636.509 1602.33C631.708 1603.39 626.891 1604.38 622.06 1605.3C617.229 1606.22 612.386 1607.07 607.53 1607.85C602.673 1608.62 597.805 1609.32 592.928 1609.95C588.05 1610.58 583.164 1611.14 578.27 1611.62C573.375 1612.1 568.474 1612.51 563.568 1612.85C558.661 1613.18 553.75 1613.45 548.835 1613.64C543.92 1613.82 539.004 1613.94 534.087 1613.98C529.168 1614.02 524.25 1613.99 519.333 1613.89C379.789 1609.71 247.027 1556 150.845 1453.5C146.207 1448.54 141.664 1443.49 137.215 1438.35C132.765 1433.22 128.414 1428 124.16 1422.7C119.906 1417.4 115.753 1412.03 111.7 1406.58C107.647 1401.13 103.697 1395.6 99.8504 1390C96.0039 1384.4 92.2635 1378.73 88.6289 1373C84.9942 1367.26 81.4681 1361.45 78.0505 1355.58C74.6329 1349.71 71.3262 1343.78 68.1303 1337.79C64.9345 1331.8 61.8517 1325.75 58.882 1319.64C55.9122 1313.53 53.0576 1307.37 50.3182 1301.16C47.5789 1294.94 44.9565 1288.68 42.4511 1282.37C39.9459 1276.06 37.5594 1269.7 35.2917 1263.3C33.024 1256.9 30.8766 1250.46 28.8496 1243.98C26.8227 1237.5 24.9175 1230.99 23.1341 1224.44C21.3508 1217.89 19.6904 1211.3 18.1529 1204.69C16.6156 1198.08 15.2024 1191.44 13.9133 1184.77C12.6242 1178.11 11.46 1171.42 10.4208 1164.71C9.3816 1158 8.46811 1151.28 7.68031 1144.54C6.89264 1137.79 6.23116 1131.04 5.69587 1124.27C5.16071 1117.5 4.7521 1110.73 4.47006 1103.95C4.18814 1097.16 4.03304 1090.38 4.00474 1083.59C3.97643 1076.8 4.075 1070.01 4.30043 1063.23C4.52575 1056.45 4.87781 1049.67 5.35661 1042.89C5.83542 1036.12 6.4406 1029.36 7.17216 1022.61C7.9036 1015.87 8.76092 1009.13 9.74412 1002.41C10.7273 995.697 11.8357 989.001 13.0694 982.326C14.3029 975.65 15.6607 968.999 17.1429 962.374C18.625 955.748 20.2304 949.153 21.9592 942.588C23.6879 936.022 25.5386 929.491 27.5114 922.994C29.4844 916.498 31.578 910.041 33.7922 903.622C36.0064 897.202 38.3399 890.827 40.7925 884.495C43.2451 878.164 45.8151 871.88 48.5026 865.643C51.1901 859.408 53.9933 853.224 56.912 847.091C68.316 822.884 82.003 800.571 96.7053 778.228C107.605 761.666 119.418 745.256 128.256 727.47C138.679 706.489 145.435 683.604 150.138 660.704C152.57 648.854 155.603 635.889 155.911 623.804C155.919 623.493 155.919 623.183 155.923 622.872C161.964 612.384 163.409 598.94 167.59 587.579C176.647 562.968 191.637 538.629 209.795 519.668C284.724 441.415 389.989 504.548 479.677 507.701C508.686 508.722 540.028 502.838 566.324 490.457C626.49 462.126 666.513 409.535 697.477 352.61C707.285 334.579 716.695 316.329 723.678 297Z" fill="#B0D0D8"/>
<path d="M1263.12 701.953L1128.05 819.089L1080.5 642.274L1263.12 701.953Z" fill="#53599A"/>
<path d="M1263.12 701.953L1128.05 819.089L1080.5 642.274L1263.12 701.953Z" fill="#53599A"/>
<path d="M1263.12 701.953L1128.05 819.089L1080.5 642.274L1263.12 701.953Z" stroke="black" stroke-width="15"/>
</svg>
