<?xml version="1.0" encoding="utf-8" ?>
<svg xmlns="http://www.w3.org/2000/svg" xmlns:xlink="http://www.w3.org/1999/xlink" width="1858" height="1858">
	<path fill="#FDFDFB" transform="scale(1.81464 1.81464)" d="M710.374 54.8243C728.27 56.7687 746.892 62.6552 763.686 68.9751C814.767 88.1984 860.598 117.563 895.021 160.378Q897.39 163.358 899.686 166.395Q901.982 169.432 904.203 172.524Q906.424 175.617 908.569 178.762Q910.714 181.907 912.782 185.104Q914.849 188.301 916.838 191.547Q918.827 194.794 920.736 198.088Q922.646 201.381 924.474 204.721Q926.302 208.06 928.049 211.443Q929.795 214.826 931.458 218.251Q933.121 221.676 934.701 225.14Q936.28 228.604 937.774 232.106Q939.268 235.608 940.677 239.145Q942.085 242.682 943.406 246.252Q944.728 249.823 945.962 253.424Q947.196 257.026 948.342 260.657Q949.488 264.287 950.545 267.945Q951.602 271.602 952.569 275.285Q953.537 278.967 954.414 282.672Q955.291 286.376 956.078 290.101Q956.865 293.826 957.56 297.569Q958.256 301.313 958.86 305.072Q959.464 308.831 959.976 312.603Q960.488 316.376 960.908 320.16Q961.328 323.944 961.656 327.737Q961.983 331.53 962.218 335.33Q962.453 339.13 962.595 342.934Q962.737 346.739 962.786 350.546Q962.836 354.352 962.792 358.159Q962.749 361.966 962.612 365.771Q962.476 369.576 962.246 373.376Q962.017 377.176 961.695 380.97Q961.373 384.763 960.959 388.548Q960.355 394.359 959.544 400.144Q958.734 405.93 957.716 411.683Q956.699 417.436 955.477 423.149Q954.255 428.862 952.83 434.527Q951.404 440.193 949.777 445.804Q948.15 451.415 946.324 456.964Q944.497 462.513 942.474 467.994Q940.45 473.474 938.232 478.879L937.662 478.739C936.989 477.956 936.462 477.078 936.252 476.05C935.698 473.344 936.245 469.836 936.247 467.019Q936.232 460.858 935.525 454.737C933.713 439.145 927.33 423.764 918.585 410.741C914.159 404.15 909.208 397.935 904.835 391.285Q899.706 383.56 895.319 375.39Q890.932 367.221 887.325 358.678C875.654 330.903 870.188 300.951 862 272.069C848.529 224.552 831.094 174.632 800.093 135.403C791.855 124.979 782.273 115.373 772.554 106.333C758.312 93.0888 742.525 81.5957 727.404 69.4129C721.576 64.7171 716.227 59.4575 710.374 54.8243Z"/>
	<path fill="#9EAF83" transform="scale(1.81464 1.81464)" d="M125.095 387.854C123.095 382.616 121.082 377.395 119.638 371.97C109.418 333.583 122.087 291.592 141.624 258.195Q142.784 256.232 143.991 254.299Q145.199 252.365 146.454 250.462Q147.708 248.558 149.01 246.686Q150.311 244.814 151.658 242.975Q153.004 241.135 154.396 239.33Q155.788 237.524 157.223 235.753Q158.659 233.982 160.137 232.246Q161.616 230.511 163.137 228.813Q164.658 227.114 166.22 225.454Q167.782 223.794 169.384 222.172Q170.987 220.55 172.629 218.969Q174.27 217.387 175.951 215.846Q177.631 214.305 179.348 212.806Q181.066 211.307 182.82 209.851Q184.574 208.394 186.363 206.981Q188.152 205.568 189.976 204.2Q191.799 202.832 193.655 201.508Q195.512 200.185 197.4 198.908Q199.289 197.631 201.208 196.4Q203.127 195.17 205.076 193.987Q207.025 192.804 209.002 191.669Q210.98 190.535 212.984 189.449Q214.989 188.363 217.02 187.327Q219.05 186.291 221.106 185.305Q223.162 184.319 225.241 183.384Q227.32 182.449 229.422 181.566Q231.523 180.682 233.646 179.85Q235.768 179.019 237.911 178.239Q240.053 177.46 242.214 176.734Q244.375 176.007 246.553 175.334Q248.731 174.661 250.925 174.042Q253.119 173.422 255.328 172.857C297.231 161.947 339.036 167.028 379.056 182.502C389.33 186.474 399.927 190.915 409.439 196.494C417.571 200.399 425.241 205.874 432.685 210.936C428.902 221.43 423.804 231.338 418.49 241.127C401.715 272.032 380.032 300.584 347.436 315.965C333.19 322.687 316.21 325.881 300.494 325.327C251.904 323.615 194.875 289.34 154.281 331.824C144.444 342.118 136.323 355.332 131.416 368.693C129.151 374.861 128.368 382.16 125.095 387.854Z"/>
	<path fill="#FEE5A7" transform="scale(1.81464 1.81464)" d="M409.439 196.494C418.517 184.282 426.743 171.433 436.011 159.368C456.74 132.382 482.64 107.903 511.147 89.2785C554.676 60.8406 603.193 49.0512 654.88 49.4217C673.615 49.5559 692.03 50.9785 710.374 54.8243C716.227 59.4575 721.576 64.7171 727.404 69.4129C742.525 81.5957 758.312 93.0888 772.554 106.333C782.273 115.373 791.855 124.979 800.093 135.403C831.094 174.632 848.529 224.552 862 272.069C870.188 300.951 875.654 330.903 887.325 358.678Q890.932 367.221 895.319 375.39Q899.706 383.56 904.835 391.285C909.208 397.935 914.159 404.15 918.585 410.741C927.33 423.764 933.713 439.145 935.525 454.737Q936.232 460.858 936.247 467.019C936.245 469.836 935.698 473.344 936.252 476.05C936.462 477.078 936.989 477.956 937.662 478.739L938.232 478.879C941.258 484.263 944.722 489.338 947.46 494.9C952.497 505.135 956.669 516.206 960.543 526.923C979.646 579.763 987.889 638.241 972.532 693.08C954.869 756.156 913.726 807.667 856.684 839.695C791.764 876.147 713.044 883.265 641.757 863.096C614.389 855.353 586.361 842.251 563.582 825.143C546.675 823.325 494.647 867.137 478.692 878.395Q470.831 884.04 462.553 889.055Q454.276 894.07 445.632 898.424Q442.048 900.193 438.412 901.854Q434.777 903.514 431.093 905.065Q427.409 906.616 423.681 908.056Q419.952 909.495 416.182 910.823Q412.412 912.15 408.604 913.363Q404.796 914.577 400.953 915.676Q397.11 916.775 393.236 917.758Q389.362 918.741 385.46 919.607Q381.558 920.474 377.632 921.223Q373.706 921.972 369.76 922.603Q365.813 923.233 361.849 923.746Q357.885 924.258 353.908 924.651Q349.93 925.044 345.943 925.318Q341.955 925.592 337.961 925.746Q333.967 925.9 329.971 925.934Q325.974 925.968 321.978 925.882C246.378 923.614 174.452 894.454 122.344 838.809Q118.575 834.765 114.96 830.583Q111.344 826.401 107.887 822.087Q104.43 817.773 101.137 813.333Q97.8429 808.893 94.7171 804.333Q91.5913 799.774 88.6377 795.101Q85.684 790.428 82.9067 785.648Q80.1294 780.868 77.5323 775.988Q74.9352 771.107 72.5219 766.134Q70.1085 761.16 67.8823 756.1Q65.6562 751.04 63.6202 745.9Q61.5843 740.76 59.7415 735.549Q57.8986 730.337 56.2514 725.059Q54.6042 719.782 53.1549 714.448Q51.7057 709.113 50.4563 703.727Q49.207 698.342 48.1594 692.914Q47.1118 687.486 46.2673 682.023Q45.4228 676.56 44.7826 671.069Q44.1425 665.578 43.7075 660.066Q43.2726 654.555 43.0434 649.032Q42.8143 643.509 42.7913 637.98Q42.7683 632.452 42.9515 626.927Q43.1346 621.402 43.5237 615.887Q43.9128 610.373 44.5073 604.877Q45.1017 599.381 45.9007 593.91Q46.6997 588.44 47.7022 583.004Q48.7046 577.567 49.9091 572.172Q51.1135 566.776 52.5184 561.43Q53.9232 556.083 55.5264 550.792Q57.1297 545.502 58.9291 540.275Q60.7285 535.047 62.7216 529.891Q64.7147 524.735 66.8987 519.656Q69.0827 514.578 71.4546 509.584C77.6329 496.442 85.048 484.328 93.0132 472.198C98.9181 463.206 105.318 454.297 110.106 444.641C115.753 433.25 119.413 420.826 121.961 408.393C123.279 401.96 124.922 394.921 125.089 388.36C125.093 388.191 125.093 388.023 125.095 387.854C128.368 382.16 129.151 374.861 131.416 368.693C136.323 355.332 144.444 342.118 154.281 331.824C194.875 289.34 251.904 323.615 300.494 325.327C316.21 325.881 333.19 322.687 347.436 315.965C380.032 300.584 401.715 272.032 418.49 241.127C423.804 231.338 428.902 221.43 432.685 210.936C425.241 205.874 417.571 200.399 409.439 196.494Z"/>
	<path fill="#3E3E3E" transform="scale(1.81464 1.81464)" d="M725.23 268.225C700.381 254.555 682.102 236.235 673.98 208.411C671.08 198.477 666.257 167.362 671.301 158.309C671.926 157.186 672.635 156.629 673.844 156.21C676.312 155.353 679.526 156.745 681.612 157.982C686.093 160.637 690.071 164.545 693.845 168.118C710.141 183.541 723.438 202.938 728.583 225.024C730.388 232.77 731.469 240.862 731.246 248.825C731.102 253.962 730.438 259.218 730.737 264.347C731.052 269.767 732.308 275.176 733.158 280.535C733.951 285.532 734.397 290.615 734.946 295.644C735.924 288.623 736.616 281.502 738.235 274.595Q738.786 272.197 739.44 269.826Q740.093 267.454 740.848 265.113Q741.604 262.772 742.459 260.465Q743.314 258.158 744.268 255.891Q745.222 253.623 746.273 251.399Q747.324 249.175 748.47 246.998Q749.616 244.821 750.854 242.695Q752.093 240.569 753.421 238.499Q754.75 236.429 756.167 234.418Q757.584 232.407 759.086 230.459Q760.589 228.51 762.173 226.629Q763.758 224.747 765.423 222.936Q767.087 221.124 768.828 219.386Q770.569 217.648 772.383 215.986Q774.197 214.325 776.081 212.743Q777.965 211.161 779.916 209.662C786.083 204.977 802.566 194.18 810.346 195.388C812.084 195.657 813.769 196.728 814.727 198.207C818.152 203.494 815.556 213.6 814.094 219.246C806.94 246.86 789.897 271.006 765.127 285.494C755.553 291.094 745.384 294.797 734.524 297.005C739.047 338.856 728.005 380.354 712.633 418.897C736.496 386.81 770.525 364.791 810.361 358.875C818.918 357.605 839.549 355.153 846.949 360.616C848.306 361.617 849.196 362.903 849.453 364.594C850.355 370.514 843.794 378.406 840.337 382.734C819.998 408.198 787.67 422.603 755.73 426.059C740.593 427.697 726.173 426.537 711.594 422.171L705.658 434.412C702.004 439.373 698.942 444.989 695.456 450.11C689.696 458.568 683.454 466.726 677.36 474.947C676.953 481.88 677.005 488.816 677.003 495.758C678.661 496.881 680.965 498.226 681.882 500.062C682.973 502.247 682.95 505.506 683.009 507.929C683.31 520.279 682.822 532.684 682.702 545.036L682.529 600.394L682.478 662.66C682.48 675.042 684.059 700.263 680.886 710.891C678.475 718.965 673.398 725.949 665.817 729.866C660.265 732.734 654.074 732.795 647.971 733.024C635.894 733.478 623.747 732.886 611.662 732.77L556.906 732.708L407.075 732.492C393.974 732.362 366.546 734.627 355.098 730.724C348.111 728.342 342.554 722.972 339.396 716.371C337.417 712.236 336.599 707.87 336.343 703.318C335.451 687.477 336.435 670.99 336.391 655.065C336.344 637.825 334.556 511.705 336.934 505.511C338.036 502.639 340.373 501.656 343.042 500.518L342.944 437.504C342.877 424.176 342.422 410.771 342.992 397.452C343.399 387.908 345.516 378.855 352.893 372.201C358.082 367.521 364.06 365.27 370.944 364.469C382.913 363.077 395.291 364.229 407.33 364.262L476.754 364.328L577.361 364.495C599.261 364.447 621.195 363.712 643.081 364.776L644.292 364.62C644.318 364.265 644.432 363.905 644.37 363.555C644 361.473 642.005 358.756 641.119 356.716C639.008 351.856 637.069 346.935 635.706 341.805C632.964 331.485 632.793 319.434 634.113 308.884C634.569 305.232 635.257 299.437 638.327 297.02C639.612 296.008 640.949 295.74 642.535 295.968C653.312 297.519 672.87 318.943 678.972 327.696Q680.024 329.207 681.019 330.757Q682.014 332.307 682.95 333.893Q683.886 335.479 684.761 337.099Q685.637 338.719 686.451 340.371Q687.265 342.022 688.016 343.704Q688.767 345.385 689.455 347.094Q690.142 348.802 690.765 350.535Q691.388 352.268 691.945 354.023Q692.502 355.779 692.992 357.554Q693.483 359.328 693.907 361.121Q694.33 362.913 694.686 364.72Q695.042 366.526 695.33 368.345Q695.617 370.164 695.836 371.993Q696.055 373.821 696.205 375.657Q696.355 377.492 696.436 379.332Q696.517 381.172 696.529 383.013C696.528 388.998 695.579 394.893 695.38 400.855L707.083 418.723C727.476 371.767 736.094 318.687 725.23 268.225Z"/>
	<path fill="#FEE5A7" transform="scale(1.81464 1.81464)" d="M677.477 401.726C682.476 403.246 686.716 404.324 691.95 404.289C695.998 410.988 700.17 417.638 704.096 424.407L700.982 430.375C692.799 424.138 685.831 416.61 677.509 410.458L677.477 401.726Z"/>
	<path fill="#B0D0D8" transform="scale(1.81464 1.81464)" d="M677.509 410.458C685.831 416.61 692.799 424.138 700.982 430.375C694.325 443.412 685.63 454.642 676.954 466.35C677.779 447.802 677.311 429.038 677.509 410.458Z"/>
	<path fill="#FDFDFB" transform="scale(1.81464 1.81464)" d="M671.879 517.097C672.507 518.725 672.434 520.508 672.463 522.241C672.693 535.836 672.174 549.435 672.028 563.028L671.872 614.941C671.724 643.362 672.428 671.955 671.438 700.349C671.314 703.901 670.888 707.198 670.126 710.67C649.173 691.792 625.149 673.802 602.918 656.27C588.109 644.591 573.708 631.924 558.422 620.914C557.077 619.945 555.946 619.375 554.243 619.631C553.163 620.474 553.018 620.68 552.492 621.948C552.688 623.986 553.581 625.193 555.012 626.568C557.333 628.797 560.188 630.465 562.716 632.449L582.303 648.137L624.064 681.453C638.061 692.472 652.194 703.222 665.511 715.075C661.095 718.099 656.674 720.529 651.252 721.152C637.404 722.744 622.488 721.971 608.503 722.018L528.934 721.928L401.461 721.886C390.099 721.783 378.641 722.427 367.302 721.997C358.702 721.67 356.672 720.72 350.789 714.411C358.983 706.739 368.165 700.427 377.141 693.738Q393.841 681.275 410.366 668.581L447.237 640.473C452.984 636.169 462.491 630.565 467.054 625.285C468.17 623.995 468.81 622.94 468.719 621.19C467.877 620.101 467.478 620.004 466.187 619.463C460.915 621.23 442.162 636.668 436.709 640.776Q391.909 674.536 347.545 708.867C346.633 682.275 347.179 655.543 347.147 628.928Q347.161 573.097 346.481 517.271Q374.538 533.951 401.612 552.184Q435.133 575.123 468.336 598.52C475.882 603.786 501.534 623.935 508.634 625.515C512.07 626.28 515.699 623.699 518.57 621.954C525.218 617.914 531.523 613.172 537.889 608.702L569.345 586.739Q620.335 551.51 671.879 517.097Z"/>
	<path fill="#FDFDFB" transform="scale(1.81464 1.81464)" d="M377.309 374.176C384.504 373.112 392.801 373.962 400.131 373.985L444.931 374.022Q533.237 374.84 621.546 374.262C634.43 374.06 648.703 373.206 658.52 383.062Q659.227 383.783 659.881 384.552Q660.535 385.322 661.133 386.136Q661.73 386.95 662.268 387.804Q662.806 388.659 663.282 389.549Q663.758 390.44 664.169 391.362Q664.581 392.285 664.925 393.234Q665.27 394.183 665.546 395.154Q665.822 396.126 666.028 397.114C668.356 408.491 666.477 421.779 666.456 433.427L666.524 513.318C640.233 529.802 614.728 547.959 589.089 565.458Q569.396 578.673 550.021 592.35C536.736 601.745 523.643 611.391 509.667 619.749C498.63 612.748 488.11 604.652 477.33 597.225C435.873 568.666 395.291 538.786 352.034 512.948Q352.973 476.68 352.177 440.408C351.972 426.489 350.676 411.714 352.379 397.881C352.952 393.234 353.964 388.966 356.846 385.149C361.719 378.693 369.448 375.142 377.309 374.176Z"/>
	<path fill="#3E3E3E" transform="scale(1.81464 1.81464)" d="M538.158 408.693C543.932 408.345 549.752 408.287 555.5 409.02C568.665 410.698 580.509 416.483 588.637 427.159C598.035 439.501 600.437 454.655 598.329 469.76C596.186 485.12 588.217 501.811 575.513 511.199C568.849 516.123 561.977 517.505 553.836 516.333C552.604 515.437 551.244 514.518 550.202 513.394C545.452 508.27 546.26 500.287 546.346 493.82C542.304 502.516 537.03 509.795 528.364 514.393C522.329 517.595 514.843 518.844 508.259 516.651C502.662 514.787 498.229 510.511 495.736 505.211C491.352 495.89 492.735 483.964 496.269 474.608C501.152 461.677 510.315 451.674 522.938 446.002C533.976 441.043 552.242 439.015 563.59 443.392C562.823 449.811 560.794 456.116 559.121 462.348C556.269 472.973 553.608 483.892 552.913 494.909C552.663 498.879 552.771 503.953 555.713 506.985C556.942 508.251 558.57 508.884 560.323 508.91C565.123 508.984 570.53 505.225 573.963 502.064C584.714 492.164 590.773 476.588 591.204 462.144C591.629 447.873 586.753 436.852 577.168 426.565C569.511 420.471 560.43 417.4 550.721 416.566C530.801 414.853 510.871 421.888 495.654 434.673Q494.183 435.898 492.774 437.194Q491.364 438.49 490.021 439.853Q488.677 441.216 487.401 442.644Q486.126 444.072 484.922 445.56Q483.718 447.049 482.589 448.595Q481.46 450.141 480.408 451.74Q479.356 453.34 478.384 454.989Q477.412 456.638 476.521 458.333Q475.631 460.028 474.826 461.764Q474.02 463.501 473.3 465.275Q472.581 467.049 471.949 468.856Q471.317 470.663 470.775 472.499Q470.233 474.335 469.781 476.196Q469.33 478.056 468.971 479.937Q468.611 481.817 468.344 483.713Q468.077 485.608 467.904 487.515C466.843 499.904 469.24 514.937 477.57 524.65C492.013 541.493 518.859 545.082 539.595 540.91C545.264 539.769 553.268 535.847 558.921 536.61C560.29 536.794 560.706 537.161 561.536 538.213C561.54 539.573 561.657 540.192 560.777 541.328C556.926 546.301 538.462 548.992 532.315 549.742C513.803 552.002 493.234 549.71 478.145 537.801C467.271 529.218 461.065 516.877 459.58 503.192C457.177 481.051 464.652 457.676 478.636 440.462C493.693 421.928 514.493 411.118 538.158 408.693Z"/>
	<path fill="#FDFDFB" transform="scale(1.81464 1.81464)" d="M544.331 449.198C547.341 448.814 550.608 449.01 553.654 448.994C549.3 467.67 546.235 493.472 529.679 505.745C524.507 509.579 519.079 510.244 512.85 509.263C511.032 508.39 509.257 507.513 507.705 506.205C503.868 502.972 502.122 498.142 501.67 493.272C500.688 482.709 505.653 471.586 512.363 463.674C520.389 454.211 532.295 450.191 544.331 449.198Z"/>
	<path fill="#B0D0D8" transform="scale(1.81464 1.81464)" d="M432.685 210.936C453.866 224.679 473.373 240.43 493.318 255.856Q526.494 281.523 560.384 306.24C580.127 320.603 600.745 333.732 620.69 347.819C628.096 353.051 636.873 358.196 643.081 364.776C621.195 363.712 599.261 364.447 577.361 364.495L476.754 364.328L407.33 364.262C395.291 364.229 382.913 363.077 370.944 364.469C364.06 365.27 358.082 367.521 352.893 372.201C345.516 378.855 343.399 387.908 342.992 397.452C342.422 410.771 342.877 424.176 342.944 437.504L343.042 500.518C340.373 501.656 338.036 502.639 336.934 505.511C334.556 511.705 336.344 637.825 336.391 655.065C336.435 670.99 335.451 687.477 336.343 703.318C336.599 707.87 337.417 712.236 339.396 716.371C342.554 722.972 348.111 728.342 355.098 730.724C366.546 734.627 393.974 732.362 407.075 732.492L556.906 732.708L611.662 732.77C623.747 732.886 635.894 733.478 647.971 733.024C654.074 732.795 660.265 732.734 665.817 729.866C673.398 725.949 678.475 718.965 680.886 710.891C684.059 700.263 682.48 675.042 682.478 662.66L682.529 600.394L682.702 545.036C682.822 532.684 683.31 520.279 683.009 507.929C682.95 505.506 682.973 502.247 681.882 500.062C680.965 498.226 678.661 496.881 677.003 495.758C677.005 488.816 676.953 481.88 677.36 474.947C683.454 466.726 689.696 458.568 695.456 450.11C698.942 444.989 702.004 439.373 705.658 434.412C715.749 446.144 724.895 458.2 732.786 471.533C760.34 518.094 772.024 575.177 767.971 628.936C763.838 683.744 744.626 738.316 701.894 774.918C671.312 801.113 630.745 815.422 591.495 822.042C585.721 823.016 567.171 823.445 563.582 825.143C546.675 823.325 494.647 867.137 478.692 878.395Q470.831 884.04 462.553 889.055Q454.276 894.07 445.632 898.424Q442.048 900.193 438.412 901.854Q434.777 903.514 431.093 905.065Q427.409 906.616 423.681 908.056Q419.952 909.495 416.182 910.823Q412.412 912.15 408.604 913.363Q404.796 914.577 400.953 915.676Q397.11 916.775 393.236 917.758Q389.362 918.741 385.46 919.607Q381.558 920.474 377.632 921.223Q373.706 921.972 369.76 922.603Q365.813 923.233 361.849 923.746Q357.885 924.258 353.908 924.651Q349.93 925.044 345.943 925.318Q341.955 925.592 337.961 925.746Q333.967 925.9 329.971 925.934Q325.974 925.968 321.978 925.882C246.378 923.614 174.452 894.454 122.344 838.809Q118.575 834.765 114.96 830.583Q111.344 826.401 107.887 822.087Q104.43 817.773 101.137 813.333Q97.8429 808.893 94.7171 804.333Q91.5913 799.774 88.6377 795.101Q85.684 790.428 82.9067 785.648Q80.1294 780.868 77.5323 775.988Q74.9352 771.107 72.5219 766.134Q70.1085 761.16 67.8823 756.1Q65.6562 751.04 63.6202 745.9Q61.5843 740.76 59.7415 735.549Q57.8986 730.337 56.2514 725.059Q54.6042 719.782 53.1549 714.448Q51.7057 709.113 50.4563 703.727Q49.207 698.342 48.1594 692.914Q47.1118 687.486 46.2673 682.023Q45.4228 676.56 44.7826 671.069Q44.1425 665.578 43.7075 660.066Q43.2726 654.555 43.0434 649.032Q42.8143 643.509 42.7913 637.98Q42.7683 632.452 42.9515 626.927Q43.1346 621.402 43.5237 615.887Q43.9128 610.373 44.5073 604.877Q45.1017 599.381 45.9007 593.91Q46.6997 588.44 47.7022 583.004Q48.7046 577.567 49.9091 572.172Q51.1135 566.776 52.5184 561.43Q53.9232 556.083 55.5264 550.792Q57.1297 545.502 58.9291 540.275Q60.7285 535.047 62.7216 529.891Q64.7147 524.735 66.8987 519.656Q69.0827 514.578 71.4546 509.584C77.6329 496.442 85.048 484.328 93.0132 472.198C98.9181 463.206 105.318 454.297 110.106 444.641C115.753 433.25 119.413 420.826 121.961 408.393C123.279 401.96 124.922 394.921 125.089 388.36C125.093 388.191 125.093 388.023 125.095 387.854C128.368 382.16 129.151 374.861 131.416 368.693C136.323 355.332 144.444 342.118 154.281 331.824C194.875 289.34 251.904 323.615 300.494 325.327C316.21 325.881 333.19 322.687 347.436 315.965C380.032 300.584 401.715 272.032 418.49 241.127C423.804 231.338 428.902 221.43 432.685 210.936Z"/>
	<path fill="#3E3E3E" transform="scale(1.81464 1.81464)" d="M122.373 447.5C135.699 446.661 150.683 455.703 160.668 463.658C198.205 493.563 210.814 539.544 216.029 585.058C216.537 578.143 217.774 571.207 219.163 564.416C226.909 526.537 245.451 494.02 278.349 472.611C280.336 471.318 283.052 469.495 285.509 470.026C286.062 470.481 286.525 470.914 286.876 471.549C288.887 475.183 289.044 480.647 289.335 484.714C290.523 501.304 289.569 517.246 284.988 533.325C274.813 569.044 252.525 595.332 220.253 613.138C223.824 646.361 237.506 684.777 252.786 714.408C255.661 719.981 258.321 726.102 262.205 731.047Q260.151 711.415 260.894 691.69C262.082 659.145 270.571 625.439 295.223 602.601C299.474 598.663 311.014 587.829 316.899 588.671C318.273 588.868 319.2 589.468 320.004 590.579C323.006 594.726 323.439 603.503 323.914 608.455C327.398 644.749 311.33 680.237 288.295 707.491C284.528 711.947 280.591 716.362 276.416 720.439C272.909 723.863 268.967 727.106 265.723 730.765C265.146 731.415 264.168 732.423 264.103 733.318C263.925 735.751 266.55 738.671 267.903 740.577C282.524 760.361 300.739 778.821 320.901 792.938Q326.419 796.862 332.287 800.24C337.388 803.151 349.538 807.616 352.632 812.198L352.346 813.048C351.187 813.58 349.498 813.77 348.238 813.516C341.556 812.171 334.288 807.244 328.54 803.671C299.493 785.616 279.21 764.89 259.849 736.931C248.778 738.348 237.884 738.76 226.734 738.764C198.241 738.773 172.723 734.354 147.427 720.431C124.219 707.658 96.5419 684.693 88.9674 658.624C102.079 652.981 116.933 652.064 131.029 652.692C181.987 654.962 216.015 682.641 248.691 718.412C241.934 704.005 235.311 689.603 230.075 674.559C219.147 643.162 214.387 610.174 210.853 577.251C186.983 572.744 165.639 559.465 149.329 541.605C129.465 519.852 117.074 486.804 118.811 457.143C119.04 453.226 119.392 450.198 122.373 447.5Z"/>
</svg>
