<?xml version="1.0" encoding="utf-8" ?>
<svg xmlns="http://www.w3.org/2000/svg" xmlns:xlink="http://www.w3.org/1999/xlink" width="8553" height="4276">
	<path fill="#303271" fill-opacity="0.96862745" transform="scale(4.1763 4.1763)" d="M1480.7 636C1483.66 635.571 1483.78 635.287 1485.89 633.112C1489.98 638.017 1491.3 646.385 1490.77 652.573C1490.48 655.994 1489.8 660.134 1487.28 662.656L1485.98 662.473C1481.34 655.26 1486.11 645.936 1480.7 636Z"/>
	<path fill="#303271" fill-opacity="0.97647059" transform="scale(4.1763 4.1763)" d="M1452.66 670.833C1454.28 671.658 1455.85 672.507 1457.4 673.457L1458.67 673.003C1461.44 680.726 1462.45 712.93 1459.24 720.082L1457.53 720.063C1448.55 710.443 1457.47 683.704 1452.92 671.452C1452.84 671.243 1452.74 671.04 1452.66 670.833Z"/>
	<path fill="#303271" fill-opacity="0.98431373" transform="scale(4.1763 4.1763)" d="M1465.12 420.855L1467.57 420.541C1469.13 417.704 1468.55 415 1468.49 411.798C1470.67 415.281 1472.41 419.994 1471.41 424.137C1471.22 424.919 1471.27 424.753 1471.02 425.364C1477.6 424.495 1487.57 421.917 1493.8 424.836L1494.35 426.476C1493.09 427.64 1491.81 428.654 1490.42 429.656C1490.63 434.106 1492.3 441.017 1490.83 445.156C1495.57 443.59 1500.82 442.271 1503.28 437.514C1504.09 432.844 1502.38 428.296 1501.13 423.837C1502.99 423.652 1504.88 423.181 1506.72 422.835C1508.12 427.445 1509.38 433.714 1507.5 438.301C1514.41 441.46 1522.87 447.274 1525.61 454.622C1526.57 457.208 1526.62 459.468 1525.93 462.156C1523.89 463.296 1523.65 464.926 1522.76 466.999C1521.61 460.183 1520.45 452.15 1514.42 447.834C1511.24 445.557 1507.48 445.058 1503.69 445.796C1495.34 447.422 1462.29 472.684 1457.87 479.66C1457.79 479.783 1457.73 479.917 1457.66 480.045L1456.96 480.254C1453.44 481.334 1450.19 483.278 1447.84 486.15C1448.29 484.804 1448.29 483.958 1448.21 482.573L1444.71 481.97C1449.65 478.667 1483.14 452.822 1485.38 449.224C1485.53 448.933 1485.73 448.56 1485.83 448.233C1487.22 443.437 1485.53 433.775 1483.28 429.394C1478.97 428.643 1474.56 429.404 1470.16 428.609C1467.13 427.094 1466.31 423.807 1465.12 420.855Z"/>
	<path fill="#303271" transform="scale(4.1763 4.1763)" d="M1465.12 420.855C1465.18 420.608 1465.24 420.362 1465.29 420.115C1467.04 411.719 1459.72 406.374 1460.44 399.6C1460.55 398.573 1461.95 396.989 1462.71 396.255C1464.12 394.875 1465.93 393.839 1467.07 392.174C1473.09 383.356 1471.39 357.311 1476.22 353.473C1477.24 352.668 1478.81 352.686 1480.02 353.008C1483.86 354.034 1489.62 358.999 1492.19 361.975C1500.82 361.181 1510.65 359.618 1517.93 365.594C1523.35 370.038 1525.3 377.648 1525.75 384.35C1526.61 397.051 1520.28 409.851 1511.98 419.201C1510.46 420.917 1508.84 421.977 1506.72 422.835C1504.88 423.181 1502.99 423.652 1501.13 423.837C1502.38 428.296 1504.09 432.844 1503.28 437.514C1500.82 442.271 1495.57 443.59 1490.83 445.156C1492.3 441.017 1490.63 434.106 1490.42 429.656C1491.81 428.654 1493.09 427.64 1494.35 426.476L1493.8 424.836C1487.57 421.917 1477.6 424.495 1471.02 425.364C1471.27 424.753 1471.22 424.919 1471.41 424.137C1472.41 419.994 1470.67 415.281 1468.49 411.798C1468.55 415 1469.13 417.704 1467.57 420.541L1465.12 420.855ZM1475.92 381.533C1477.15 389.627 1469.32 394.445 1467.3 401.434C1467.93 402.563 1468.57 403.704 1469.1 404.883C1470.36 407.725 1469.56 409.111 1468.49 411.798C1470.67 415.281 1472.41 419.994 1471.41 424.137C1471.22 424.919 1471.27 424.753 1471.02 425.364C1477.6 424.495 1487.57 421.917 1493.8 424.836L1494.35 426.476C1493.09 427.64 1491.81 428.654 1490.42 429.656C1490.63 434.106 1492.3 441.017 1490.83 445.156C1495.57 443.59 1500.82 442.271 1503.28 437.514C1504.09 432.844 1502.38 428.296 1501.13 423.837C1501.37 422.984 1501.4 422.489 1501.15 421.628C1498.52 412.566 1504.17 408.022 1502.8 403.472C1499.22 402.044 1495.41 404.245 1491.41 403.762C1487.34 398.572 1494.04 396.031 1493.78 390.724C1490.75 385.682 1481.4 383.31 1475.92 381.533Z"/>
	<path fill="#EFD097" transform="scale(4.1763 4.1763)" d="M1477.65 359.497C1478.81 359.579 1479.93 359.692 1481.04 360.012C1484.62 361.035 1486.23 363.814 1487.91 366.845C1492.54 366.551 1497.48 365.999 1502.09 366.511C1507.78 367.143 1513.49 370.151 1517.06 374.64C1520.57 379.056 1521.96 384.798 1521.28 390.36C1520.22 398.942 1514.61 407.179 1507.97 412.503C1507.52 413.709 1506.72 414.52 1505.91 415.502L1505.06 415.415C1506.26 412.611 1508.15 408.967 1508.36 405.915C1508.82 399.246 1501.69 398.139 1499.06 393.109C1497.63 390.368 1497.48 386.281 1495.29 384.051C1491.33 380.027 1484.71 379.253 1480.74 374.697C1476.64 369.98 1477.23 365.278 1477.65 359.497Z"/>
	<path fill="#303271" transform="scale(4.1763 4.1763)" d="M1038.2 229.701C1050.54 224.277 1063.35 220.531 1076.87 224.331C1082.05 225.789 1086.52 228.732 1089.1 233.554C1091.77 238.554 1093.57 260.095 1091.92 265.721C1091.23 268.967 1086 272.667 1084.45 276.06C1083.33 278.517 1084.05 281.963 1082.51 285.005C1092.43 303.461 1110.99 298.328 1122.41 314.642C1129.22 324.371 1131.84 336.364 1136.21 347.254C1138.61 353.228 1144.12 361.632 1142.67 368.095C1145.17 371.933 1145.72 375.303 1144.76 379.802C1142.31 391.177 1126.84 409.833 1117.13 416.041C1116.05 416.735 1114.91 417.304 1113.74 417.835C1128.82 420.439 1177.04 434.327 1186.96 434.024C1197.21 433.709 1208.03 429.496 1217.84 426.709C1224.69 424.762 1233.43 423.835 1239.67 420.468C1257.9 408.241 1259.04 371.877 1270.38 359.594C1276.8 352.649 1285.66 355.865 1290.02 351.979C1289.71 350.162 1289.8 349.114 1288.28 347.869C1283 343.529 1273.11 345.347 1271.74 336.533C1271.13 332.64 1272.61 327.999 1273.09 324.101C1274.47 312.662 1273.79 302.513 1281.54 292.841C1284.64 288.984 1288.88 286.117 1293.9 285.664C1297.87 285.305 1327.96 293.962 1330.52 296.229C1331.73 297.308 1332.66 299.057 1332.69 300.699C1332.75 303.424 1332.22 307.729 1330.64 309.986C1335.21 314.116 1337.93 320.703 1339.41 326.553L1338.75 329.758C1339.96 333.712 1338.73 337.852 1336.77 341.389C1333.95 346.486 1328.23 352.175 1322.81 354.445C1335.07 355.508 1355.46 356.085 1364.47 365.66C1364.39 374.085 1363.94 382.697 1362.82 391.044C1360.41 408.943 1356.05 426.625 1353.24 444.485C1352.18 451.185 1350.6 477.253 1348.27 480.923C1360.51 481.105 1374.7 481.091 1386.36 485.322C1390.91 486.974 1395.24 490.644 1399.92 491.632C1411.63 494.102 1424.96 492.387 1436.92 493.236C1439.37 490.877 1442.03 488.688 1443.35 485.475C1442.16 483.679 1441.64 483.886 1439.62 483.383C1441.5 483.109 1443.18 483.157 1444.71 481.97L1448.21 482.573C1448.29 483.958 1448.29 484.804 1447.84 486.15C1450.19 483.278 1453.44 481.334 1456.96 480.254L1457.66 480.045C1457.73 479.917 1457.79 479.783 1457.87 479.66C1462.29 472.684 1495.34 447.422 1503.69 445.796C1507.48 445.058 1511.24 445.557 1514.42 447.834C1520.45 452.15 1521.61 460.183 1522.76 466.999C1523.65 464.926 1523.89 463.296 1525.93 462.156C1528.85 464.485 1529.87 465.791 1530.35 469.639C1531.09 475.67 1528.47 485.578 1532.1 490.578C1539.6 490.574 1549.21 483.599 1554.22 478.592C1556.84 475.972 1558.45 473.224 1562.11 472.288L1563.82 472.976C1566.33 483.703 1559.68 492.646 1556.91 502.527C1555.03 509.249 1555.52 516.488 1553.7 523.296C1546.58 549.827 1528.74 593.56 1529.22 618.686C1529.44 630.278 1537.56 685.021 1534.27 690.571C1533.54 690.61 1532.49 690.932 1531.93 690.398C1524.23 682.929 1529.68 633.454 1521.83 623.282C1510.2 627.621 1497.58 628.785 1485.89 633.112C1483.78 635.287 1483.66 635.571 1480.7 636L1480.27 634.178C1473.36 633.388 1464.95 638.164 1457.45 638.418C1461.45 645.876 1461.73 662.471 1459.67 670.642C1459.46 671.462 1459.07 672.262 1458.67 673.003L1457.4 673.457C1455.85 672.507 1454.28 671.658 1452.66 670.833C1454.97 665.524 1453.71 631.952 1451.5 625.95C1451.2 625.12 1450.69 624.371 1450.15 623.679C1440.17 620.367 1429.84 616.153 1419.51 614.24C1423.06 625.327 1412.95 657.703 1412.95 671.461C1412.95 678.013 1417.97 687.432 1414.62 693.393C1413.34 695.683 1410.3 697.95 1407.68 698.414C1401.76 699.464 1396.01 694.386 1390.79 692.31C1384.33 695.657 1371.37 701.752 1364.17 699.26C1361.17 698.221 1358.97 695.971 1357.69 693.11C1351.29 678.82 1354.88 680.115 1337.7 673.274C1333.14 671.457 1329.42 671.771 1324.56 671.938C1320.36 668.46 1313.31 663.709 1312.62 657.802C1312.42 656.071 1313.02 654.323 1314.14 652.977C1316.01 650.734 1318.73 648.77 1321.72 648.556C1333.82 647.69 1329.14 662.547 1344.93 647.901C1346.32 636.819 1346.88 577.104 1343.47 569.733C1305.9 588.18 1266.04 601.939 1228.17 619.546C1224.56 621.226 1221.44 623.817 1217.94 625.483C1212.76 627.951 1206.79 627.98 1202 631.433C1198.33 644.357 1201.34 661.694 1201.75 675.154C1202.41 696.62 1204.24 792.831 1199.3 806.898C1195.08 812.472 1053.42 882.038 1039.6 884.871C1017.24 872.839 991.581 864.157 968.178 854.123C955.05 848.494 937.941 839.063 924.71 835.206Q918.166 839.184 911.478 842.917Q904.791 846.65 897.971 850.134Q891.15 853.617 884.206 856.846Q877.261 860.074 870.202 863.044Q863.142 866.014 855.978 868.721Q848.814 871.428 841.554 873.868Q834.295 876.307 826.95 878.477Q819.605 880.647 812.185 882.544C714.477 908.022 615.262 894.079 537.496 826.067C500.191 793.441 468.301 755.59 428.757 725.275C396.613 700.633 360.527 681.375 324.681 662.773C309.172 654.725 293.178 647.118 278.132 638.257C259.816 627.47 240.887 612.863 235.502 591.2C230.941 572.847 238.48 553.841 248.049 538.393C282.565 482.671 366.87 433.311 428.348 411.623C458.585 400.955 490.237 394.233 521.389 386.841C524.541 376.475 530.63 366.685 540.433 361.502C549.871 356.513 561.348 356.166 571.408 359.37C578.931 361.765 592.513 368.433 596.094 375.649C596.492 376.452 596.791 377.285 597.066 378.137C595.44 382.56 593.421 386.722 591.347 390.944C591.586 391.269 591.871 391.845 592.248 391.987C629.825 405.025 662.878 421.164 695.838 443.628C708.618 452.339 728.394 468.548 741.167 475.071C748.216 472.541 755.437 470.486 762.612 468.344C760.047 456.828 758.257 445.19 755.675 433.664C749.932 408.034 743.431 382.529 738.173 356.799C745.474 353.957 762.205 352.495 771.068 350.429C772.242 334.821 777.976 315.725 786.832 302.641C788.871 299.629 793.629 296.083 794.757 292.964C796.468 288.23 794.392 280.024 795.599 274.656C797.148 267.762 801.979 261.695 807.958 258.052C815.965 253.173 826.394 251.967 835.407 254.365C844.104 256.679 851.173 262.431 855.505 270.288C863.648 285.057 855.354 293.03 851.385 306.93C849.129 314.884 846.414 319.399 839.3 323.703C841.009 325.717 843.498 326.728 845.78 327.988C854.763 332.951 859.015 337.656 863.976 346.563C878.709 346.648 903.343 338.751 917.846 334.392C918.185 347.611 914.668 406.654 911.65 417.631Q950.66 406.402 989.021 393.125C987.831 391.134 986.628 389.111 985.649 387.006C979.684 374.186 984.225 356.537 988.68 343.81C993.252 330.751 1001.82 312.913 1013.95 305.382C1020.52 301.299 1028.43 298.804 1035.41 295.412C1038.72 293.808 1043.79 291.407 1044.9 287.587C1047.09 280.059 1039.43 273.157 1036.04 267.199C1030.8 257.981 1037.37 251.531 1039.55 242.667C1040.53 238.667 1040.32 233.285 1038.2 229.701ZM992.996 397.48C957.847 407.295 923.635 420.68 889.095 432.294C840.745 448.551 792.118 463.709 743.526 479.211C777.137 497.978 813.227 507.372 848.369 522.166C873.524 532.755 898.089 548.364 920.421 563.95C930.187 557.751 938.067 548.939 948.034 543.041L935.629 459.946C951.305 464.919 967.481 468.494 983.445 472.441L1078.74 495.585C1083.06 496.673 1094.08 498.836 1096.29 502.804C1100.27 509.925 1102.01 544.836 1099.49 552.769C1099.86 552.912 1100.23 553.055 1100.59 553.213C1102.41 554.009 1104.31 554.758 1105.94 555.928C1111.25 559.739 1116.02 565.399 1121.07 569.678Q1142.43 587.61 1164.28 604.938C1173.67 612.299 1187.13 619.479 1194.68 628.501C1196.93 624.866 1195.75 621.565 1196 617.566C1196.18 614.912 1197.08 613.795 1198.93 612.052C1201.11 612.959 1201.04 613.432 1202.1 615.452C1202.04 618.748 1202.35 622.313 1200.84 625.327C1230.87 616.989 1422.28 524.673 1433.19 528.388C1432.32 529.773 1431.38 531.039 1430.37 532.323C1431.05 533.356 1431.61 533.96 1432.64 534.678C1435.89 536.96 1440.05 538.303 1443.99 537.475C1445.85 535.733 1445.81 535.611 1446.14 533.066C1445.1 529.953 1442.83 528.358 1440.1 526.79C1431.63 521.922 1393.01 507.719 1382.62 504.871C1374.24 502.577 1363.91 504.722 1356.84 498.813C1353.28 495.835 1354.57 491.937 1354.23 487.831C1353.64 487.078 1353.02 486.476 1352.17 486.027C1344.62 482.078 1301.53 470.896 1291.97 469.764C1283.94 468.812 1275.32 469.697 1267.45 467.89C1260.25 466.238 1254.26 461.831 1247.91 458.278C1234.99 451.048 1216.61 446.716 1201.84 449.329C1192.63 450.956 1185.45 457.252 1177.01 460.913C1159.15 468.657 1139.49 476.13 1120.64 480.838C1109.49 477.006 1097.45 475.18 1085.95 472.583L1027.2 458.968C1029.78 451.318 1024.29 436.308 1023.54 427.743C1007.68 432.94 992.141 439.781 976.568 445.827Q958.196 440.586 940.217 434.123Q966.583 424.582 992.747 414.5Q1007.43 418.446 1022.33 421.497Q1019.89 412.786 1017.74 403.999L992.996 397.48ZM860.168 626.15L860.168 801.848C882.938 812.792 906.295 822.552 929.564 832.38C942.171 837.502 1030.2 873.41 1035.13 878.18C1037.59 873.186 1036.79 867.198 1036.2 861.833C1040.83 847.486 1036.83 767.682 1035.77 748.171L1036.69 748.101C1037.81 736.843 1040.52 708.323 1035.23 698.323C1022.57 688.47 957.655 665.71 937.182 657.598C911.401 647.383 885.916 636.438 860.168 626.15ZM1040.88 700.041C1042.66 711.936 1042.49 724.017 1042.04 736.008L1041.07 737.9L1040.94 738.651C1039.19 749.548 1041.45 761.198 1040.46 772.232C1039.41 770.677 1037.49 751.924 1036.69 748.101L1035.77 748.171C1036.83 767.682 1040.83 847.486 1036.2 861.833C1038.7 859.894 1038.4 858.939 1038.78 855.906C1039.24 852.254 1038.08 842.871 1040.57 840.564C1040.73 851.829 1040.91 863.035 1041.92 874.265L1043.8 876.895C1044.51 877.051 1045.01 877.182 1045.74 877.05C1053.31 875.673 1188.81 810.347 1193.38 804.638C1198.33 796.334 1195.32 685.201 1195.37 665.269C1195.38 660.141 1194.17 645.144 1195.95 641.023C1196.04 640.829 1196.17 640.659 1196.27 640.477L1195.3 640.636C1195.46 639.135 1195.79 637.702 1195.11 636.291C1188.51 635.289 1053.76 692.142 1040.88 700.041ZM924.109 568.24C961.739 594.321 990.512 627.336 1018.39 663.313C1023.28 669.629 1034.36 682.811 1035.9 690.309C1035.98 690.738 1035.97 690.955 1035.99 691.416L1038.55 692.983C1043.88 693.79 1177.5 637.679 1189.79 631.066C1187.12 627.085 1181.5 623.651 1177.63 620.773C1160.27 607.866 1142.57 594.93 1125.78 581.31C1118.91 575.743 1112.79 569.284 1105.75 563.93C1104.03 562.621 1102.56 561.683 1100.45 561.137L1099.85 562.138C1100.41 562.827 1100.89 563.563 1101.21 564.399C1103.83 571.236 1106.47 604.144 1103.12 610.865C1103.02 611.067 1102.9 611.26 1102.79 611.457C1094.41 604.766 972.479 572.355 951.838 566.664Q950.408 557.039 949.09 547.398C944.976 550.61 925.419 564.528 924.109 568.24ZM1447.84 486.15C1448.24 488.343 1447 490.958 1446.23 492.986C1458.31 502.205 1447.9 508.335 1449.88 519.736C1450.04 520.628 1450.49 520.636 1451.2 521.11C1467.62 517.651 1481.48 503.755 1497.64 498.331L1497.57 499.833C1491.1 510.559 1463.86 523.146 1451.85 526.58C1452.58 536.956 1447.43 548.934 1450.96 558.831C1453.08 564.77 1458.16 568.218 1463.67 570.728C1474.68 575.733 1485.65 580.24 1497.51 575.765C1497.78 575.54 1498.05 575.312 1498.31 575.067C1510.52 563.39 1523.91 515.893 1524.08 498.498C1522.35 496.003 1521.25 495.77 1518.53 494.645C1521.14 494.055 1523.33 494.119 1524.69 491.452C1527.71 485.545 1525.22 472.861 1522.76 466.999C1521.61 460.183 1520.45 452.15 1514.42 447.834C1511.24 445.557 1507.48 445.058 1503.69 445.796C1495.34 447.422 1462.29 472.684 1457.87 479.66C1457.79 479.783 1457.73 479.917 1457.66 480.045L1456.96 480.254C1453.44 481.334 1450.19 483.278 1447.84 486.15ZM1284.53 358.499C1279.71 359.628 1276.83 360.697 1274.11 365.078C1265.51 378.892 1258.5 416.787 1244.91 423.939C1244.74 424.035 1244.58 424.136 1244.41 424.227C1229.19 432.483 1205.48 429.415 1191.78 440.527L1191.31 442.427C1194.18 445.351 1200.05 445.404 1203.9 445.455C1220.3 445.674 1255.18 442.702 1266.99 430.199C1267.61 429.535 1267.99 428.872 1268.41 428.072C1268.51 427.926 1268.62 427.785 1268.72 427.634C1272.1 422.194 1269.14 411.222 1270.55 404.619L1271.76 404.367C1277.9 413.671 1279.7 432.569 1277.86 443.481C1277.65 444.764 1277.1 445.874 1276.49 447.004C1276.4 447.169 1276.32 447.338 1276.23 447.505C1285.49 446.338 1313.65 443.465 1320.19 437.89C1323.38 432.269 1320.85 412.831 1319.34 406.363C1319.07 405.167 1318.38 404.172 1317.64 403.21L1317.11 402.501C1317.86 399.268 1317.62 397.233 1320.37 395.259C1322.56 396.125 1323 396.653 1323.94 398.882C1327.61 407.605 1329.6 431.166 1325.86 439.979C1325.52 440.781 1325.11 441.492 1324.52 442.128C1324.25 442.251 1323.99 442.377 1323.72 442.498C1309.84 448.788 1264.67 450.696 1258.47 455.99C1259.04 458.236 1259.95 458.758 1261.88 459.917C1276.88 468.927 1319 460.867 1335.47 456.45C1338.05 455.759 1342.19 454.714 1343.97 452.58C1350.21 444.699 1346.87 421.969 1345.82 412.811C1343.72 394.585 1339.92 379.077 1324.85 367.018C1322.96 365.503 1320.96 364.126 1318.77 363.078C1317.83 367.673 1310.33 373.999 1306.61 376.495C1302.96 378.941 1297.67 381.837 1293.09 380.89C1291.29 380.517 1289.46 379.382 1288.54 377.781C1285.24 372.011 1289.71 364.789 1287.16 359.115L1284.53 358.499ZM1021.1 380.414C1021.88 386.091 1022.37 391.991 1023.87 397.527C1025.43 411.477 1035.73 443.592 1031.93 455.51C1050.58 457.468 1097.18 467.81 1114.25 474.779C1114.32 474.649 1114.4 474.521 1114.47 474.387C1114.59 474.164 1114.68 473.933 1114.8 473.71C1115.32 472.658 1115.75 471.662 1115.91 470.486C1116.85 463.4 1110 408.742 1107.82 400.251C1107.13 397.564 1106.06 395.531 1104.32 393.389C1095.58 389.426 1032.87 380.098 1021.1 380.414ZM1073.05 308.017C1074.04 311.432 1072.35 314.691 1070.74 317.653C1068.94 320.958 1066.53 324.437 1063.7 326.897C1063.62 327.022 1063.53 327.142 1063.45 327.271C1062.02 329.703 1063.53 334.725 1061.52 335.502L1057.65 333.833C1061.39 344.419 1061.65 366.741 1057.23 377.252C1056.9 378.049 1056.51 378.504 1055.96 379.156L1059.15 378.187C1060.23 378.878 1061.29 379.572 1062.41 380.192C1075.58 383.668 1089.69 384.481 1103.14 386.747C1105.58 375.58 1105.69 354.598 1099.58 345.056C1105.16 348.143 1107.82 351.166 1111.62 356.136C1136.55 388.73 1115.38 381.451 1113.36 396.563C1115.24 401.025 1115.02 404.664 1114.69 409.361C1118.71 406.445 1122.7 403.547 1126 399.803C1131.92 393.077 1138.9 384.51 1138.29 375.161C1141.17 372.506 1140.62 369.754 1142.67 368.095C1144.12 361.632 1138.61 353.228 1136.21 347.254C1131.84 336.364 1129.22 324.371 1122.41 314.642C1110.99 298.328 1092.43 303.461 1082.51 285.005L1082.4 291.717L1081.8 291.937C1077.88 293.409 1068.62 296.715 1066.59 300.177L1066.83 303.824C1068.73 305.432 1070.66 305.134 1073.09 305.344L1073.05 308.017ZM990.722 385.83C999.627 394.861 1006.56 397.24 1019.39 397.347L1023.87 397.527C1022.37 391.991 1021.88 386.091 1021.1 380.414C1020.62 380.913 1020.24 380.799 1019.56 380.882L1019.4 374.015L1018.17 372.897C1016.84 370.37 1016.19 367.646 1015.44 364.906C1016.62 363.206 1017.84 361.666 1019.25 360.149C1021.3 365.207 1022.4 369.718 1023.23 375.083C1028.16 375.896 1052.89 380.849 1055.96 379.156C1056.51 378.504 1056.9 378.049 1057.23 377.252C1061.65 366.741 1061.39 344.419 1057.65 333.833C1059.53 325.01 1053.71 311.902 1048.88 304.481C1047.12 301.764 1045.39 299.615 1042.78 297.677C1042.64 297.774 1042.49 297.874 1042.34 297.969C1035.62 302.287 1027.14 304.134 1020.1 308.059C1004.31 316.863 995.162 341.563 991.32 358.274C989.09 367.975 988.992 376.054 990.722 385.83ZM837.995 330.161L832.89 340.146L831.856 343.767C828.066 345.623 824.98 344.672 821.059 343.34C813.444 340.753 805.296 336.546 798.539 332.171C788.278 337.442 780.143 341.664 776.427 353.257C771.179 369.624 761.404 412.792 769.928 429.004C771.011 431.064 771.9 432.289 774.193 433.113C779.146 434.894 788.933 432.822 794.161 432.031C793.903 422.066 793.843 411.946 791.523 402.197C788.513 407.473 786.153 415.495 780.734 418.137L779.533 417.607C778.404 409.363 785.962 397.417 790.857 390.922C790.981 390.758 791.108 390.596 791.234 390.433C789.447 381.322 788.305 366.173 791.745 357.434C793.353 356.069 793.528 356.316 795.547 356.389C798.068 357.886 799.051 358.844 800.348 361.515C809.742 363.336 847.437 351.592 859.165 348.351C859.1 348.196 859.04 348.038 858.97 347.884C854.452 338.03 847.617 334.032 837.995 330.161ZM1409.15 555.499C1399.4 561.376 1387.61 564.779 1377.27 569.637C1373.22 571.539 1369.62 574.597 1365.59 576.335C1369.24 593.127 1354.6 643.431 1362.74 654.883L1364.51 654.007L1364.97 652.504C1369.83 650.039 1372.04 642.71 1373.63 637.801C1375.64 631.591 1381.29 599.574 1385.85 597.243C1394.3 592.916 1407.25 599.729 1415.82 596.45C1418.53 588.959 1422.62 564.134 1419.25 557.028C1418.87 556.249 1417.31 555.7 1416.51 555.449C1414.44 554.797 1411.26 555.095 1409.15 555.499ZM1117.42 425.493C1113.36 435.592 1127.75 463.117 1122.34 474.801C1129.06 473.032 1163.25 463.301 1166.53 459.504C1172.33 457.55 1181.17 454.993 1184.42 449.334C1186.1 446.422 1185.1 443.774 1184.12 440.843C1183.75 439.735 1183.63 439.157 1182.79 438.313C1169.7 435.539 1128.22 423.806 1117.42 425.493ZM1294.05 290.498C1285.57 296.051 1282.37 302.601 1280.27 312.457C1278.82 319.241 1276.12 331.732 1280.03 337.857C1281.57 340.285 1283.77 341.672 1286.59 342.188C1291.47 343.081 1299.32 341.321 1303.38 338.557C1303.93 338.183 1303.87 338.217 1304.3 337.807C1307.03 336.574 1310.16 335.555 1311.87 332.959C1311.44 329.237 1310.79 327.136 1312.21 323.604C1314.07 322.9 1314.99 322.379 1316.92 323.398C1317.89 323.915 1318.81 324.74 1319.66 325.439C1321.69 323.631 1322.92 322.421 1323.02 319.467C1323.31 311.424 1315.76 301.161 1310.21 295.918C1307.09 292.967 1302.44 289.868 1297.96 290.054C1296.64 290.108 1295.34 290.297 1294.05 290.498ZM1050.06 249.49L1049.84 250.319C1049.35 252.138 1048.87 254.65 1047.14 255.665C1044.31 257.325 1041.55 257.095 1039.81 260.049C1044.61 268.746 1052.49 288.227 1060.41 292.852C1064.12 293.341 1068.14 293.715 1071.33 291.38C1072 290.886 1072.2 290.209 1072.58 289.483C1076.89 286.642 1077.42 283.782 1078.4 279.02C1078.94 276.405 1079.23 272.966 1080.36 270.562C1081.86 267.373 1085.82 265.371 1085.93 261.619C1084.47 261.639 1083.1 261.744 1081.66 261.928C1078.08 258.307 1078.54 252.624 1075.03 248.938Q1062.55 249.645 1050.06 249.49ZM1551.83 487.498C1551.7 487.608 1551.56 487.721 1551.42 487.828C1546.54 491.64 1535 493.942 1532.66 499.758C1534.01 514.244 1533.59 530.086 1529.91 544.306C1529 547.834 1525.98 551.124 1525.48 554.5C1523.31 569.223 1527.46 587.308 1521.15 601.252C1530.16 594.55 1532.25 572.111 1535.44 561.586C1536.77 557.191 1538.98 553.246 1540.45 548.946C1544.47 537.171 1547.49 523.493 1549.32 511.174C1549.69 508.676 1549.99 506.185 1550.07 503.659C1548.79 502.254 1548.36 502.151 1546.62 501.572C1548.37 501.268 1550.02 500.893 1551.71 500.356C1553.41 496.596 1555.19 493.058 1555.54 488.884L1554.73 487.27L1551.83 487.498ZM527.779 385.393C535.125 386.427 542.921 384.762 550.351 384.866C561.783 385.025 573.546 388.152 584.691 390.56C586.449 386.394 589.275 382.474 591.653 378.627C586.262 373.281 580.102 367.863 573.207 364.571C565.351 360.821 556.334 359.891 548.092 362.977C537.438 366.965 532.329 375.633 527.779 385.393ZM1458.39 577.495C1458.51 577.701 1458.64 577.904 1458.76 578.111C1466.06 590.79 1449.61 603.882 1469.75 609.868C1473.96 611.118 1482.6 613.33 1486.77 611.046C1487.16 610.834 1487.34 610.635 1487.68 610.328L1485.91 606.864C1486.64 604.923 1486.74 604.547 1488.74 603.585C1490.04 602.959 1491.33 603.046 1492.73 603.125C1494.64 604.38 1496.11 605.627 1497.63 607.333L1499.32 606.587C1503.19 605.272 1508.23 604.209 1511.02 601.094C1511.49 598.952 1511.74 598.578 1510.54 596.601C1507.3 591.256 1495.71 586.44 1490.25 583.114C1480.2 583.005 1467.41 576.317 1459.71 577.323C1459.43 577.358 1459.16 577.376 1458.88 577.412C1458.72 577.434 1458.56 577.467 1458.39 577.495ZM1388.67 604.498L1388.84 605.165C1391.42 615.93 1393.38 663.286 1397.49 668.139C1400.39 668.81 1402.26 668.984 1405.24 668.364C1406.77 667.191 1407.13 667.185 1407.34 665.199C1407.44 664.209 1407.24 663.456 1406.99 662.505C1411.07 658.324 1413.94 621.48 1413.59 614.581C1413.55 613.783 1413.19 613.042 1412.88 612.326C1410.82 608.726 1406.16 606.261 1402.28 605.149C1397.6 603.806 1393.47 603.884 1388.67 604.498ZM820.925 257.965C812.293 260.525 807.616 264.234 803.375 272.277C800.513 277.706 797.314 287.756 799.271 293.851C800.066 296.326 801.158 297.048 803.086 298.695L803.728 298.472C803.639 293.608 802.746 288.777 805.697 284.748C808.785 283.436 811.397 284.172 814.36 285.358Q815.576 285.848 816.77 286.389C821.61 288.011 827.497 289.874 832.38 287.371C840.631 283.141 839.165 274.328 848.685 270.276C848.633 267.967 847.944 266.499 846.221 264.889C840.669 259.705 828.32 257.535 820.925 257.965ZM1371.76 489.497C1375.33 492.64 1378.66 496.309 1382.67 498.879C1396.89 507.986 1425.59 515.619 1442.42 522.082L1442.82 521.443L1442.35 519.508C1444.42 514.595 1446.52 504.612 1445.33 499.412C1432.78 494.677 1415.69 498.826 1402.35 496.656C1392.93 495.124 1381.09 487.511 1371.76 489.497ZM1426.31 561.496C1428.6 567.678 1425.39 589.644 1422.54 595.806C1422.34 596.229 1422.12 596.642 1421.9 597.05C1431.59 598.017 1440.25 599.405 1449.43 602.706C1449.86 602.299 1451.23 601.278 1451.43 600.814C1453.18 596.8 1453.39 581.553 1453.46 576.512C1453.48 575.318 1453.39 573.718 1452.96 572.61C1446.47 568.89 1433.7 560.96 1426.31 561.496ZM840.676 289.066C832.759 293.531 825.278 294.738 816.465 292.235C814.153 291.579 811.001 289.963 808.671 290.807C808.171 297.375 814.438 298.523 813.131 309.759L815.909 312.698C821.143 314.718 823.91 318.283 830.001 318.873C833.784 319.239 837.688 319.239 840.751 316.637C845.574 312.54 847.902 301.668 848.375 295.6C848.345 290.853 848.65 285.853 847.459 281.23L846.258 280.653C843.505 282.533 842.155 286.162 840.676 289.066ZM1395.61 547.497L1395.02 547.885C1386.21 553.535 1352.29 563.615 1348.77 569.33C1349.6 571.368 1351.2 573.143 1351.96 575.041C1354.27 580.873 1350.93 593.975 1350.76 600.319C1350.59 607.035 1350.84 646.791 1353.21 651.315L1356.52 649.826C1357.77 642.852 1356.22 634.698 1356.24 627.535C1356.27 615.067 1357.16 602.134 1358.25 589.709C1358.61 585.554 1363.84 572.3 1363.33 570.125C1371.49 566.565 1397.98 556.481 1402.72 550.508C1402.1 548.214 1402.04 548.319 1399.97 547.101L1395.61 547.497ZM765.689 356.24Q755.264 358.196 744.869 360.308L744.189 361.366Q750.708 388.707 758.197 415.798C758.502 418.064 758.785 419.535 760.203 421.365L761.539 420.367C761.577 417.821 761.613 415.333 761.311 412.799C759.755 399.728 763.318 382.381 765.931 369.403C766.773 365.224 769.56 360.422 769.068 356.253C767.761 356.019 767.004 355.885 765.689 356.24ZM1388.65 673.498C1385.89 675.119 1383.2 676.837 1380.15 677.87C1380.44 680.711 1379.45 684.17 1377.5 686.33C1376.09 687.889 1375.09 687.875 1373.12 688.257L1370.68 687.091C1370.84 683.534 1374.57 681.778 1374.49 677.837C1370.22 678.945 1363.78 679.631 1360.54 682.779C1359.61 685.564 1360.09 687.141 1361.41 689.775C1362.52 691.998 1363.2 693.57 1365.76 694.411C1366.83 694.76 1368.1 694.812 1369.21 694.904C1376.25 694.143 1385.8 687.86 1392.09 689.149C1396.06 689.965 1399.47 692.447 1403.28 693.33C1405.05 693.738 1405.88 693.361 1407.21 692.32L1408.4 691.386C1410.54 687.406 1410.36 684.417 1409.08 680.174C1408.63 678.698 1408.04 675.645 1406.89 674.76C1401.09 674.235 1394.41 673.009 1388.65 673.498ZM1514.33 605.498C1508.32 609.087 1501.2 612.454 1494.52 614.546C1485.93 617.235 1464.39 618.184 1459.12 625.388C1458.89 628.051 1458.72 628.508 1460.04 630.78C1461.73 631.07 1462.62 631.151 1464.23 630.488C1482.88 627.751 1504.21 624.597 1521.91 618.139C1522.66 615.219 1522.94 610.561 1521.41 607.851C1520.68 606.55 1519.7 605.775 1518.38 605.135L1514.33 605.498ZM1383.68 625.497C1381.24 643.802 1360.44 665.059 1364.37 675.554C1366.19 676.241 1366.43 676.012 1368.23 675.501C1374.58 674.446 1382.33 673.472 1387.55 669.531C1392.71 660.065 1386.17 637.552 1385.37 626.628C1384.85 626.244 1384.29 625.703 1383.68 625.497ZM1053.89 228.486C1051.19 229.592 1047.36 230.613 1046.17 233.493C1045 236.305 1044.44 238.634 1045.21 241.635C1048.01 244.341 1050.09 244.749 1053.97 244.69C1059.33 244.608 1074.68 241.248 1078.37 244.272C1080.06 245.517 1084.12 250.09 1085.62 250.188C1086.07 244.646 1085.92 238.601 1082.19 234.1C1078.77 229.975 1073.17 228.467 1068.04 228.087C1063.3 227.737 1058.61 227.953 1053.89 228.486ZM1324.36 360.495C1335.63 366.198 1343.61 376.648 1347.54 388.502C1348.95 392.763 1351.88 412.65 1353.46 414.428L1353.08 410.513C1357.45 405.115 1358.85 378.47 1357.96 371.028C1357.79 369.56 1357.35 368.574 1356.55 367.353C1349.03 362.392 1333.28 359.816 1324.36 360.495ZM848.375 295.6C847.902 301.668 845.574 312.54 840.751 316.637C837.688 319.239 833.784 319.239 830.001 318.873C823.91 318.283 821.143 314.718 815.909 312.698C814.374 314.573 813.084 315.175 810.81 315.942C816.207 318.924 830.107 323.763 831.757 329.454C831.369 330.617 831.066 331.952 830.448 333.007C832.969 335.29 832.521 336.838 832.89 340.146L837.995 330.161C847.617 334.032 854.452 338.03 858.97 347.884C859.04 348.038 859.1 348.196 859.165 348.351L863.976 346.563C859.015 337.656 854.763 332.951 845.78 327.988C843.498 326.728 841.009 325.717 839.3 323.703C846.414 319.399 849.129 314.884 851.385 306.93C848.826 304.446 849.449 299.947 848.57 296.377L848.375 295.6ZM795.092 299.193C787.838 311.723 782.147 325.314 777.446 338.985C779.869 337.593 783.078 336.238 784.871 334.077C790.057 331.148 795.434 328.627 800.631 325.755C803.02 321.308 806.397 316.613 804.725 311.377C803.37 307.131 797.984 302.603 795.092 299.193ZM1306.5 342.496C1303.9 344.676 1300.07 345.222 1296.84 346.043C1299.93 355.264 1289.59 366.221 1294.46 375.742C1295.77 375.898 1296.03 376.134 1297.25 375.504C1302.89 373.511 1308.46 369.162 1311.03 363.644C1314.37 356.474 1312.87 351.57 1310.07 344.551C1309.84 343.979 1309.55 343.469 1309.25 342.935L1306.5 342.496ZM1321.23 654.494C1319.42 656.845 1318.92 657.495 1318.59 660.564C1319.74 662.986 1321.38 664.303 1323.87 665.193C1329.19 667.088 1335.74 666.371 1340.76 668.578C1345.17 670.515 1347.76 675.166 1352.77 676.084C1353.5 674.436 1353.07 674.153 1352.45 672.513C1354.2 668.463 1356.4 664.417 1354.69 660.014C1351.2 655.754 1345.6 655.637 1340.51 654.983C1339.23 656.685 1337.22 659.163 1334.93 659.411C1331.11 659.824 1326.51 656.682 1323.47 654.563L1321.23 654.494ZM1517.67 550.498C1513.08 562.555 1509.13 574.111 1498.96 582.498C1501.17 583.86 1506.39 586.335 1507.45 588.551C1511.08 590.442 1513.81 592.186 1516.35 595.446C1518 592.778 1520.3 555.805 1519.49 552.113C1519.41 551.769 1519.11 551.157 1518.99 550.88L1517.67 550.498ZM810.81 315.942C809.329 322.38 807.326 325.809 802.431 330.256C808.135 332.53 821.646 340.712 827.194 338.5L830.448 333.007C831.066 331.952 831.369 330.617 831.757 329.454C830.107 323.763 816.207 318.924 810.81 315.942ZM761.416 428.441C763.143 440.71 765.483 452.872 767.191 465.154C768.965 466.065 769.18 466.157 771.097 465.553C772.729 465.038 774.163 463.92 775.548 462.941L775.588 461.923C775.861 455.854 780.052 443.749 777.33 438.727C773.372 438.645 769.923 438.751 767.029 435.624C765.165 433.611 763.709 429.618 761.416 428.441ZM1326.94 316.492C1327.95 319.57 1328.17 322.026 1326.71 325.036C1322.51 333.698 1313.73 334.446 1317.5 346.402C1317.86 347.561 1318.29 348.588 1318.87 349.654L1320.21 349.158C1323.64 347.41 1328.07 344.992 1329.6 341.267C1332.01 338.051 1333.68 333.75 1333.11 329.661C1333.01 328.941 1333.01 329.006 1332.83 328.426C1333.45 325.703 1332.85 321.791 1331.33 319.395C1329.91 317.144 1329.4 317.202 1326.94 316.492ZM1342.21 459.499C1335.29 461.334 1326.36 462.705 1321.48 468.343L1320.63 471.332C1321.7 473.034 1322.37 473.055 1324.2 473.8C1329.79 474.562 1336.26 475.31 1341.43 477.63C1344.72 473.713 1345.49 465.964 1345.12 461.035C1343.99 459.65 1344 459.763 1342.21 459.499ZM793.113 437.557C790.719 437.77 785.991 437.681 784.151 439.071C783.363 444.064 780.485 456.008 782.802 460.32L785.222 459.803L796.983 457.148C796.558 451.298 796.805 443.569 794.56 438.199L793.113 437.557ZM1422.81 603.498C1422.68 604.344 1422.12 606.16 1422.6 606.829C1426.2 611.83 1441.78 615.784 1447.99 616.463C1448.2 616.486 1448.41 616.482 1448.62 616.491C1450.71 614.509 1451.19 614.123 1451.92 611.38C1449.22 607.171 1443.33 606.086 1438.66 605.073C1433.38 603.929 1428.23 602.758 1422.81 603.498ZM1429.52 539.498L1429.58 539.948C1430.15 544.375 1429.57 547.176 1428.3 551.401C1428.1 552.083 1428.11 552.517 1428.26 553.207C1432.03 554.954 1438.52 557.039 1441.34 559.908C1443.71 557.544 1444.82 554.832 1444.62 551.325C1444.45 548.458 1441.61 545.362 1439.43 543.732C1436.83 541.793 1432.84 539.258 1429.52 539.498ZM1262.37 438.497C1253.87 444.218 1244.33 446.555 1234.43 448.526L1234.9 448.617C1236.44 448.923 1237.77 449.349 1239.21 449.958C1243.33 450.91 1247.77 451.619 1251.73 453.094C1256.83 451.971 1262.52 450.635 1265.47 445.819C1266.28 444.508 1267.02 442.323 1266.44 440.829C1266.14 440.052 1265.58 439.276 1265.12 438.58L1262.37 438.497ZM1419.72 536.497C1415.4 540.223 1407.3 542.728 1401.89 544.517C1404.74 545.268 1408.73 545.846 1411.18 547.445C1415.13 548.452 1417.32 549.529 1421.33 548.263C1423.09 546.414 1424.58 545.237 1424.39 542.437C1424.26 540.632 1423.47 537.973 1422.52 536.429L1419.72 536.497ZM1107.62 365.441C1110.57 370.852 1107.2 383.582 1112.6 386.291C1113.65 385.432 1113.98 385.377 1114.28 384.072C1116.41 380.708 1116.76 378.965 1115.88 375.07C1115.08 371.526 1113.33 367.76 1110.45 365.433L1107.62 365.441Z"/>
	<path fill="#FFFFFA" transform="scale(4.1763 4.1763)" d="M551.354 396.829C552.71 397.577 553.979 398.504 555.262 399.373C556.425 401.333 557.493 403.185 557.511 405.547C557.534 408.491 556.422 410.338 554.476 412.377C553.754 412.102 553.018 411.822 552.327 411.474C549.524 410.063 548.587 408.284 547.597 405.435C547.98 401.894 549.398 399.734 551.354 396.829Z"/>
	<path fill="#EFD097" transform="scale(4.1763 4.1763)" d="M706.507 704.691C710.823 706.077 715.566 707.426 718.036 711.587C720.189 715.213 719.468 718.664 718.479 722.492C717.673 722.723 716.792 722.984 715.95 723.005C713.423 723.069 711.524 722.419 709.755 720.567C706.415 717.071 706.618 709.161 706.507 704.691Z"/>
	<path fill="#EFD097" transform="scale(4.1763 4.1763)" d="M650.89 552.73C652.697 552.841 654.645 552.666 656.224 553.614C658.596 555.037 660.106 558.165 660.649 560.822C661.149 563.271 660.838 566.576 659.4 568.666C658.485 569.995 657.219 569.82 655.704 570.095C652.842 567.585 649.205 566.374 646.223 564.073C644.172 562.491 643.901 561.954 643.651 559.445C645.103 556.354 648.186 554.64 650.89 552.73Z"/>
	<path fill="#EFD097" transform="scale(4.1763 4.1763)" d="M774.135 686.57C777.823 687.869 782.746 703.074 784.904 707.48C781.35 705.768 777.299 704.195 773.973 702.12C770.241 699.791 770.032 697.105 769.05 693.116C764.719 695.75 762.472 703.098 757.935 704.081C757.367 702.866 757.121 702.022 757.328 700.663C758.388 693.697 768.669 691.06 773.429 687.156L774.135 686.57Z"/>
	<path fill="#EFD097" transform="scale(4.1763 4.1763)" d="M637.789 677.268C644.068 678.94 646.371 683.034 649.662 688.217C648.729 693.048 648.12 697.88 647.539 702.761C643.067 701.913 639.035 699.715 634.966 697.756C635.067 691.325 635.106 683.168 637.789 677.268Z"/>
	<path fill="#EFD097" transform="scale(4.1763 4.1763)" d="M632.609 565.45C632.731 565.396 632.847 565.327 632.974 565.287C638.455 563.563 648.122 570.571 652.65 573.293C643.635 572.843 634.511 572.086 625.5 572.832C618.941 572.97 612.571 574.474 605.991 573.694C605.271 571.411 605.414 571.255 606.269 568.991C612.216 564.302 625.074 566.177 632.609 565.45Z"/>
	<path fill="#EFD097" transform="scale(4.1763 4.1763)" d="M596.88 485.593C601.06 487.893 607.136 496.868 614.329 501.087C621.002 505.001 628.949 503.837 635.162 507.605L635.473 509.214L632.798 510.84L615.287 516.245L603.065 513.149C601.46 503.915 598.994 494.728 596.88 485.593Z"/>
	<path fill="#EFD097" transform="scale(4.1763 4.1763)" d="M657.455 617.878C658.494 618.042 659.023 618.46 659.927 618.997L659.629 620.896C651.03 628.922 623.989 638.919 612.269 643.506C611.129 643.704 610.806 643.205 609.837 642.639C608.396 639.354 608.983 634.474 609.012 630.88C625.278 627.088 641.694 623.48 657.455 617.878Z"/>
	<path fill="#303271" fill-opacity="0.98431373" transform="scale(4.1763 4.1763)" d="M848.375 295.6L848.57 296.377C849.449 299.947 848.826 304.446 851.385 306.93C849.129 314.884 846.414 319.399 839.3 323.703C841.009 325.717 843.498 326.728 845.78 327.988C854.763 332.951 859.015 337.656 863.976 346.563L859.165 348.351C859.1 348.196 859.04 348.038 858.97 347.884C854.452 338.03 847.617 334.032 837.995 330.161L832.89 340.146C832.521 336.838 832.969 335.29 830.448 333.007C831.066 331.952 831.369 330.617 831.757 329.454C830.107 323.763 816.207 318.924 810.81 315.942C813.084 315.175 814.374 314.573 815.909 312.698C821.143 314.718 823.91 318.283 830.001 318.873C833.784 319.239 837.688 319.239 840.751 316.637C845.574 312.54 847.902 301.668 848.375 295.6Z"/>
	<path fill="#EFD097" transform="scale(4.1763 4.1763)" d="M567.577 459.594C573.569 460.138 577.599 463.544 581.449 468.007C590.245 478.204 601.431 505.175 599.96 518.513C599.677 521.082 599.041 521.16 597.086 522.705C592.612 506.807 586.651 491.673 577.22 478.011C573.97 473.304 566.301 467.682 564.628 462.651L567.577 459.594Z"/>
	<path fill="#EFD097" transform="scale(4.1763 4.1763)" d="M603.336 536.612C618.023 539.951 632.627 545.583 646.953 550.276C644.04 552.77 640.759 554.89 637.62 557.09C631.178 560.712 620.713 564.555 613.284 563.691C610.313 563.345 607.444 562.111 605.654 559.612C601.591 553.939 602.183 543.168 603.336 536.612Z"/>
	<path fill="#EFD097" transform="scale(4.1763 4.1763)" d="M664.013 630.538C669.082 632.722 674.305 649.034 676.584 654.426Q664.735 666.162 653.334 678.333L651.037 679.083C647.329 677.508 644.334 674.326 641.373 671.646C648.191 657.68 656.654 644.261 664.013 630.538Z"/>
	<path fill="#EFD097" transform="scale(4.1763 4.1763)" d="M547.854 610.695C560.151 621.511 572.101 625.637 588.055 628.066C593.165 628.844 598.411 629.249 603.253 631.14C603.719 632.235 604.162 633.391 604.321 634.577C604.691 637.344 605.082 640.216 603.431 642.473L600.398 642.792C580.193 637.143 559.608 633.89 539.506 627.576C541.336 620.872 543.718 616.22 547.854 610.695Z"/>
	<path fill="#EFD097" transform="scale(4.1763 4.1763)" d="M706.519 627.79C711.607 633.165 716.204 691.376 716.19 702.014C711.08 700.324 706.11 699.213 702.248 695.247C694.458 684.039 687.734 670.139 683.662 657.093Q695.826 643.016 706.519 627.79Z"/>
	<path fill="#EFD097" transform="scale(4.1763 4.1763)" d="M599.252 581.406C599.801 581.652 599.678 581.557 600.3 582.197C603.861 585.851 603.884 620.24 604.085 626.895L566.401 617.202C560.55 614.629 556.093 611.055 551.528 606.696C565.968 595.65 582.459 588.123 599.252 581.406Z"/>
	<path fill="#FFFFFA" transform="scale(4.1763 4.1763)" d="M586.733 395.241L588.366 395.581Q588.702 396.631 588.905 397.714C589.626 401.433 589.031 406.287 588.857 410.086C587.614 437.17 573.243 425.507 567.709 435.551C564.856 440.729 568.233 451.005 569.422 456.449C562.736 457.56 557.422 457.659 550.83 455.902C547.088 454.927 543.325 454.026 539.573 453.094C545.238 441.865 548.651 430.35 552.262 418.357Q554.459 417.215 556.566 415.913C561.014 413.133 561.367 408.749 562.421 403.991C570.984 401.545 578.89 399.635 586.733 395.241Z"/>
	<path fill="#EFD097" transform="scale(4.1763 4.1763)" d="M540.938 440.063C532.797 439.599 522.38 438.42 514.91 435.206L514.606 433.659C523.631 422.745 522.593 399.575 526.375 386.142L527.779 385.393C535.125 386.427 542.921 384.762 550.351 384.866C561.783 385.025 573.546 388.152 584.691 390.56C577.859 395.074 570.645 397.682 562.842 399.96C561.099 397.99 559.237 395.957 556.958 394.597C554.277 392.995 551.694 392.757 548.701 393.484C546.457 394.832 545.237 396.261 544.356 398.693C541.999 405.204 545.075 410.189 547.853 415.891C546.834 424.33 543.993 432.185 540.938 440.063Z"/>
	<path fill="#EFD097" transform="scale(4.1763 4.1763)" d="M502.831 492.428C510.558 494.35 518.485 498.233 525.942 501.133C534.954 540.529 544.559 563.216 538.466 605.436L537.203 606.523C532.745 602.278 526.089 565.332 523.565 556.707C517.269 535.195 510.266 513.575 502.831 492.428Z"/>
	<path fill="#EFD097" transform="scale(4.1763 4.1763)" d="M665.365 579.997C672.207 582.635 679.237 585.212 685.497 589.092C697.504 596.532 701.866 606.177 705.08 619.342C699.562 629.404 692.172 638.053 684.669 646.675C683.932 647.709 682.834 648.52 681.886 649.363L679.731 648.839C673.507 642.755 670.931 631.4 668.152 623.244C672.15 620.428 679.319 616.4 680.309 611.313L678.915 609.776C674.601 608.679 669.782 610.301 665.527 611.246C665.244 600.809 665.051 590.438 665.365 579.997Z"/>
	<path fill="#EFD097" transform="scale(4.1763 4.1763)" d="M628.745 576.495C639.263 576.344 649.797 577.843 660.167 579.425Q660.237 596.117 660.993 612.792C651.709 615.408 642.647 618.544 633.261 620.85C626.151 623.837 616.82 624.981 609.193 626.863C607.595 611.115 606.875 595.194 605.781 579.399C613.434 578.145 621.02 577.175 628.745 576.495Z"/>
	<path fill="#EFD097" transform="scale(4.1763 4.1763)" d="M775.986 595.921C800.129 606.532 825.939 614.449 850.995 622.689Q842.475 627.659 834.381 633.296Q826.286 638.933 818.67 645.201C804.166 655.781 790.026 666.954 775.72 677.809C774.707 658.403 772.59 613.041 775.986 595.921Z"/>
	<path fill="#303271" fill-opacity="0.98431373" transform="scale(4.1763 4.1763)" d="M1019.39 397.347C1015.14 389.368 1008.13 385.859 1002 379.684C1000.99 378.671 999.104 376.386 999.183 374.938C999.548 368.269 1006.86 354.027 1012.06 349.886C1013.77 348.528 1013.91 348.498 1016.06 348.742C1018.66 351.318 1018.44 356.662 1019.25 360.149C1017.84 361.666 1016.62 363.206 1015.44 364.906C1016.19 367.646 1016.84 370.37 1018.17 372.897L1019.4 374.015L1019.56 380.882C1020.24 380.799 1020.62 380.913 1021.1 380.414C1021.88 386.091 1022.37 391.991 1023.87 397.527L1019.39 397.347ZM1015.59 382.415C1016.23 379.218 1016.66 375.817 1018.17 372.897C1016.84 370.37 1016.19 367.646 1015.44 364.906L1014.42 361.75L1013.06 361.21C1010.12 363.292 1007.66 365.075 1006.98 368.878C1006.54 371.352 1006.83 374.425 1008.19 376.593C1009.73 379.034 1013.21 380.877 1015.59 382.415Z"/>
	<path fill="#303271" fill-opacity="0.96862745" transform="scale(4.1763 4.1763)" d="M1057.65 333.833L1061.52 335.502C1063.53 334.725 1062.02 329.703 1063.45 327.271C1063.53 327.142 1063.62 327.022 1063.7 326.897C1067.57 337.823 1067.61 369.334 1062.61 379.811C1062.55 379.94 1062.48 380.065 1062.41 380.192C1061.29 379.572 1060.23 378.878 1059.15 378.187L1055.96 379.156C1056.51 378.504 1056.9 378.049 1057.23 377.252C1061.65 366.741 1061.39 344.419 1057.65 333.833Z"/>
	<path fill="#303271" fill-opacity="0.97647059" transform="scale(4.1763 4.1763)" d="M1073.05 308.017L1073.09 305.344C1070.66 305.134 1068.73 305.432 1066.83 303.824L1066.59 300.177C1068.62 296.715 1077.88 293.409 1081.8 291.937L1082.4 291.717L1082.51 285.005C1092.43 303.461 1110.99 298.328 1122.41 314.642C1129.22 324.371 1131.84 336.364 1136.21 347.254C1138.61 353.228 1144.12 361.632 1142.67 368.095C1140.62 369.754 1141.17 372.506 1138.29 375.161C1138.53 374.455 1138.76 373.806 1138.87 373.066C1139.96 366.018 1132.43 354.971 1129.94 348.592C1126.02 338.582 1124.52 328.44 1118.1 319.469C1113.07 312.435 1095.39 300.378 1086.71 299.375C1081.25 298.746 1077.79 304.724 1073.68 307.588L1073.05 308.017Z"/>
	<path fill="#EFD097" transform="scale(4.1763 4.1763)" d="M535.411 458.958C542.924 458.393 549.53 459.655 556.168 463.373C577.436 475.284 587.258 504.809 593.514 526.708L592.031 526.268C588.119 525.121 582.857 522.976 579.153 525.005C581.016 529.764 585.707 524.644 589.868 537.246C591.777 537.794 593.615 535.561 595.457 534.6L597.589 536.318C600.619 543.488 599.901 554.96 600.394 562.851C567.122 557.056 560.779 538.613 548.661 511.024C545.897 504.731 543.17 497.949 538.807 492.577L538 492.892C538.615 500.102 540.646 505.201 543.995 511.489C552.393 528.292 560.14 552.921 578.119 561.805C584.083 564.751 592.499 563.673 597.935 567.378C600.039 568.812 600.083 570.204 600.567 572.512C599.908 574.697 599.901 575.432 598.039 576.838C593.293 580.422 585.158 582.648 579.63 585.206C569.959 589.682 560.663 594.684 551.789 600.591C546.845 580.829 543.915 560.723 539.658 540.828C535.47 521.249 526.801 499.252 527.241 479.287C527.408 471.683 529.899 464.26 535.411 458.958Z"/>
	<path fill="#EFD097" transform="scale(4.1763 4.1763)" d="M665.391 555.603C676.5 560.677 689.047 564.09 700.555 568.296Q735.854 581.293 771.004 594.688C768.979 622.442 773.335 651.225 769.984 678.7C763.906 683.128 757.553 687.189 751.816 692.068C745.028 690.753 736.371 688.437 729.625 690.525L728.895 692.089C733.339 693.736 737.34 694.161 741.961 694.926C744.723 695.383 747.307 695.867 749.056 698.245C750.351 703.51 746.837 711.31 745.296 716.501C737.547 711.691 729.55 707.825 721.177 704.229C719.847 677.723 716.957 650.867 711.585 624.858C707.752 606.3 701.728 591.608 683.514 583.22C677.702 580.543 671.48 578.4 666.157 574.804L665.391 574.278L665.391 555.603Z"/>
	<path fill="#EFD097" transform="scale(4.1763 4.1763)" d="M859.009 621.743C881.538 605.164 902.475 585.992 924.109 568.24C961.739 594.321 990.512 627.336 1018.39 663.313C1023.28 669.629 1034.36 682.811 1035.9 690.309C1035.98 690.738 1035.97 690.955 1035.99 691.416C1035.87 691.745 1035.26 692.054 1034.98 692.261C996.216 679.035 957.853 661.656 920.077 645.652C900.077 637.179 879.804 628.107 859.009 621.743Z"/>
	<path fill="#EFD097" transform="scale(4.1763 4.1763)" d="M592.248 391.987C629.825 405.025 662.878 421.164 695.838 443.628C708.618 452.339 728.394 468.548 741.167 475.071C740.784 475.313 740.393 475.542 739.991 475.751C732.56 479.611 648.01 506.131 644.24 505.849C638.68 505.432 618.346 497.407 610.841 495.195C604.701 488.466 599.542 480.672 593.594 473.723C587.27 466.333 579.942 460.064 572.575 453.758C571.851 447.93 571.264 442.079 570.624 436.24Q573.468 436.146 576.293 435.801C581.458 435.128 585.377 432.896 588.504 428.692C595.452 419.349 593.868 402.89 592.248 391.987Z"/>
	<path fill="#EFD097" transform="scale(4.1763 4.1763)" d="M743.526 479.211C777.137 497.978 813.227 507.372 848.369 522.166C873.524 532.755 898.089 548.364 920.421 563.95L920.156 565.433L919.587 564.889L917.466 566.074L919.073 566.722L918.18 567.512L917.531 565.758L917.003 565.96L917.62 567.592Q885.963 593.005 855.408 619.732C816.777 606.814 779.236 591.915 741.118 577.691C734.155 575.093 726.907 573.348 719.947 570.771C713.433 568.36 707.292 565.006 700.737 562.717C666.186 550.652 630.054 541.973 595.988 528.763C611.599 521.52 628.208 516.732 644.565 511.503L708.705 490.996C720.109 487.34 732.71 484.26 743.526 479.211Z"/>
	<path fill="#FFFFFA" transform="scale(4.1763 4.1763)" d="M768.247 519.927C776.562 518.021 801.214 531.145 809.596 534.976Q803.48 536.05 797.451 537.539Q791.422 539.028 785.509 540.926Q779.596 542.823 773.827 545.12Q768.057 547.417 762.458 550.102C752.97 552.475 731.504 539.683 722.516 535.833C737.434 529.916 753.068 525.165 768.247 519.927Z"/>
	<path fill="#EFD097" transform="scale(4.1763 4.1763)" d="M1040.88 700.041C1044.91 702.684 1047 707.683 1047.92 712.264C1049.19 718.577 1048.83 727.095 1045.02 732.537Q1043.72 734.433 1042.04 736.008C1042.49 724.017 1042.66 711.936 1040.88 700.041Z"/>
	<path fill="#303271" fill-opacity="0.95294118" transform="scale(4.1763 4.1763)" d="M1036.69 748.101C1037.49 751.924 1039.41 770.677 1040.46 772.232C1041.45 761.198 1039.19 749.548 1040.94 738.651L1041.07 737.9C1044.66 752.775 1045.96 861.915 1041.92 874.265C1040.91 863.035 1040.73 851.829 1040.57 840.564C1038.08 842.871 1039.24 852.254 1038.78 855.906C1038.4 858.939 1038.7 859.894 1036.2 861.833C1040.83 847.486 1036.83 767.682 1035.77 748.171L1036.69 748.101Z"/>
	<path fill="#EFD097" transform="scale(4.1763 4.1763)" d="M860.168 626.15C885.916 636.438 911.401 647.383 937.182 657.598C957.655 665.71 1022.57 688.47 1035.23 698.323C1040.52 708.323 1037.81 736.843 1036.69 748.101L1035.77 748.171C1036.83 767.682 1040.83 847.486 1036.2 861.833C1036.79 867.198 1037.59 873.186 1035.13 878.18C1030.2 873.41 942.171 837.502 929.564 832.38C906.295 822.552 882.938 812.792 860.168 801.848L860.168 626.15ZM929.564 832.38C942.171 837.502 1030.2 873.41 1035.13 878.18C1037.59 873.186 1036.79 867.198 1036.2 861.833C1040.83 847.486 1036.83 767.682 1035.77 748.171C1029.04 750.477 1012.35 771.378 1005.43 777.725C982.266 798.962 955.594 815.068 929.564 832.38Z"/>
	<path fill="#303271" transform="scale(4.1763 4.1763)" d="M1196.25 461.496Q1196.84 461.442 1197.43 461.413C1204.4 461.113 1222.58 465.922 1227.9 470.741C1227.82 471.536 1228.01 471.849 1227.35 472.372C1218.93 479.035 1181.44 492.036 1171.2 490.907C1163.46 487.136 1149.96 488.998 1143.66 483.037C1142.21 481.659 1142.43 480.98 1142.41 479.111C1148.07 469.151 1184.33 467.693 1195.79 461.752C1195.95 461.67 1196.1 461.582 1196.25 461.496ZM1148.97 477.497L1148.69 479.759C1152.5 483.637 1169.72 485.961 1175.53 486.113L1177.05 484.435C1175.92 482.023 1173.24 481.086 1170.76 480.213C1163.78 477.756 1156.33 476.278 1148.97 477.497Z"/>
	<path fill="#303271" transform="scale(4.1763 4.1763)" d="M1215.54 540.497C1216.43 540.592 1217.16 540.947 1217.78 541.602C1227.16 551.583 1246.41 550.101 1257.13 558.252C1254.93 561.067 1250.49 562.745 1247.29 564.417C1236.71 569.951 1217.83 581.197 1206.01 577.503C1194.15 571.471 1172.03 569.239 1162.24 561.788C1169.41 554.646 1204.33 544.513 1215.54 540.497ZM1208.7 547.494C1201.62 554.273 1180.35 560.685 1170.67 561.894C1175.98 562.931 1182.11 563.771 1187 566.145C1193.64 566.095 1217.77 556.271 1222.09 551.671C1222.56 551.165 1222.56 551.087 1222.84 550.557C1219.4 548.707 1212.56 546.42 1208.7 547.494Z"/>
	<path fill="#303271" transform="scale(4.1763 4.1763)" d="M832.482 472.087C843.747 471.026 864.502 479.208 875.116 483.392C880.275 485.425 885.58 487.83 887.906 493.177C887.801 494.927 887.961 495.971 886.934 497.451C881.154 505.775 859.797 509.214 850.24 511.089C835.608 509.803 805.249 492.702 791.372 486.142C804.986 481.138 818.526 476.068 832.482 472.087ZM877.239 490.228C872.359 491.166 845.985 499.359 843.48 502.123C843.358 502.258 843.278 502.425 843.177 502.576L849.594 505.773C859.325 504.491 873.447 500.862 881.193 494.617L881.954 492.898C880.497 490.813 879.605 490.883 877.239 490.228Z"/>
	<path fill="#EFD097" transform="scale(4.1763 4.1763)" d="M924.71 835.206Q918.166 839.184 911.478 842.917Q904.791 846.65 897.971 850.134Q891.15 853.617 884.206 856.846Q877.261 860.074 870.202 863.044Q863.142 866.014 855.978 868.721Q848.814 871.428 841.554 873.868Q834.295 876.307 826.95 878.477Q819.605 880.647 812.185 882.544C714.477 908.022 615.262 894.079 537.496 826.067C500.191 793.441 468.301 755.59 428.757 725.275C396.613 700.633 360.527 681.375 324.681 662.773C309.172 654.725 293.178 647.118 278.132 638.257C259.816 627.47 240.887 612.863 235.502 591.2C230.941 572.847 238.48 553.841 248.049 538.393C282.565 482.671 366.87 433.311 428.348 411.623C458.585 400.955 490.237 394.233 521.389 386.841C519.001 405.818 518.262 421.546 505.708 437.105C516.747 440.323 527.656 442.728 539.06 444.202C526.065 465.393 522.116 469.995 524.271 496.082Q509.651 490.023 495.228 483.508C504.548 510.519 512.752 537.774 520.88 565.158C526.577 584.355 535.213 605.436 535.469 625.575C535.809 652.216 524.644 686.079 529.84 711.451L530.759 711.482C538.299 691.159 536.598 655.899 540.27 633.25L573.308 640.719C572.194 649.224 567.357 672.039 572.002 678.778C573.384 678.005 573.705 676.186 574.128 674.696C576.95 664.762 576.753 652.072 577.086 641.7C586.332 643.873 595.963 645.634 604.997 648.539C604.553 681.68 601.671 717.416 607.431 750.149C614.01 718.346 610.357 682.398 610.024 650.057Q635.083 637.577 660.855 626.644C654.748 638.11 648.744 649.662 642.395 660.996C638.465 668.011 633.641 675.01 630.606 682.452C628.013 688.811 624.93 699.061 627.076 705.739C627.801 707.993 628.978 709.264 631.001 710.406C634.948 710.036 635.853 706.543 639.905 706.746C649.761 707.241 665.188 720.427 674.578 714.501L675.3 712.762C670.017 702.655 660.464 695.041 654.477 685.019C662.721 676.809 671.176 668.729 679.057 660.169C685.213 671.675 692.688 683.537 697.064 695.797C701.105 707.116 696.783 724.744 706.582 732.797C709.104 733.144 710.195 733.006 712.326 731.327C713.527 730.38 714.587 729.108 715.608 727.972C725.471 728.122 739.592 730.033 748.612 725.817L749.994 724.101Q748.692 721.893 747.467 719.64C750.292 714.739 756.323 711.727 760.057 707.391C767.908 710.535 785.415 720.511 793.361 716.787C794.708 716.156 795.049 715.405 795.871 714.221C795.61 709.875 791.526 706.695 788.487 704.001Q787.585 703.202 786.674 702.414C784.246 695.052 781.952 687.604 779.183 680.362Q817.358 651.577 855.94 623.34L855.976 804.879C877.547 816.525 901.583 826.992 924.71 835.206Z"/>
</svg>
