<?xml version="1.0" encoding="utf-8" ?>
<svg xmlns="http://www.w3.org/2000/svg" xmlns:xlink="http://www.w3.org/1999/xlink" width="7431" height="3204">
	<path fill="#FCFCE8" transform="scale(5.83778 5.83778)" d="M494.213 229.519L495.361 230.62C495.357 256.838 502.082 282.873 521.132 301.892C525.492 306.245 530.385 309.931 535.43 313.445L533.519 314.211C528.493 311.502 523.719 307.229 519.712 303.205C507.433 290.873 495.806 270.372 494.071 252.852C493.327 245.345 494.207 237.11 494.213 229.519Z"/>
	<path fill="#FCFCE8" transform="scale(5.83778 5.83778)" d="M1265.38 528.001C1265.41 512.411 1264.05 404.725 1266 399.749C1266.33 400.229 1266.92 400.871 1267.15 401.391C1270.86 409.58 1269.36 511.478 1267.41 525.696C1267.34 526.236 1267.1 526.739 1266.83 527.21L1265.38 528.001Z"/>
	<path fill="#FCFCE8" transform="scale(5.83778 5.83778)" d="M100.911 105.562C101.71 112.193 101.379 119.124 101.372 125.805L101.31 158.825L101.341 267.44C101.331 278.953 99.4314 301.569 102.864 311.649L101.821 312.974C101.152 311.636 100.605 310.165 100.37 308.684C99.6337 304.035 99.8904 298.79 99.7348 294.076L98.8552 263.633Q97.8858 217.996 98.2521 172.351C98.2779 152.838 97.6316 124.461 100.911 105.562Z"/>
	<path fill="#FCFCE8" transform="scale(5.83778 5.83778)" d="M629.004 148.597C632.038 145.467 635.256 143.765 639.714 143.642C641.793 143.585 645.139 143.898 647.064 144.749C649.933 146.483 657.129 153.119 658.102 156.165C658.56 157.24 658.79 158.201 658.836 159.377C659.303 171.388 659.605 306.028 658.488 308.553C658.34 308.889 658.162 309.186 657.95 309.483C657.316 312.398 652.501 317.35 649.977 318.967C645.728 321.688 640.963 322.866 636 321.634C633.254 320.952 630.541 319.369 628.841 317.065L629.253 316.48C633.862 318.523 638.003 319.98 643.132 319.558C646.49 319.281 649.584 317.808 651.769 315.226C653.883 312.728 655.171 309.106 655.541 305.88C656.497 297.542 655.987 288.735 655.985 280.35L655.942 235.618L655.991 188.265C656.006 179.307 656.459 170.091 655.688 161.171C655.33 157.03 654.448 152.794 651.135 149.988C643.203 141.119 633.428 149.676 629.004 148.597Z"/>
	<path fill="#FCFCE8" transform="scale(5.83778 5.83778)" d="M318.126 317.224Q317.724 316.823 317.345 316.399C315.394 314.233 313.116 311.371 312.002 308.688C310.528 305.139 309.712 301.243 308.405 297.616C303.405 283.735 298.799 269.804 293.942 255.889C284.109 227.72 273.122 199.704 264.101 171.26C263.281 168.675 261.862 164.862 262.113 162.127C262.611 156.71 265.917 151.057 270.04 147.592C273.631 144.575 277.542 143.828 282.095 144.258C288.223 144.836 291.105 148.373 294.73 152.835L293.898 153.61C291.571 150.18 288.375 148.223 284.296 147.47C279.858 146.651 274.794 147.25 271.061 149.932C267.898 152.205 265.941 155.98 265.317 159.785C264.725 163.399 266.172 168.737 267.201 172.219C269.727 180.768 273.056 189.241 276.011 197.657L291.264 241.362C294.934 251.858 313.87 309.793 318.074 315.385C318.348 315.75 318.613 316.064 318.926 316.397C320.5 317.31 322.224 318.113 323.938 318.721C328.096 320.194 333.061 320.064 337.03 318.105C340.287 316.498 341.864 314.327 343.538 311.197C347.725 303.373 350.076 293.572 352.91 285.137L369.26 236.932L371.309 238.713C367.052 252.041 362.26 265.198 357.91 278.499C354.636 288.511 352.052 299.786 347.147 309.115C344.81 313.56 341.579 318.274 337.017 320.64C333.172 322.635 328.253 322.744 324.172 321.397C321.966 320.668 319.593 319.03 318.126 317.224Z"/>
	<path fill="#F4F0E0" transform="scale(5.83778 5.83778)" d="M101.335 100.152C102.17 96.7683 103.843 94.323 106.901 92.5438C108.861 91.4032 111.167 90.5577 113.403 90.1753C129.351 87.4483 194.546 87.8951 209.431 92.2069C224.789 96.6557 238.325 111.047 245.727 124.717Q246.188 125.573 246.627 126.44Q247.066 127.308 247.484 128.185Q247.902 129.063 248.298 129.951Q248.694 130.839 249.068 131.737Q249.442 132.634 249.794 133.54Q250.145 134.447 250.474 135.362Q250.803 136.276 251.11 137.199Q251.416 138.122 251.7 139.052Q251.983 139.982 252.244 140.919Q252.504 141.855 252.741 142.798Q252.978 143.741 253.192 144.689Q253.406 145.638 253.596 146.591Q253.787 147.545 253.953 148.503Q254.12 149.46 254.263 150.422Q254.406 151.384 254.525 152.349Q254.644 153.314 254.739 154.281Q254.835 155.249 254.906 156.218Q254.977 157.188 255.025 158.159Q255.072 159.13 255.095 160.102Q255.119 161.074 255.118 162.047Q255.117 163.019 255.092 163.991Q255.068 164.963 255.019 165.934Q254.97 166.905 254.897 167.874Q254.824 168.844 254.728 169.811Q254.631 170.779 254.51 171.743Q254.39 172.708 254.245 173.67Q254.101 174.631 253.933 175.589Q253.765 176.546 253.573 177.499Q253.381 178.453 253.166 179.401Q252.951 180.349 252.712 181.291Q252.474 182.234 252.212 183.17Q251.95 184.106 251.665 185.036Q250.123 190.315 247.866 195.331C239.752 211.493 225.389 227.744 207.632 233.405C200.752 235.598 193.097 233.568 186.011 233.808C180.89 233.982 175.742 234.691 170.619 235.002Q153.003 236.032 135.358 236.221C135.4 254.872 137.127 290.864 133.345 307.92C132.565 311.435 131.404 314.827 128.8 317.423C125.823 320.392 121.412 322.357 117.176 322.231C111.925 322.073 107.03 319.418 103.582 315.535C102.888 314.753 102.334 313.882 101.821 312.974L102.864 311.649C103.538 312.811 104.238 314.03 105.156 315.017C107.99 318.063 112.449 319.704 116.553 319.748C120.461 319.789 124.38 318.434 127.145 315.61C129.233 313.478 130.606 310.614 131.157 307.691C132.746 299.27 131.81 289.378 131.792 280.764L131.79 233.129C151.251 232.861 193.655 235.633 209.837 229.795C226.155 223.908 238.606 210.139 245.901 194.748Q246.943 192.428 247.837 190.047Q248.73 187.665 249.472 185.232Q250.213 182.799 250.799 180.324Q251.384 177.849 251.812 175.342Q252.241 172.835 252.509 170.305Q252.778 167.776 252.886 165.235Q252.994 162.693 252.941 160.151Q252.889 157.608 252.675 155.073C251.005 135.974 242.704 117.882 227.817 105.531C220.488 99.4507 211.656 94.8756 202.337 92.8025C194.343 91.0243 185.43 91.729 177.282 91.7347L143.5 91.7817C134.706 91.7963 124.883 90.8367 116.198 91.7542C109.341 92.4784 106.076 96.426 102.065 101.485L101.335 100.152Z"/>
	<path transform="scale(5.83778 5.83778)" d="M867.587 88.9738C868.591 84.271 870.226 81.5836 874.41 78.8729C878.284 76.3631 883.032 75.395 887.543 76.4489C891.764 77.4353 898.306 81.7134 900.397 85.57C900.521 85.7987 900.622 86.1924 900.691 86.4188C901.083 87.1778 901.402 87.9431 901.513 88.7979C902.065 93.0521 902.403 130.656 901.353 133.911C901.301 134.071 901.24 134.229 901.183 134.387C903.755 141.977 903.092 291.518 901.748 294.346C901.706 294.433 901.658 294.517 901.613 294.603C903.219 298.713 902.334 306.152 900.561 310.136C898.404 314.981 894.253 319.395 889.193 321.199Q888.381 321.483 887.544 321.684Q886.708 321.885 885.855 322.001Q885.003 322.118 884.143 322.149Q883.283 322.179 882.424 322.124Q881.566 322.069 880.717 321.928Q879.868 321.787 879.038 321.562Q878.208 321.337 877.404 321.03Q876.6 320.723 875.831 320.337C871.671 318.208 868.367 313.952 866.993 309.524C865.731 305.455 866.806 300.143 865.023 296.563C866.5 292.961 865.095 250.399 865.087 243.96L866.346 97.0889C866.917 95.8906 867.009 95.1176 866.906 93.7988C867.735 91.9747 867.928 90.9545 867.587 88.9738Z"/>
	<path fill="#FCFCE8" transform="scale(5.83778 5.83778)" d="M866.906 93.7988C867.219 94.2787 867.792 94.9551 867.997 95.4711C869.102 98.2551 868.259 248.131 868.261 265.33C868.262 275.164 866.906 302.681 869.202 310.012C870.754 314.968 875.902 318.571 880.827 319.576C884.64 320.355 888.647 319.773 891.901 317.577C896.036 314.786 898.129 310.24 898.959 305.454C899.712 301.112 899.42 296.524 899.336 292.141L899.875 292.141C900.113 293.382 900.274 295.851 900.958 296.829L901.613 294.603C903.219 298.713 902.334 306.152 900.561 310.136C898.404 314.981 894.253 319.395 889.193 321.199Q888.381 321.483 887.544 321.684Q886.708 321.885 885.855 322.001Q885.003 322.118 884.143 322.149Q883.283 322.179 882.424 322.124Q881.566 322.069 880.717 321.928Q879.868 321.787 879.038 321.562Q878.208 321.337 877.404 321.03Q876.6 320.723 875.831 320.337C871.671 318.208 868.367 313.952 866.993 309.524C865.731 305.455 866.806 300.143 865.023 296.563C865.194 296.698 865.398 296.851 865.561 297.003C867.103 298.438 866.745 299.896 866.808 301.852C866.986 301.436 867.151 301.008 867.264 300.57C868.513 295.719 867.543 257.154 867.544 248.734C867.554 200.365 868.538 151.779 867.461 103.433C867.407 101.049 867.6 99.1602 866.346 97.0889C866.917 95.8906 867.009 95.1176 866.906 93.7988Z"/>
	<path fill="#F4F0E0" transform="scale(5.83778 5.83778)" d="M867.587 88.9738C868.591 84.271 870.226 81.5836 874.41 78.8729C878.284 76.3631 883.032 75.395 887.543 76.4489C891.764 77.4353 898.306 81.7134 900.397 85.57C900.521 85.7987 900.622 86.1924 900.691 86.4188C901.083 87.1778 901.402 87.9431 901.513 88.7979C902.065 93.0521 902.403 130.656 901.353 133.911C901.301 134.071 901.24 134.229 901.183 134.387L900.709 134.243C899.561 171.684 899.961 209.323 900.037 246.79C900.055 255.319 901.423 286.833 899.875 292.141L899.336 292.141C900.351 251.28 899.356 210.152 899.368 169.264L899.416 120.497C899.424 111.419 899.901 102.008 899.082 92.968C898.803 89.8964 897.849 86.6013 895.942 84.1292C893.671 81.1843 889.982 78.6831 886.225 78.3018C881.232 77.7951 875.429 80.6911 872.018 84.2691C870.586 85.7709 869.54 87.4733 867.873 88.7614C867.779 88.8341 867.682 88.903 867.587 88.9738Z"/>
	<path fill="#FCFCE8" transform="scale(5.83778 5.83778)" d="M899.875 292.141C901.423 286.833 900.055 255.319 900.037 246.79C899.961 209.323 899.561 171.684 900.709 134.243L901.183 134.387C903.755 141.977 903.092 291.518 901.748 294.346C901.706 294.433 901.658 294.517 901.613 294.603L900.958 296.829C900.274 295.851 900.113 293.382 899.875 292.141Z"/>
	<path fill="#F4F0E0" transform="scale(5.83778 5.83778)" d="M866.346 97.0889C867.6 99.1602 867.407 101.049 867.461 103.433C868.538 151.779 867.554 200.365 867.544 248.734C867.543 257.154 868.513 295.719 867.264 300.57C867.151 301.008 866.986 301.436 866.808 301.852C866.745 299.896 867.103 298.438 865.561 297.003C865.398 296.851 865.194 296.698 865.023 296.563C866.5 292.961 865.095 250.399 865.087 243.96L866.346 97.0889Z"/>
	<path transform="scale(5.83778 5.83778)" d="M422.707 245.38C423.275 240.974 429.885 224.977 431.72 219.721C437.315 203.692 448.857 161.783 458.062 149.931C460.364 146.968 464.455 144.777 468.148 144.305C472.774 143.713 478.037 145.334 481.659 148.262C484.759 150.769 486.327 155.374 486.695 159.202C487.383 165.206 486.623 170.242 485.081 176.067C483.163 183.314 480.19 190.386 477.725 197.473L464.077 236.985L448.363 281.874C445.779 289.444 443.713 297.317 440.792 304.749C439.317 308.502 437.35 313.343 434.87 316.512C432.334 319.752 427.752 321.644 423.751 321.998C419.771 322.349 414.327 321.475 411.164 318.857C400.724 310.214 382.648 248.094 374.525 231.394L371.309 238.713L369.26 236.932L352.91 285.137C350.076 293.572 347.725 303.373 343.538 311.197C341.864 314.327 340.287 316.498 337.03 318.105C333.061 320.064 328.096 320.194 323.938 318.721C322.224 318.113 320.5 317.31 318.926 316.397C318.613 316.064 318.348 315.75 318.074 315.385C313.87 309.793 294.934 251.858 291.264 241.362L276.011 197.657C273.056 189.241 269.727 180.768 267.201 172.219C266.172 168.737 264.725 163.399 265.317 159.785C265.941 155.98 267.898 152.205 271.061 149.932C274.794 147.25 279.858 146.651 284.296 147.47C288.375 148.223 291.571 150.18 293.898 153.61L294.73 152.835C300.46 162.302 303.103 173.297 306.726 183.688Q314.998 207.232 323.022 230.862C325.724 238.92 328.19 249.528 333.19 256.468C336.618 243.811 354.6 190.454 361.911 182.886L363.266 180.126C364.408 177.936 365.755 176.363 367.478 174.603C372.78 172.908 377.378 171.972 382.649 174.612C386.154 176.367 389.643 179.733 391.666 183.106C394.1 187.168 395.194 192.547 396.841 197.02C400.9 208.045 413.504 245.718 419.27 253.347L422.707 245.38Z"/>
	<path fill="#FCFCE8" transform="scale(5.83778 5.83778)" d="M367.478 174.603C372.78 172.908 377.378 171.972 382.649 174.612C386.154 176.367 389.643 179.733 391.666 183.106C394.1 187.168 395.194 192.547 396.841 197.02C400.9 208.045 413.504 245.718 419.27 253.347L422.707 245.38C423.161 246.738 423.547 248.18 424.15 249.477C422.473 254.135 421.059 258.9 419.568 263.621C412.672 250.443 391.562 180.5 382.952 176.145C378.147 173.716 372.225 174.565 367.804 177.381C366.371 178.293 365.155 179.574 363.502 180.064C363.424 180.087 363.345 180.105 363.266 180.126C364.408 177.936 365.755 176.363 367.478 174.603Z"/>
	<path fill="#F4F0E0" transform="scale(5.83778 5.83778)" d="M422.707 245.38C423.275 240.974 429.885 224.977 431.72 219.721C437.315 203.692 448.857 161.783 458.062 149.931C460.364 146.968 464.455 144.777 468.148 144.305C472.774 143.713 478.037 145.334 481.659 148.262C484.759 150.769 486.327 155.374 486.695 159.202L485.982 159.838C483.953 154.494 481.569 150.697 476.109 148.244C472.478 146.613 467.696 146.103 463.94 147.595C459.545 149.341 457.479 153.472 455.781 157.594C449.527 172.776 444.885 189.125 439.497 204.662C434.755 218.336 427.659 235.925 424.15 249.477C423.547 248.18 423.161 246.738 422.707 245.38Z"/>
	<path fill="#FCFCE8" transform="scale(5.83778 5.83778)" d="M294.73 152.835C300.46 162.302 303.103 173.297 306.726 183.688Q314.998 207.232 323.022 230.862C325.724 238.92 328.19 249.528 333.19 256.468C336.618 243.811 354.6 190.454 361.911 182.886C360.493 191.286 355.864 200.726 352.866 208.769C345.892 227.477 338.641 246.128 332.224 265.035C327.765 254.166 324.437 242.453 320.59 231.338L293.898 153.61L294.73 152.835Z"/>
	<path fill="#FCFCE8" transform="scale(5.83778 5.83778)" d="M486.695 159.202C487.383 165.206 486.623 170.242 485.081 176.067C483.163 183.314 480.19 190.386 477.725 197.473L464.077 236.985L448.363 281.874C445.779 289.444 443.713 297.317 440.792 304.749C439.317 308.502 437.35 313.343 434.87 316.512C432.334 319.752 427.752 321.644 423.751 321.998C419.771 322.349 414.327 321.475 411.164 318.857C400.724 310.214 382.648 248.094 374.525 231.394L371.309 238.713L369.26 236.932C371.108 232.035 372.589 226.942 374.219 221.965C381.188 237.164 403.845 309.84 410.97 316.357C413.675 318.832 419.124 319.914 422.688 319.77C426.448 319.618 430.754 318.044 433.233 315.086C436.223 311.517 481.788 179.992 485.526 167.071C486.238 164.611 486.209 162.355 485.982 159.838L486.695 159.202Z"/>
	<path transform="scale(5.83778 5.83778)" d="M101.335 100.152L102.065 101.485C106.076 96.426 109.341 92.4784 116.198 91.7542C124.883 90.8367 134.706 91.7963 143.5 91.7817L177.282 91.7347C185.43 91.729 194.343 91.0243 202.337 92.8025C211.656 94.8756 220.488 99.4507 227.817 105.531C242.704 117.882 251.005 135.974 252.675 155.073Q252.889 157.608 252.941 160.151Q252.994 162.693 252.886 165.235Q252.778 167.776 252.509 170.305Q252.241 172.835 251.812 175.342Q251.384 177.849 250.799 180.324Q250.213 182.799 249.472 185.232Q248.73 187.665 247.837 190.047Q246.943 192.428 245.901 194.748C238.606 210.139 226.155 223.908 209.837 229.795C193.655 235.633 151.251 232.861 131.79 233.129L131.792 280.764C131.81 289.378 132.746 299.27 131.157 307.691C130.606 310.614 129.233 313.478 127.145 315.61C124.38 318.434 120.461 319.789 116.553 319.748C112.449 319.704 107.99 318.063 105.156 315.017C104.238 314.03 103.538 312.811 102.864 311.649C99.4314 301.569 101.331 278.953 101.341 267.44L101.31 158.825L101.372 125.805C101.379 119.124 101.71 112.193 100.911 105.562C101.208 103.774 101.249 101.96 101.335 100.152ZM133.77 122.696C133.825 148.808 134.168 174.968 133.809 201.075L174.023 201.121C181.235 201.14 190.211 202.37 197.171 200.547C201.159 199.503 205.628 196.065 208.521 193.169Q209.438 192.256 210.285 191.276C218.313 180.18 222.062 167.306 219.836 153.489C218.3 143.947 211.653 133.187 203.77 127.582C195.478 121.687 166.971 123.865 156.308 123.613C148.794 123.436 141.293 122.483 133.77 122.696Z"/>
	<path transform="scale(5.83778 5.83778)" d="M494.213 229.519C494.019 225.291 493.716 220.981 493.948 216.753C495.051 196.618 509.189 172.864 523.932 159.71C539.532 145.792 556.418 141.699 576.777 142.845C589.84 143.58 598.383 146.556 609.671 153.124C613.461 155.329 617.709 157.852 620.645 161.141C622.084 159.588 622.597 156.706 623.739 154.792C624.833 152.957 626.512 151.382 627.92 149.776L629.004 148.597C633.428 149.676 643.203 141.119 651.135 149.988C654.448 152.794 655.33 157.03 655.688 161.171C656.459 170.091 656.006 179.307 655.991 188.265L655.942 235.618L655.985 280.35C655.987 288.735 656.497 297.542 655.541 305.88C655.171 309.106 653.883 312.728 651.769 315.226C649.584 317.808 646.49 319.281 643.132 319.558C638.003 319.98 633.862 318.523 629.253 316.48L628.841 317.065C623.129 311.852 622.487 305.504 621.054 304.025C613.391 313.601 600.338 319.998 588.612 322.738C569.616 327.175 550.142 324.549 533.519 314.211L535.43 313.445C530.385 309.931 525.492 306.245 521.132 301.892C502.082 282.873 495.357 256.838 495.361 230.62L494.213 229.519ZM564.654 175.633C548.971 181.564 539.12 189.201 532.001 204.929C524.628 221.22 524.106 242.002 530.485 258.695C535.379 271.505 544.271 283.358 557.063 289.039C563.294 291.806 578.002 293.947 584.415 291.642C584.868 291.479 584.838 291.481 585.189 291.281C596.284 290.061 605.898 283.271 612.724 274.705C624.042 260.503 626.586 241.566 624.537 223.943C622.74 208.494 617.185 195.212 604.722 185.332C592.49 175.634 580.181 173.739 564.895 175.602L564.654 175.633Z"/>
	<path fill="#F4F0E0" transform="scale(5.83778 5.83778)" d="M535.43 313.445C551.899 322.356 571.822 325.97 590.022 320.552C599.938 317.6 617.931 308.023 622.657 298.439C622.92 297.906 623.032 297.322 623.075 296.734C626.234 301.445 623.954 309.03 629.253 316.48L628.841 317.065C623.129 311.852 622.487 305.504 621.054 304.025C613.391 313.601 600.338 319.998 588.612 322.738C569.616 327.175 550.142 324.549 533.519 314.211L535.43 313.445Z"/>
	<path fill="#F4F0E0" transform="scale(5.83778 5.83778)" d="M494.213 229.519C494.019 225.291 493.716 220.981 493.948 216.753C495.051 196.618 509.189 172.864 523.932 159.71C539.532 145.792 556.418 141.699 576.777 142.845C589.84 143.58 598.383 146.556 609.671 153.124C613.461 155.329 617.709 157.852 620.645 161.141C622.084 159.588 622.597 156.706 623.739 154.792C624.833 152.957 626.512 151.382 627.92 149.776L628.281 150.764C627.198 152.71 625.739 154.967 625.189 157.124C624.261 160.773 625.499 165.248 623.414 168.513C622.224 163.612 611.761 157.137 607.648 154.637Q606.146 153.74 604.603 152.918Q603.059 152.096 601.477 151.35Q599.895 150.604 598.279 149.937Q596.662 149.27 595.015 148.682Q593.368 148.095 591.694 147.589Q590.02 147.083 588.323 146.659Q586.626 146.235 584.911 145.895Q583.195 145.555 581.465 145.3Q579.735 145.044 577.995 144.874Q576.254 144.703 574.508 144.618Q572.761 144.532 571.012 144.533Q569.263 144.533 567.517 144.619Q565.77 144.705 564.03 144.876Q562.289 145.048 560.559 145.304Q558.829 145.56 557.114 145.901Q555.399 146.242 553.702 146.666C534.466 151.469 519.209 163.972 509.106 180.879C499.683 196.65 496.673 212.565 495.361 230.62L494.213 229.519Z"/>
	<path transform="scale(5.83778 5.83778)" d="M684.236 88.6911C685.526 83.7387 686.822 81.019 691.45 78.3127C695.194 76.1229 699.8 75.6291 703.966 76.7497C709.038 78.1136 715.871 83.5313 718.143 88.4926C718.304 88.8433 718.288 88.9532 718.314 89.2913C719.973 93.0392 720.018 159.626 718.518 163.675C718.33 164.182 718.095 164.645 717.834 165.118L718.277 164.863C724.082 161.456 728.795 156.149 734.381 152.354C748.917 142.479 770.897 140.006 787.734 144.238C806.125 148.859 824.15 164.024 833.724 180.127C844.214 197.77 847.416 217.359 847.247 237.573C847.215 241.444 847.637 245.877 846.63 249.648C846.293 250.912 845.712 252.001 844.804 252.947C847.347 261.545 839.716 276.074 835.589 283.666C826.048 301.219 811.146 315.725 791.681 321.461C774.593 326.497 752.218 325.459 736.501 316.772C733.026 314.852 722.309 306.374 719.625 306.246C719.603 306.338 719.583 306.431 719.559 306.523C718.09 312.325 714.264 318.784 708.963 321.793C706.549 323.163 704.118 323.34 701.463 322.679C697.878 323.005 692.683 323.058 689.53 321.174C684.306 318.052 684.395 309.312 683.088 304.028C684.759 300.4 682.585 272.685 682.444 266.569C681.545 227.508 682.044 188.237 682.274 149.163C682.321 141.147 684.279 101.588 683.119 98.3136C684.149 95.5406 684.221 91.6382 684.236 88.6911ZM758.768 175.021C745.972 176.802 735.326 183.063 727.511 193.382C718.227 205.641 715.931 218.053 715.834 233.009C715.803 237.755 715.69 242.603 716.358 247.309C718.379 261.546 726.286 275.651 737.866 284.274C748.521 292.206 757.921 292.049 770.606 292.195C781.154 291.846 791.249 286.008 798.355 278.464C810.238 265.848 815.284 247.321 814.678 230.304C814.108 214.307 807.747 197.888 795.881 186.894C784.683 176.519 773.368 175.04 758.768 175.021Z"/>
	<path fill="#F4F0E0" transform="scale(5.83778 5.83778)" d="M844.026 252.948L844.804 252.947C847.347 261.545 839.716 276.074 835.589 283.666C826.048 301.219 811.146 315.725 791.681 321.461C774.593 326.497 752.218 325.459 736.501 316.772C733.026 314.852 722.309 306.374 719.625 306.246C719.603 306.338 719.583 306.431 719.559 306.523C718.09 312.325 714.264 318.784 708.963 321.793C706.549 323.163 704.118 323.34 701.463 322.679Q703.492 322.002 705.489 321.235Q706.279 320.923 707.035 320.535Q707.79 320.146 708.504 319.685Q709.217 319.223 709.88 318.693Q710.544 318.162 711.152 317.569Q711.76 316.975 712.305 316.324Q712.851 315.673 713.33 314.971Q713.808 314.268 714.214 313.522Q714.621 312.776 714.951 311.993C716.657 307.944 716.784 301.788 715.111 297.691C717.988 299.167 720.499 302.298 722.948 304.435C732.158 312.471 741.55 318.079 753.487 321.111Q755.108 321.515 756.747 321.84Q758.386 322.165 760.039 322.41Q761.692 322.655 763.355 322.819Q765.018 322.984 766.686 323.067Q768.355 323.15 770.026 323.152Q771.697 323.154 773.366 323.075Q775.035 322.996 776.698 322.835Q778.361 322.675 780.015 322.434Q781.668 322.193 783.308 321.872Q784.948 321.551 786.57 321.15Q788.192 320.75 789.793 320.271Q791.394 319.792 792.969 319.236Q794.545 318.68 796.092 318.048Q797.639 317.416 799.153 316.709Q800.667 316.003 802.145 315.224Q803.623 314.444 805.062 313.594C827.615 299.981 837.903 277.506 844.026 252.948Z"/>
	<path fill="#FCFCE8" transform="scale(5.83778 5.83778)" d="M683.119 98.3136L683.616 98.5566L683.476 99.0153L684.147 100.3L684.244 100.102C685.622 110.818 684.749 122.444 684.745 133.274L684.725 195.64L684.748 265.329C684.75 277.585 685.675 290.573 684.19 302.707L683.343 302.588L683.479 303.703L683.088 304.028C684.759 300.4 682.585 272.685 682.444 266.569C681.545 227.508 682.044 188.237 682.274 149.163C682.321 141.147 684.279 101.588 683.119 98.3136Z"/>
	<path fill="#FCFCE8" transform="scale(5.83778 5.83778)" d="M684.236 88.6911C685.526 83.7387 686.822 81.019 691.45 78.3127C695.194 76.1229 699.8 75.6291 703.966 76.7497C709.038 78.1136 715.871 83.5313 718.143 88.4926C718.304 88.8433 718.288 88.9532 718.314 89.2913C719.973 93.0392 720.018 159.626 718.518 163.675C718.33 164.182 718.095 164.645 717.834 165.118L718.277 164.863C724.082 161.456 728.795 156.149 734.381 152.354C748.917 142.479 770.897 140.006 787.734 144.238C806.125 148.859 824.15 164.024 833.724 180.127C844.214 197.77 847.416 217.359 847.247 237.573C847.215 241.444 847.637 245.877 846.63 249.648C846.293 250.912 845.712 252.001 844.804 252.947L844.026 252.948C846.394 223.897 845.189 198.884 827.19 174.391C815.684 158.734 799.099 148.137 779.797 145.299C761.688 142.636 742.071 147.349 728.226 159.603C723.901 163.431 720.143 168.843 715.54 172.157C715.42 172.244 715.298 172.328 715.176 172.413C715.52 171.8 715.837 171.148 715.964 170.451C717.063 164.392 716.449 99.6822 715.66 92.6842C715.333 89.7794 714.749 87.7324 713.098 85.2854C710.797 81.8738 707.487 79.6835 703.43 78.9556C690.281 76.5961 691.561 83.8774 684.51 88.523C684.42 88.5819 684.327 88.6351 684.236 88.6911Z"/>
	<path fill="#F4F0E0" transform="scale(5.83778 5.83778)" d="M1059.64 83.0024Q1061.89 82.7811 1064.15 82.8131Q1065.73 82.8297 1067.31 82.8859Q1068.89 82.942 1070.47 83.0377Q1072.05 83.1334 1073.63 83.2685Q1075.2 83.4036 1076.77 83.5781Q1078.35 83.7526 1079.91 83.9664Q1081.48 84.1802 1083.04 84.4331Q1084.6 84.686 1086.16 84.9779Q1087.71 85.2697 1089.26 85.6004Q1090.81 85.9311 1092.34 86.3003Q1093.88 86.6696 1095.41 87.0772Q1096.94 87.4848 1098.46 87.9305Q1099.97 88.3762 1101.48 88.8597Q1102.99 89.3433 1104.48 89.8643Q1105.97 90.3853 1107.45 90.9436Q1108.93 91.5018 1110.4 92.0969Q1111.86 92.692 1113.31 93.3235Q1114.76 93.955 1116.2 94.6227Q1117.63 95.2903 1119.05 95.9936Q1120.47 96.6969 1121.86 97.4353Q1123.26 98.1738 1124.64 98.9471Q1126.02 99.7203 1127.38 100.528Q1128.74 101.335 1130.08 102.177Q1131.42 103.018 1132.74 103.893Q1134.06 104.767 1135.35 105.674Q1136.65 106.581 1137.92 107.521Q1139.19 108.46 1140.44 109.431Q1141.69 110.402 1142.92 111.404Q1144.14 112.406 1145.34 113.438Q1146.54 114.47 1147.71 115.532Q1148.88 116.594 1150.03 117.684Q1151.17 118.775 1152.29 119.894Q1153.41 121.013 1154.5 122.16C1178.68 147.241 1194.2 183.067 1193.47 218.181Q1193.42 219.878 1193.34 221.573Q1193.25 223.269 1193.12 224.962Q1193 226.654 1192.83 228.343Q1192.66 230.033 1192.45 231.717Q1192.24 233.402 1191.99 235.081Q1191.74 236.76 1191.45 238.432Q1191.16 240.105 1190.83 241.77Q1190.49 243.435 1190.12 245.091Q1189.75 246.748 1189.34 248.395Q1188.93 250.042 1188.48 251.678Q1188.03 253.315 1187.54 254.94Q1187.05 256.565 1186.52 258.178Q1185.99 259.791 1185.42 261.39Q1184.85 262.99 1184.24 264.575Q1183.63 266.16 1182.99 267.73Q1182.34 269.3 1181.66 270.855Q1180.98 272.409 1180.26 273.946Q1179.54 275.483 1178.78 277.002Q1178.02 278.521 1177.23 280.021Q1176.43 281.522 1175.6 283.002Q1174.77 284.483 1173.91 285.943Q1173.04 287.404 1172.14 288.842Q1171.24 290.281 1170.31 291.698Q1169.37 293.114 1168.4 294.508Q1167.43 295.901 1166.43 297.271Q1165.43 298.641 1164.39 299.986Q1163.36 301.331 1162.29 302.65Q1161.22 303.97 1160.12 305.263Q1159.02 306.556 1157.89 307.822Q1156.76 309.089 1155.6 310.327Q1154.44 311.566 1153.25 312.776Q1152.06 313.986 1150.84 315.167C1129.04 335.901 1097.63 350.549 1067.1 349.81C1037.02 349.749 1009.85 341.943 985.914 323.22Q984.621 322.208 983.354 321.164Q982.086 320.12 980.845 319.045Q979.604 317.97 978.39 316.864Q977.175 315.759 975.989 314.623Q974.802 313.488 973.644 312.324Q972.486 311.16 971.357 309.967Q970.228 308.775 969.129 307.554Q968.03 306.334 966.962 305.087Q965.893 303.84 964.856 302.567Q963.819 301.294 962.813 299.996Q961.808 298.698 960.835 297.375Q959.862 296.052 958.922 294.705Q957.982 293.359 957.075 291.99Q956.169 290.62 955.297 289.229Q954.424 287.837 953.587 286.425Q952.749 285.012 951.947 283.579Q951.145 282.146 950.378 280.694Q949.612 279.242 948.881 277.771Q948.151 276.3 947.457 274.812Q946.763 273.323 946.106 271.818Q945.45 270.313 944.83 268.792Q944.211 267.271 943.63 265.735Q943.048 264.199 942.505 262.649Q941.961 261.099 941.457 259.536Q940.952 257.974 940.486 256.399Q940.02 254.824 939.593 253.238Q939.167 251.652 938.779 250.056Q938.392 248.46 938.044 246.855Q937.696 245.25 937.388 243.637Q937.08 242.024 936.812 240.404Q936.544 238.783 936.316 237.157Q936.088 235.531 935.901 233.899C931.495 197.15 940.534 162.268 963.461 133.085C981.846 109.684 1006.85 93.083 1035.96 86.4666C1043.78 84.6885 1051.69 83.9677 1059.64 83.0024ZM1053.67 86.1109C1044.82 87.5093 1035.88 88.7173 1027.27 91.2615C1001.04 99.0113 977.77 116.743 961.832 138.755Q960.888 140.079 959.977 141.425Q959.065 142.771 958.187 144.138Q957.308 145.506 956.463 146.895Q955.618 148.284 954.807 149.692Q953.995 151.101 953.219 152.529Q952.442 153.957 951.7 155.404Q950.958 156.85 950.251 158.314Q949.545 159.778 948.874 161.259Q948.203 162.74 947.568 164.236Q946.933 165.733 946.335 167.245Q945.737 168.756 945.175 170.282Q944.614 171.808 944.09 173.346Q943.565 174.885 943.079 176.436Q942.592 177.988 942.143 179.55Q941.694 181.112 941.283 182.685Q940.872 184.258 940.499 185.841Q940.126 187.423 939.792 189.014Q939.458 190.605 939.162 192.204Q938.867 193.802 938.61 195.408Q938.354 197.013 938.136 198.624Q937.918 200.235 937.74 201.851Q937.561 203.467 937.422 205.087Q937.283 206.707 937.183 208.329Q937.083 209.952 937.022 211.577Q936.962 213.201 936.941 214.827Q936.92 216.452 936.938 218.078Q936.956 219.704 937.014 221.328Q937.072 222.953 937.169 224.576Q937.266 226.199 937.402 227.819Q937.539 229.439 937.715 231.055Q937.89 232.671 938.105 234.283Q938.32 235.894 938.574 237.5C944.29 272.735 962.186 303.596 991.435 324.549C1011.95 339.246 1045.87 351.121 1071.45 347.544C1103.98 345.882 1134.89 330.227 1156.58 306.173Q1157.67 304.95 1158.74 303.7Q1159.8 302.45 1160.83 301.175Q1161.86 299.899 1162.86 298.599Q1163.86 297.298 1164.83 295.973Q1165.8 294.648 1166.73 293.3Q1167.67 291.952 1168.57 290.581Q1169.47 289.21 1170.34 287.817Q1171.21 286.425 1172.04 285.011Q1172.87 283.598 1173.67 282.164Q1174.47 280.73 1175.23 279.277Q1175.99 277.824 1176.72 276.353Q1177.45 274.882 1178.14 273.393Q1178.83 271.905 1179.48 270.399Q1180.13 268.894 1180.75 267.373Q1181.36 265.853 1181.94 264.317Q1182.52 262.781 1183.06 261.232Q1183.6 259.683 1184.1 258.121Q1184.61 256.559 1185.07 254.985Q1185.53 253.411 1185.96 251.826Q1186.38 250.241 1186.77 248.646Q1187.15 247.051 1187.5 245.447Q1187.84 243.843 1188.15 242.231Q1188.46 240.619 1188.72 239Q1188.99 237.381 1189.22 235.756Q1189.44 234.131 1189.63 232.501Q1189.82 230.87 1189.96 229.236Q1190.11 227.602 1190.22 225.964Q1190.32 224.327 1190.39 222.687Q1190.45 221.048 1190.48 219.407Q1190.51 217.767 1190.49 216.126Q1190.48 214.485 1190.42 212.845Q1190.37 211.205 1190.27 209.567Q1190.19 207.92 1190.07 206.275Q1189.96 204.63 1189.8 202.989Q1189.64 201.348 1189.44 199.711Q1189.24 198.074 1189 196.443Q1188.75 194.812 1188.47 193.187Q1188.19 191.562 1187.87 189.945Q1187.54 188.328 1187.18 186.72Q1186.82 185.111 1186.41 183.512Q1186.01 181.913 1185.57 180.325Q1185.13 178.736 1184.64 177.16Q1184.16 175.583 1183.64 174.019Q1183.12 172.455 1182.56 170.904Q1181.99 169.353 1181.39 167.817Q1180.79 166.281 1180.16 164.761Q1179.52 163.24 1178.84 161.736Q1178.17 160.232 1177.45 158.745Q1176.74 157.259 1175.99 155.79Q1175.24 154.322 1174.45 152.873Q1173.67 151.423 1172.84 149.994Q1172.02 148.565 1171.16 147.158Q1170.31 145.75 1169.41 144.364Q1168.52 142.978 1167.59 141.614Q1166.66 140.251 1165.7 138.911Q1164.74 137.572 1163.75 136.257Q1162.75 134.942 1161.72 133.652Q1160.7 132.362 1159.64 131.099Q1158.58 129.835 1157.49 128.598Q1156.4 127.362 1155.28 126.153Q1154.16 124.944 1153.01 123.763Q1151.85 122.582 1150.67 121.431Q1149.49 120.28 1148.28 119.158Q1147.08 118.037 1145.84 116.946Q1144.69 115.939 1143.52 114.961Q1142.35 113.983 1141.15 113.033Q1139.95 112.083 1138.73 111.163Q1137.52 110.242 1136.28 109.352Q1135.03 108.461 1133.77 107.601Q1132.51 106.74 1131.23 105.911Q1129.95 105.082 1128.64 104.284Q1127.34 103.486 1126.02 102.719Q1124.7 101.953 1123.36 101.219Q1122.02 100.485 1120.66 99.7837Q1119.31 99.0824 1117.93 98.4142Q1116.56 97.746 1115.17 97.1113Q1113.78 96.4766 1112.38 95.8757Q1110.97 95.2749 1109.56 94.7083Q1108.14 94.1416 1106.71 93.6096Q1105.28 93.0775 1103.83 92.5803Q1102.39 92.0831 1100.93 91.6211Q1099.48 91.1591 1098.01 90.7325Q1096.54 90.3058 1095.07 89.9149Q1093.59 89.524 1092.11 89.169Q1090.62 88.814 1089.13 88.4951Q1087.63 88.1762 1086.13 87.8936Q1084.63 87.6111 1083.12 87.365Q1081.62 87.1189 1080.1 86.9094Q1078.59 86.6999 1077.07 86.5271Q1075.56 86.3544 1074.04 86.2185Q1072.52 86.0826 1070.99 85.9836Q1069.47 85.8847 1067.94 85.8227Q1066.42 85.7607 1064.89 85.7357Q1063.36 85.7107 1061.83 85.7228Q1060.31 85.7348 1058.78 85.7839Q1057.25 85.833 1055.73 85.9191Q1054.7 85.9831 1053.67 86.1109Z"/>
	<path transform="scale(5.83778 5.83778)" d="M1053.67 86.1109Q1054.7 85.9831 1055.73 85.9191Q1057.25 85.833 1058.78 85.7839Q1060.31 85.7348 1061.83 85.7228Q1063.36 85.7107 1064.89 85.7357Q1066.42 85.7607 1067.94 85.8227Q1069.47 85.8847 1070.99 85.9836Q1072.52 86.0826 1074.04 86.2185Q1075.56 86.3544 1077.07 86.5271Q1078.59 86.6999 1080.1 86.9094Q1081.62 87.1189 1083.12 87.365Q1084.63 87.6111 1086.13 87.8936Q1087.63 88.1762 1089.13 88.4951Q1090.62 88.814 1092.11 89.169Q1093.59 89.524 1095.07 89.9149Q1096.54 90.3058 1098.01 90.7325Q1099.48 91.1591 1100.93 91.6211Q1102.39 92.0831 1103.83 92.5803Q1105.28 93.0775 1106.71 93.6096Q1108.14 94.1416 1109.56 94.7083Q1110.97 95.2749 1112.38 95.8757Q1113.78 96.4766 1115.17 97.1113Q1116.56 97.746 1117.93 98.4142Q1119.31 99.0824 1120.66 99.7837Q1122.02 100.485 1123.36 101.219Q1124.7 101.953 1126.02 102.719Q1127.34 103.486 1128.64 104.284Q1129.95 105.082 1131.23 105.911Q1132.51 106.74 1133.77 107.601Q1135.03 108.461 1136.28 109.352Q1137.52 110.242 1138.73 111.163Q1139.95 112.083 1141.15 113.033Q1142.35 113.983 1143.52 114.961Q1144.69 115.939 1145.84 116.946Q1147.08 118.037 1148.28 119.158Q1149.49 120.28 1150.67 121.431Q1151.85 122.582 1153.01 123.763Q1154.16 124.944 1155.28 126.153Q1156.4 127.362 1157.49 128.598Q1158.58 129.835 1159.64 131.099Q1160.7 132.362 1161.72 133.652Q1162.75 134.942 1163.75 136.257Q1164.74 137.572 1165.7 138.912Q1166.66 140.251 1167.59 141.614Q1168.52 142.978 1169.41 144.364Q1170.31 145.75 1171.16 147.158Q1172.02 148.565 1172.84 149.994Q1173.67 151.423 1174.45 152.873Q1175.24 154.322 1175.99 155.79Q1176.74 157.259 1177.45 158.745Q1178.17 160.232 1178.84 161.736Q1179.52 163.24 1180.16 164.761Q1180.79 166.281 1181.39 167.817Q1181.99 169.353 1182.56 170.904Q1183.12 172.455 1183.64 174.019Q1184.16 175.583 1184.64 177.16Q1185.13 178.736 1185.57 180.325Q1186.01 181.913 1186.41 183.512Q1186.82 185.111 1187.18 186.72Q1187.54 188.328 1187.87 189.945Q1188.19 191.562 1188.47 193.187Q1188.75 194.812 1189 196.443Q1189.24 198.074 1189.44 199.711Q1189.64 201.348 1189.8 202.989Q1189.96 204.63 1190.07 206.275Q1190.19 207.92 1190.27 209.567Q1190.37 211.205 1190.42 212.845Q1190.48 214.485 1190.49 216.126Q1190.51 217.767 1190.48 219.407Q1190.45 221.048 1190.39 222.687Q1190.32 224.327 1190.22 225.964Q1190.11 227.602 1189.96 229.236Q1189.82 230.87 1189.63 232.501Q1189.44 234.131 1189.22 235.756Q1188.99 237.381 1188.72 239Q1188.46 240.619 1188.15 242.231Q1187.84 243.843 1187.5 245.447Q1187.15 247.051 1186.77 248.646Q1186.38 250.241 1185.96 251.826Q1185.53 253.411 1185.07 254.985Q1184.61 256.559 1184.1 258.121Q1183.6 259.683 1183.06 261.232Q1182.52 262.781 1181.94 264.317Q1181.36 265.853 1180.75 267.373Q1180.13 268.894 1179.48 270.399Q1178.83 271.905 1178.14 273.393Q1177.45 274.882 1176.72 276.353Q1175.99 277.824 1175.23 279.277Q1174.47 280.73 1173.67 282.164Q1172.87 283.598 1172.04 285.011Q1171.21 286.425 1170.34 287.817Q1169.47 289.21 1168.57 290.581Q1167.67 291.952 1166.73 293.3Q1165.8 294.648 1164.83 295.973Q1163.86 297.298 1162.86 298.599Q1161.86 299.899 1160.83 301.175Q1159.8 302.45 1158.74 303.7Q1157.67 304.95 1156.58 306.173C1134.89 330.227 1103.98 345.882 1071.45 347.544C1045.87 351.121 1011.95 339.246 991.435 324.549C962.186 303.596 944.29 272.735 938.574 237.5Q938.32 235.894 938.105 234.283Q937.89 232.671 937.715 231.055Q937.539 229.439 937.402 227.819Q937.266 226.199 937.169 224.576Q937.072 222.953 937.014 221.328Q936.956 219.704 936.938 218.078Q936.92 216.452 936.941 214.827Q936.962 213.201 937.022 211.577Q937.083 209.952 937.183 208.329Q937.283 206.707 937.422 205.087Q937.561 203.467 937.74 201.851Q937.918 200.235 938.136 198.624Q938.354 197.013 938.61 195.408Q938.867 193.802 939.162 192.204Q939.458 190.605 939.792 189.014Q940.126 187.423 940.499 185.841Q940.872 184.258 941.283 182.685Q941.694 181.112 942.143 179.55Q942.592 177.988 943.079 176.436Q943.565 174.885 944.09 173.346Q944.614 171.808 945.175 170.282Q945.737 168.756 946.335 167.245Q946.933 165.733 947.568 164.236Q948.203 162.74 948.874 161.259Q949.545 159.778 950.251 158.314Q950.958 156.85 951.7 155.404Q952.442 153.957 953.219 152.529Q953.995 151.101 954.807 149.692Q955.618 148.284 956.463 146.895Q957.308 145.506 958.187 144.138Q959.065 142.771 959.977 141.425Q960.888 140.079 961.832 138.755C977.77 116.743 1001.04 99.0113 1027.27 91.2615C1035.88 88.7173 1044.82 87.5093 1053.67 86.1109ZM1051.98 92.3285C1016.41 98.1314 988.645 112.248 967.144 142.114Q966.224 143.39 965.336 144.688Q964.447 145.986 963.591 147.305Q962.734 148.624 961.91 149.964Q961.086 151.304 960.295 152.663Q959.505 154.023 958.747 155.401Q957.99 156.779 957.266 158.176Q956.542 159.573 955.853 160.986Q955.164 162.4 954.509 163.83Q953.854 165.261 953.235 166.706Q952.616 168.152 952.032 169.613Q951.448 171.073 950.9 172.548Q950.352 174.022 949.84 175.509Q949.328 176.997 948.853 178.496Q948.377 179.995 947.939 181.506Q947.5 183.016 947.098 184.537Q946.697 186.058 946.333 187.588Q945.968 189.118 945.641 190.657Q945.315 192.196 945.025 193.742Q944.736 195.288 944.485 196.841Q944.234 198.393 944.02 199.952Q943.807 201.51 943.632 203.073Q943.457 204.637 943.32 206.204Q943.183 207.771 943.085 209.341Q942.986 210.91 942.926 212.482Q942.866 214.054 942.844 215.627Q942.822 217.2 942.839 218.773Q942.855 220.345 942.911 221.917Q942.966 223.489 943.059 225.06Q943.153 226.63 943.284 228.197Q943.416 229.765 943.586 231.328Q943.756 232.892 943.965 234.451Q944.173 236.01 944.419 237.564Q944.674 239.11 944.967 240.649Q945.26 242.188 945.591 243.719Q945.922 245.25 946.291 246.773Q946.66 248.295 947.067 249.808Q947.473 251.321 947.917 252.823Q948.36 254.326 948.841 255.817Q949.322 257.308 949.839 258.787Q950.356 260.265 950.91 261.731Q951.464 263.196 952.054 264.647Q952.644 266.099 953.269 267.535Q953.895 268.971 954.556 270.391Q955.217 271.812 955.913 273.215Q956.608 274.619 957.339 276.005Q958.069 277.391 958.833 278.758Q959.598 280.125 960.396 281.473Q961.194 282.821 962.025 284.149Q962.856 285.477 963.719 286.784Q964.583 288.091 965.479 289.376Q966.374 290.661 967.302 291.924Q968.229 293.187 969.187 294.426Q970.145 295.665 971.133 296.88Q972.122 298.096 973.14 299.286Q974.158 300.476 975.206 301.641Q976.253 302.806 977.329 303.945Q978.405 305.083 979.508 306.195Q980.612 307.306 981.743 308.39Q982.873 309.474 984.031 310.53Q985.188 311.586 986.371 312.612Q987.554 313.639 988.762 314.636Q989.97 315.633 991.202 316.6Q992.435 317.567 993.69 318.503Q994.946 319.439 996.225 320.344C1019.12 336.612 1044.92 342.581 1072.7 340.744C1099.3 341.587 1127.47 326.12 1146.34 308.401C1168.8 287.315 1183.05 256.09 1184 225.31C1185.18 187.419 1176.28 157.161 1149.64 129.012C1127.17 105.262 1096.25 92.7401 1063.81 91.9655C1059.92 91.8726 1055.85 91.8721 1051.98 92.3285Z"/>
	<path transform="scale(5.83778 5.83778)" d="M1055.55 133.985C1058.11 133.814 1060.7 133.771 1063.26 133.715C1084.44 133.254 1103.71 141.001 1118.95 155.656C1135.28 171.357 1144.64 191.499 1145 214.274C1145.36 237.182 1138.09 258.69 1121.92 275.243C1109.2 288.254 1090.07 299.458 1071.45 299.697C1051.56 301.814 1031.69 295.304 1015.98 283.168Q1015.18 282.542 1014.39 281.897Q1013.6 281.251 1012.83 280.586Q1012.06 279.922 1011.31 279.238Q1010.55 278.555 1009.82 277.853Q1009.08 277.151 1008.36 276.431Q1007.64 275.711 1006.94 274.974Q1006.23 274.237 1005.55 273.482Q1004.87 272.728 1004.2 271.957Q1003.54 271.186 1002.89 270.399Q1002.25 269.611 1001.62 268.809Q1001 268.006 1000.39 267.188Q999.784 266.37 999.198 265.537Q998.612 264.704 998.047 263.857Q997.483 263.01 996.939 262.15Q996.395 261.289 995.872 260.416Q995.35 259.542 994.849 258.656Q994.348 257.769 993.869 256.871Q993.39 255.973 992.934 255.063Q992.477 254.153 992.043 253.232Q991.609 252.311 991.198 251.38Q990.786 250.448 990.398 249.507Q990.01 248.566 989.645 247.616Q989.28 246.665 988.939 245.706Q988.598 244.747 988.28 243.78Q987.962 242.812 987.669 241.838Q987.375 240.863 987.105 239.881Q986.836 238.899 986.59 237.911Q986.345 236.923 986.124 235.929Q985.903 234.936 985.707 233.937Q985.51 232.938 985.339 231.934Q985.167 230.931 985.02 229.923Q984.873 228.916 984.751 227.905C981.946 205.567 987.481 182.99 1001.42 165.168C1014.99 147.814 1033.66 136.699 1055.55 133.985ZM1059.45 155.747C1053.4 156.998 1046.63 157.933 1040.85 160.027C1030.53 163.763 1020.78 173.897 1014.85 182.88C1005.09 197.645 1004.68 216.762 1008.19 233.657C1011.2 248.139 1019.92 260.057 1032.26 268.102C1040.81 273.672 1056.86 280.277 1067.28 278.256C1067.53 278.207 1067.78 278.145 1068.02 278.081C1082.35 276.454 1098.95 270.138 1108.13 258.525C1121.98 241.024 1125.61 228.135 1122.79 205.407C1120.9 190.109 1111.5 176.729 1099.51 167.43C1088.65 159.007 1073.19 154.42 1059.45 155.747Z"/>
	<path transform="scale(5.83778 5.83778)" d="M1091.53 186.212C1092.6 185.89 1093.37 185.678 1094.49 185.827C1093.85 190.383 1077.49 224.882 1074.46 227.719C1071.34 230.44 1040.38 245.884 1035.68 247.436L1034.72 247.771C1034.51 244.35 1040.01 235.372 1041.61 232.034C1045.31 224.331 1048.85 214.437 1054.21 207.883C1062.12 198.219 1086.29 192.497 1091.53 186.212Z"/>
	<path fill="#FCFCE8" transform="scale(5.83778 5.83778)" d="M1060.83 206.729C1063.61 206.307 1066.05 205.96 1068.65 207.26Q1069.16 207.516 1069.63 207.822Q1070.11 208.129 1070.55 208.481Q1071 208.834 1071.4 209.229Q1071.81 209.625 1072.17 210.059Q1072.54 210.493 1072.85 210.962Q1073.17 211.431 1073.44 211.93Q1073.71 212.428 1073.93 212.951Q1074.15 213.475 1074.31 214.017C1075.11 216.725 1074.86 219.568 1073.42 222.015C1071.88 224.623 1069.61 226.077 1066.73 226.819C1065.55 227.184 1064.49 227.175 1063.28 227.032C1060.64 226.718 1058.04 225.692 1056.41 223.508C1054.6 221.091 1054.45 217.714 1054.91 214.846C1055.53 210.926 1057.81 208.951 1060.83 206.729Z"/>
	<path transform="scale(5.83778 5.83778)" d="M14.2825 399.294C33.7719 397.194 53.9611 398.117 73.5657 398.051L172.667 397.637L521.584 396.583L1026.62 397.159L1179.56 397.913L1232.44 398.105C1241.98 398.142 1251.67 397.852 1261.2 398.361C1263.02 398.458 1264.75 398.354 1266 399.749C1264.05 404.725 1265.41 512.411 1265.38 528.001C1261.28 530.243 118.953 529.863 14.73 528.98C13.3124 513.818 14.1951 498.001 13.9993 482.753C13.6436 455.05 12.7371 426.969 14.2825 399.294Z"/>
	<path fill="#FCFCE8" transform="scale(5.83778 5.83778)" d="M160.046 422.638C160.58 422.658 161.113 422.694 161.637 422.805C163.178 423.13 164.672 424.152 165.523 425.474C166.398 426.834 166.402 428.328 166.058 429.852C165.484 432.397 163.987 433.375 161.885 434.746C160.226 434.435 158.421 433.696 157.29 432.415C156.29 431.281 155.876 429.918 156.038 428.416C156.337 425.643 157.945 424.258 160.046 422.638Z"/>
	<path fill="#FCFCE8" transform="scale(5.83778 5.83778)" d="M1228.12 481.54C1229.65 481.197 1230.92 480.92 1232.39 481.641C1233.85 482.36 1234.79 483.597 1235.28 485.126C1235.84 486.906 1235.52 488.992 1234.58 490.588C1233.45 492.484 1232.25 492.717 1230.26 493.209C1230.19 493.231 1230.13 493.26 1230.05 493.274C1228.74 493.526 1227.2 492.925 1226.18 492.155C1225.59 491.706 1225.13 490.403 1225.04 489.651C1224.62 486.145 1225.95 484.144 1228.12 481.54Z"/>
	<path fill="#FCFCE8" transform="scale(5.83778 5.83778)" d="M321.405 458.034C332.012 457.966 343.691 456.986 354.17 458.423L354.149 464.747C343.438 464.572 332.529 465.65 321.857 464.788C321.045 462.945 321.408 460.056 321.405 458.034Z"/>
	<path fill="#FCFCE8" transform="scale(5.83778 5.83778)" d="M163.239 443.941L164.699 443.947C167.51 446.897 164.17 480 165.671 486.585C166.8 488.178 169.181 488.517 170.978 489.012L171.495 490.071L170.592 491.779C165.395 492.517 159.867 492.153 154.619 492.137L152.349 492.078L151.479 491.024C152.259 489.391 154.719 488.03 156.201 487.012C158.32 481.688 157.499 459.094 157.668 451.95C156.237 450.539 154.354 450.459 152.422 450.014C151.529 449.136 151.719 448.452 151.65 447.264C152.527 446.034 160.876 444.801 163.239 443.941Z"/>
	<path fill="#FCFCE8" transform="scale(5.83778 5.83778)" d="M1011.03 443.614C1013.52 443.158 1015.72 443.021 1018.12 443.947C1019.92 444.641 1021.47 445.515 1022.3 447.325C1022.37 448.718 1022.23 449.682 1021.44 450.864C1020.34 452.516 1019.07 453.848 1017.08 454.286C1014.56 453.245 1013.5 450.978 1012.07 448.72C1011.8 448.666 1011.66 448.632 1011.38 448.607C1006.9 448.216 1002.6 455.474 999.372 458.028C1002.56 463.729 997.844 481.433 1000.55 486.391C1001.76 488.603 1004.55 488.135 1006.07 489.99L1005.28 491.667C1001.43 492.533 997.079 492.155 993.133 492.118C991.138 492.19 988.571 492.587 986.76 491.678L986.529 490.543C987.184 488.617 988.888 488.39 990.615 487.416C992.764 483.588 992.189 456.672 991.806 450.806C990.045 449.405 987.759 450.748 985.781 449.398L985.779 447.647C985.887 447.467 986.344 446.56 986.469 446.496C988.776 445.302 993.408 446.02 998.31 443.153C998.887 443.931 999.281 444.75 999.579 445.668C1000.35 448.047 999.938 449.955 998.845 452.134C1003.25 449.604 1006.19 445.861 1011.03 443.614Z"/>
	<path fill="#FCFCE8" transform="scale(5.83778 5.83778)" d="M251.991 443.4C253.432 443.266 255.068 443.041 256.496 443.325C258.976 443.818 260.846 445.797 262.18 447.816C262.396 449.34 262.578 449.958 261.622 451.252C260.731 452.458 259.039 453.429 257.563 453.603C255.423 453.856 253.887 450.982 252.393 449.866C251.294 449.046 250.226 448.687 248.856 449.041C245.724 449.849 242.116 455.414 240.374 458.024C240.141 464.492 239.307 481.214 240.547 486.78C240.886 488.303 244.58 487.949 246.058 488.834C246.228 490.228 246.146 490.391 245.499 491.649C241.64 492.57 237.157 492.149 233.193 492.121C231.044 492.17 228.512 492.472 226.574 491.423C226.558 490.055 229.362 487.951 230.295 486.692C231.03 485.702 231.641 484.733 231.84 483.495C232.657 478.387 232.492 456.393 231.674 451.192C230.703 450.028 229.737 450.456 228.331 450.257C226.794 450.041 226.486 449.832 225.613 448.632L225.95 447.369C226.355 446.975 226.843 446.581 227.397 446.423C228.624 446.074 237.219 443.997 238.133 444.061C238.414 444.081 239.184 444.593 239.477 444.741C240.581 446.783 240.169 449.474 240.088 451.731C243.835 447.865 246.911 445.334 251.991 443.4Z"/>
	<path fill="#FCFCE8" transform="scale(5.83778 5.83778)" d="M1135.52 420.609C1136.52 420.502 1137.19 420.466 1138.15 420.789C1139.64 424.041 1139.17 464.85 1139.07 472.462C1139.02 475.937 1137.92 482.59 1139.11 485.759C1139.96 488.044 1142.19 488.785 1144.24 489.738L1144.01 491.326C1141.87 493.211 1130.4 492.186 1126.91 492.171C1126.29 492.156 1125.95 491.873 1125.43 491.561L1125.44 490.147C1126.37 489.461 1127.4 488.722 1128.12 487.808C1129.39 486.201 1130.31 483.089 1130.53 481.062C1131.17 475.115 1130.48 468.282 1130.49 462.225C1130.52 450.686 1131.39 438.405 1130.22 426.953C1128.87 426.975 1127.25 427.136 1125.95 426.793C1124.72 426.471 1124.69 426.363 1124.08 425.334C1124.16 425.072 1124.53 423.582 1124.67 423.456C1125.48 422.714 1133.03 422.153 1135.21 420.812C1135.31 420.747 1135.42 420.677 1135.52 420.609Z"/>
	<path fill="#FCFCE8" transform="scale(5.83778 5.83778)" d="M197.576 443.432Q197.941 443.383 198.307 443.35C203.878 442.84 210.787 443.528 215.19 447.248Q215.57 447.564 215.916 447.917Q216.261 448.27 216.569 448.657Q216.876 449.044 217.142 449.46Q217.409 449.877 217.631 450.318Q217.853 450.76 218.028 451.221Q218.204 451.683 218.331 452.161Q218.459 452.638 218.536 453.126Q218.614 453.615 218.641 454.108C218.743 456.049 218.185 457.445 216.945 458.863C215.233 459.583 214.079 459.695 212.232 459.552C208.134 456.798 212.395 452.991 210.209 450.247C208.433 448.017 206.231 446.411 203.309 446.168C199.762 445.873 196.182 447.671 193.593 449.973C189.195 453.883 187.33 459.846 187.063 465.576C186.746 472.392 188.779 479.648 193.572 484.698C196.737 488.033 200.474 488.233 204.773 488.322C210.149 487.462 212.975 484.153 217.293 481.382L218.201 481.658C218.26 482.672 218.032 483.407 217.551 484.285C215.213 488.554 210.639 491.541 206.028 492.824Q205.495 492.972 204.955 493.093Q204.415 493.214 203.87 493.308Q203.325 493.402 202.776 493.468Q202.226 493.535 201.674 493.574Q201.123 493.613 200.57 493.624Q200.016 493.636 199.463 493.619Q198.91 493.603 198.359 493.559Q197.807 493.516 197.259 493.444Q196.71 493.373 196.166 493.274Q195.621 493.176 195.083 493.05Q194.544 492.925 194.012 492.772Q193.48 492.62 192.957 492.441Q192.433 492.262 191.919 492.058Q191.405 491.853 190.902 491.623Q190.399 491.393 189.908 491.138Q189.417 490.883 188.939 490.604C183.686 487.59 180.063 482.815 178.528 476.954C176.63 469.706 177.676 461.476 181.481 455.012C185.255 448.599 190.444 445.247 197.576 443.432Z"/>
	<path fill="#FCFCE8" transform="scale(5.83778 5.83778)" d="M585.363 443.61C591.512 442.842 599.001 443.049 604.122 447.009C606.127 448.559 607.562 450.783 607.824 453.342C607.986 454.921 607.708 456.997 606.607 458.224C605.734 459.197 604.664 459.931 603.282 459.836C601.723 459.728 600.69 458.905 599.605 457.887C598.56 455.998 599.667 454.095 599.812 452.115C599.898 450.935 599.421 450.066 598.629 449.252C596.865 447.443 593.133 446.376 590.655 446.392C587.387 446.414 584.336 448.065 582.073 450.342C577.88 454.561 576.049 460.872 576.132 466.722C576.221 472.981 578.01 480.279 582.69 484.705C585.794 487.641 588.673 488.25 592.833 488.178C600.043 487.943 604.23 481.327 607.306 481.247C607.56 482.422 607.549 482.764 607.069 483.886C605.42 487.743 601.24 490.613 597.446 492.068C591.848 494.215 585.406 493.884 579.971 491.413C574.432 488.893 570.169 484.683 568.088 478.898C565.599 471.982 566.233 464.015 569.404 457.433C572.864 450.255 577.899 446.213 585.363 443.61Z"/>
	<path fill="#FCFCE8" transform="scale(5.83778 5.83778)" d="M972.945 443.118C972.999 443.216 973.051 443.315 973.106 443.411C973.402 443.922 973.721 444.463 973.866 445.042C974.81 448.813 974.875 462.269 972.935 465.375C972.987 465.479 973.037 465.584 973.09 465.686C973.276 466.041 973.461 466.392 973.608 466.766C975.074 470.501 974.588 484.131 973.054 487.995Q975.577 488.079 978.101 488.116C979.371 488.868 979.803 488.929 980.293 490.384C979.527 491.324 978.71 491.606 977.566 491.883C975.171 492.464 969.883 493.124 967.787 491.685C966.558 490.841 966.626 489.961 966.329 488.607C966.223 488.526 965.43 487.883 965.388 487.886C961.935 488.129 956.877 493.992 948.538 493.651C928.939 492.848 940.588 460.041 935.654 451.361C934.448 449.24 931.504 450.374 929.711 448.431C930.589 444.915 937.131 446.608 940.052 444.444C940.142 444.377 940.228 444.305 940.316 444.235C941.275 444.054 942.274 444.058 943.249 444.018C946.864 448.84 941.181 475.563 946.397 484.091C947.684 486.196 949.655 487.509 952.036 488.081C955.032 488.8 958.289 488.145 960.851 486.458C962.568 485.327 964.506 483.487 964.94 481.412C967.03 478.391 966.112 455.788 965.758 450.969C964.291 449.537 962.31 450.693 960.298 449.979C959.734 448.513 959.768 448.276 960.093 446.728C964.613 445.94 968.861 445.364 972.945 443.118Z"/>
	<path fill="#FCFCE8" transform="scale(5.83778 5.83778)" d="M536.312 443.382C537.851 443.204 539.359 443.155 540.908 443.234C564.711 444.443 549.453 479.884 556.88 488.011C558.008 488.156 559.041 488.143 559.884 488.987L559.687 491.273C556.242 493.94 546.236 492.072 541.88 491.58C541.471 490.518 541.581 490.344 541.828 489.275Q542.536 488.996 543.234 488.692C544.555 488.109 545.528 487.65 546.037 486.237C548.232 480.148 547.676 459.35 544.893 453.687C543.691 451.244 541.808 449.302 539.165 448.483C535.31 447.288 531.352 449.064 527.98 450.832C527.353 451.349 526.658 451.904 526.155 452.548C524.479 454.697 524.398 483.187 525.013 486.954C526.533 488.615 527.702 487.871 529.785 488.412C530.272 489.746 530.373 489.851 529.938 491.184C529.035 491.74 528.139 492.003 527.096 492.13C524.115 492.494 513.778 493.025 511.658 491.392C511.953 488.639 515.855 487.074 516.374 483.934C516.864 480.974 517.279 453.352 516.445 451.646C515.362 449.429 511.421 450.465 509.942 448.333C510.34 447.53 510.366 447.054 511.227 446.73C514.164 445.623 520.578 443.484 523.468 444.771C524.233 445.724 524.632 446.487 524.968 447.667C525.001 447.784 525.031 447.901 525.063 448.017C528.602 447.512 532.445 444.335 536.312 443.382Z"/>
	<path fill="#FCFCE8" transform="scale(5.83778 5.83778)" d="M778.059 444.235C783.458 443.646 789.13 443.226 793.935 446.321C795.868 447.567 797.378 449.358 797.84 451.653C798.397 454.421 797.214 457.456 795.637 459.687C789.83 467.905 778.2 469.076 769.103 470.722C771.393 473.965 771.381 479.94 773.346 483.826C774.342 485.795 775.745 487.588 777.931 488.265C780.941 489.197 784.42 487.714 787.008 486.258C789.934 484.612 793.092 481.792 794.004 478.462C794.591 477.964 795.069 477.612 795.816 477.382C796.634 477.13 796.919 477.495 797.649 477.886L797.87 479.455Q797.538 480.399 797.116 481.307Q796.694 482.215 796.187 483.078Q795.679 483.941 795.091 484.751Q794.503 485.561 793.839 486.31Q793.175 487.06 792.443 487.742Q791.71 488.424 790.915 489.031Q790.119 489.639 789.269 490.168Q788.419 490.696 787.522 491.14C783.042 493.393 777.547 493.68 772.804 492.091C769.017 490.823 766.079 488.176 764.345 484.586C760.783 477.21 761.455 466.802 764.216 459.257C766.849 452.063 771.14 447.483 778.059 444.235Z"/>
	<path transform="scale(5.83778 5.83778)" d="M779.372 447.344C781.739 446.868 784.368 446.708 786.568 447.861C787.865 448.54 788.864 449.681 789.276 451.097C789.968 453.482 789.136 455.999 787.933 458.062C785.598 462.069 782.046 463.68 777.727 464.841C775.384 466.172 772.389 466.41 769.757 466.766C773.379 459.11 771.791 453.4 779.372 447.344Z"/>
	<path fill="#FCFCE8" transform="scale(5.83778 5.83778)" d="M1168.82 443.614C1171.96 443.128 1175.6 442.934 1178.71 443.695C1183.36 444.836 1187.81 447.511 1190.29 451.713C1192.34 455.185 1193.27 460.415 1192.21 464.339Q1175.89 464.628 1159.57 464.747C1161.11 467.219 1160.86 470.678 1161.48 473.484C1162.56 478.354 1164.81 484.804 1169.26 487.486C1172.36 489.35 1175.66 488.959 1179.01 488.106C1181.67 487.429 1185.46 486.529 1186.94 484.028C1188.79 482.793 1189.9 481.604 1192.19 481.655L1192.82 482.568C1192.69 483.037 1192.55 483.494 1192.35 483.935C1190.69 487.522 1185.63 490.528 1181.98 491.892C1176.3 494.015 1169.7 494.138 1164.16 491.541Q1163.67 491.311 1163.19 491.057Q1162.7 490.804 1162.24 490.526Q1161.77 490.249 1161.31 489.949Q1160.86 489.649 1160.42 489.327Q1159.98 489.004 1159.56 488.661Q1159.14 488.318 1158.73 487.954Q1158.33 487.59 1157.94 487.207Q1157.56 486.823 1157.19 486.421Q1156.82 486.019 1156.48 485.6Q1156.13 485.18 1155.81 484.744Q1155.48 484.308 1155.18 483.856Q1154.87 483.404 1154.59 482.938Q1154.31 482.472 1154.06 481.993Q1153.8 481.513 1153.56 481.022Q1153.33 480.53 1153.12 480.028Q1152.91 479.525 1152.73 479.013C1150.2 472.002 1150.53 463.147 1153.76 456.414C1156.94 449.77 1161.96 446.002 1168.82 443.614Z"/>
	<path transform="scale(5.83778 5.83778)" d="M1170.14 447.344C1171.39 447.138 1172.69 446.91 1173.96 446.897C1176.44 446.873 1179.02 447.94 1180.73 449.758C1183.34 452.538 1183.93 456.684 1183.88 460.342C1181.11 461.148 1176.38 460.537 1173.39 460.539C1168.77 460.607 1164.15 460.448 1159.54 460.338C1164.45 455.151 1161.88 451.92 1170.14 447.344Z"/>
	<path fill="#FCFCE8" transform="scale(5.83778 5.83778)" d="M480.975 443.422C485.946 442.94 490.536 443.173 494.842 446.002C499.242 448.892 502.41 454.017 503.409 459.156C503.774 461.028 503.635 462.312 502.565 463.856C496.425 465.907 478.476 464.745 471.11 464.766C471.377 470.93 471.967 477.458 475.434 482.753C477.36 485.695 480.196 487.953 483.703 488.594C488.59 489.486 493.505 487.169 497.452 484.506C498.814 483.226 500.086 481.691 502.032 481.457L502.828 482.249C502.825 483.142 502.615 483.8 502.145 484.55C499.412 488.914 494.629 491.633 489.711 492.799C483.896 494.178 477.082 493.385 471.991 490.193C466.89 486.995 463.582 481.604 462.284 475.8C460.632 468.411 461.539 460.058 465.648 453.606C469.395 447.722 474.368 444.906 480.975 443.422Z"/>
	<path transform="scale(5.83778 5.83778)" d="M481.955 447.072C485.024 446.892 487.811 446.851 490.3 448.916C493.712 451.746 494.199 456.409 494.661 460.519L485.174 460.546L471.231 460.46C471.843 458.151 472.506 455.807 473.527 453.641C475.307 449.862 478.253 448.437 481.955 447.072Z"/>
	<path fill="#FCFCE8" transform="scale(5.83778 5.83778)" d="M633.009 443.612C636.327 443.13 639.688 442.967 642.978 443.737C647.652 444.832 652.071 447.657 654.529 451.851Q654.934 452.554 655.27 453.292Q655.606 454.03 655.87 454.797Q656.134 455.564 656.324 456.352Q656.515 457.141 656.629 457.944Q656.743 458.747 656.781 459.557Q656.818 460.367 656.778 461.178Q656.738 461.988 656.621 462.79Q656.505 463.593 656.312 464.381L623.823 464.779C627.842 470.718 623.745 479.466 631.004 485.419C634.097 487.955 638.496 488.784 642.391 488.272C645.436 487.872 649.107 486.571 651.056 484.079C653.113 483.001 653.691 481.823 656.138 481.582L656.814 482.54C656.717 482.95 656.594 483.326 656.421 483.712C654.751 487.443 648.714 491.105 644.931 492.428C639.827 494.211 632.467 493.803 627.677 491.471C622.399 488.901 618.693 483.886 616.777 478.433C614.273 471.307 614.591 463.017 617.938 456.22C621.222 449.549 626.068 445.991 633.009 443.612Z"/>
	<path transform="scale(5.83778 5.83778)" d="M634.317 447.342C636.363 446.965 638.723 446.66 640.733 447.301C643.152 448.074 645.674 450.042 646.816 452.337C647.864 454.444 648.257 458.263 647.465 460.47L637.588 460.547C633.021 460.585 628.446 460.444 623.88 460.366C628.559 454.57 626.306 451.457 634.317 447.342Z"/>
	<path fill="#FCFCE8" transform="scale(5.83778 5.83778)" d="M1039.57 443.614C1044.55 443.014 1050.04 442.544 1054.5 445.289C1066.36 452.586 1057.68 474.828 1060.62 485.504C1061.68 489.368 1063.8 487.2 1066.26 488.564C1066.58 489.78 1066.67 490.545 1066.34 491.768C1064.32 491.992 1054.68 492.954 1053.75 491.672C1052.87 490.457 1053.68 488.672 1052.24 487.568C1052.15 487.64 1052.06 487.713 1051.97 487.784C1047.43 491.271 1041.93 494.352 1036 493.511C1030.32 492.706 1027.43 489.623 1024.19 485.271C1024.32 484.74 1024.3 484.935 1024.33 484.436C1024.52 480.442 1025.23 477.641 1027.74 474.368C1033.25 467.202 1043.49 466.082 1051.83 465.087C1052.82 463.507 1052.81 461.836 1052.83 460.029C1052.87 455.971 1052.59 451.763 1049.52 448.747C1047.54 446.809 1044.94 446.385 1042.27 446.494C1033.37 446.853 1037.41 454.565 1033.34 458.965C1031.83 459.328 1031.12 459.262 1029.72 458.652C1028.92 458.301 1028.03 457.102 1027.75 456.271C1027.13 454.477 1027.55 452.058 1028.39 450.399C1030.48 446.283 1035.48 444.857 1039.57 443.614Z"/>
	<path transform="scale(5.83778 5.83778)" d="M1047.65 469.106C1049.05 468.925 1050.26 468.73 1051.66 469.122C1052.04 469.507 1052.29 469.889 1052.53 470.381C1053.94 473.306 1052.92 479.562 1051.84 482.526C1051.45 483.494 1050.8 483.99 1050.01 484.642C1046.31 487.699 1042.36 488.227 1037.74 487.759Q1037.35 487.526 1036.99 487.259Q1036.63 486.991 1036.29 486.69Q1035.95 486.39 1035.65 486.059Q1035.34 485.728 1035.07 485.37Q1034.79 485.012 1034.55 484.63Q1034.31 484.248 1034.11 483.845Q1033.9 483.442 1033.74 483.022Q1033.57 482.602 1033.45 482.168C1032.93 480.391 1033.33 478.541 1034.28 476.984C1037.17 472.227 1042.6 470.429 1047.65 469.106Z"/>
	<path fill="#FCFCE8" transform="scale(5.83778 5.83778)" d="M379.888 443.428C384.507 442.867 389.786 443.048 393.789 445.649C404.305 452.482 396.649 475.875 399.225 486.293C399.701 488.219 404.011 488.331 405.64 489.272C405.694 490.628 405.429 490.787 404.631 491.917C401.764 492.332 394.232 493.014 391.851 491.504C391.697 490.208 391.572 489.165 390.91 488.004C385.375 488.349 385.642 495.098 369.54 492.552C366.849 490.545 364.956 488.551 363.524 485.48Q363.42 484.818 363.356 484.15C362.994 480.326 363.808 476.978 366.313 474.007C372.06 467.192 382.901 465.818 391.185 465.119C391.205 462.425 391.297 459.652 391.005 456.972C390.628 453.502 388.896 449.333 386.063 447.148C384.736 446.125 383.102 445.535 381.418 445.781C379.628 446.041 373.821 449.148 373.644 451.18C373.347 454.588 374.918 455.333 372.624 458.546C371.023 459.297 370.585 459.382 368.84 459.101C367.508 458.235 366.561 457.357 366.177 455.758C365.711 453.823 366.301 451.263 367.357 449.611C369.969 445.522 375.464 444.335 379.888 443.428Z"/>
	<path transform="scale(5.83778 5.83778)" d="M388.182 468.912C389.153 468.84 389.716 468.95 390.597 469.364C392.087 472.997 391.227 478.468 391.075 482.346C386.242 486.552 382.993 488.169 376.515 487.955C374.296 486.274 372.551 484.351 372.086 481.5C371.774 479.585 372.315 477.766 373.431 476.204C376.896 471.359 382.669 469.88 388.182 468.912Z"/>
	<path fill="#FCFCE8" transform="scale(5.83778 5.83778)" d="M739.498 451.699C738.8 450.332 738.051 448.785 738.392 447.199C738.694 445.795 739.719 444.794 740.963 444.165C742.51 443.383 744.729 443.694 746.313 444.181C749.377 445.123 751.694 447.523 753.129 450.32C756.431 456.756 755.128 465.246 752.937 471.841C750.17 480.174 744.509 488.071 736.456 491.963C733.543 493.37 730.217 494.185 727.071 493.053C718.868 490.1 722.274 485.634 719.612 480.266C719.568 480.176 719.517 480.089 719.469 480C719.096 481.186 718.675 482.355 718.036 483.427C715.534 487.62 711.952 491.54 707.023 492.683C704.388 493.294 701.584 493.004 699.306 491.482C688.437 484.221 699.025 460.773 696.531 449.935C696.264 448.773 696.153 448.569 695.126 447.952C690.798 449.053 690.167 455.999 686.715 457.64L685.645 456.863C685.562 456.454 685.527 456.089 685.54 455.668C685.649 451.88 690.323 446.662 693.007 444.235C693.627 444.11 694.248 444.029 694.878 443.966C697.552 443.696 699.827 443.433 701.976 445.296C708.595 451.034 701.58 474.654 702.381 483.302C702.564 485.283 703.126 486.225 704.63 487.446C706.42 487.773 707.922 487.888 709.655 487.212C713.469 485.724 715.864 481.522 717.49 477.967C721.339 469.556 723.951 453.069 720.706 444.41L728.793 444.494C733.389 453.554 724.746 472.553 726.972 483.058C727.433 485.234 728.217 486.542 730.08 487.745C731.711 488.141 732.934 488.203 734.531 487.61C740.444 485.415 744.984 479.557 747.448 473.924C749.843 468.447 751.885 460.247 749.495 454.528C748.871 453.036 747.748 451.072 746.212 450.425L745.825 450.667C743.24 452.265 742.442 452.409 739.498 451.699Z"/>
	<path fill="#FCFCE8" transform="scale(5.83778 5.83778)" d="M872.236 503.923C872.788 503.828 873.346 503.742 873.905 503.695C888.628 502.466 904.27 503.509 919.065 503.525L1008.09 503.529L1130.24 503.515C1150.99 503.497 1172.11 502.565 1192.79 503.512C1194.47 503.589 1195.76 503.403 1197.07 504.527C1197.17 506.216 1196.82 506.939 1195.92 508.276C1191.83 509.605 1114.02 508.516 1103.29 508.515L939.393 508.572L895.028 508.617C888.082 508.624 880.095 509.459 873.278 508.239C872.605 506.863 872.45 505.419 872.236 503.923Z"/>
	<path fill="#FCFCE8" transform="scale(5.83778 5.83778)" d="M816.95 420.608C817.803 420.596 818.668 420.684 819.52 420.739C819.697 421.029 819.802 421.148 819.851 421.528C820.25 424.652 816.769 454.714 815.824 458.596C815.529 459.81 814.814 460.85 814.022 461.792C818.532 457.96 819.225 451.494 823.602 447.406C826.161 445.016 830.471 442.887 834.055 443.103C836.627 443.258 838.829 444.509 840.494 446.442C844.923 451.581 845.253 459.623 844.686 466.067C844.182 471.802 842.779 480.057 838.134 483.936L838.028 484.724C836.863 486.423 835.654 487.919 833.975 489.143C826.451 494.627 815.028 492.817 806.504 491.497C806.73 491.164 806.918 490.836 807.08 490.465C808.031 488.305 811.664 428.174 811.118 426.923C810.94 426.516 806.887 426.751 805.307 426.094L804.914 424.858C805.013 424.645 805.381 423.66 805.517 423.567C807.411 422.267 813.638 422.363 816.531 420.834L816.95 420.608Z"/>
	<path transform="scale(5.83778 5.83778)" d="M828.071 448.588Q828.426 448.515 828.783 448.456C830.504 448.174 831.937 448.184 833.369 449.231C835.567 450.838 836.474 454.362 836.828 456.909C838.04 465.608 836.598 477.482 831.019 484.564C828.414 487.871 825.838 488.866 821.746 489.329C819.227 489.581 817.38 489.217 815.434 487.638C814.71 486.052 814.458 484.623 814.491 482.876C814.692 472.041 820.289 456.22 828.071 448.588Z"/>
	<path fill="#FCFCE8" transform="scale(5.83778 5.83778)" d="M69.9711 425.529L83.8434 425.496Q95.0978 452.793 106.789 479.906C114.554 462.117 121.274 443.575 128.505 425.536C132.918 425.454 137.741 425.231 142.075 426.075L142.369 426.802C141.21 429.351 138.299 430.014 136.576 432.32C134.812 437.29 137.767 481.643 139.008 487.632Q140.207 487.701 141.402 487.827C143.31 488.046 144.321 488.537 145.493 490.02L145.295 491.047C144.783 491.472 144.214 491.831 143.547 491.947C140.017 492.56 127.142 492.988 124.381 491.176C124.626 489.508 127.31 487.758 128.439 486.452C132.3 481.981 129.274 458.5 128.851 451.672C128.764 447.13 128.455 442.603 128.162 438.071C123.201 447.119 110.261 489.542 104.883 492.259C100.041 489.765 84.1025 446.061 80.2358 438.202C80.4238 450.614 79.2421 463.092 79.0776 475.519C79.0353 478.708 78.5591 482.495 79.0695 485.601C79.8221 490.179 83.076 486.749 85.6199 488.408L85.6094 491.426L84.7634 492.046C79.6966 492.402 73.0013 492.837 68.07 491.67L67.6901 490.545C68.424 488.446 70.6443 487.754 72.5102 486.578C73.488 485.076 73.8348 483.541 74.0525 481.779C75.1112 473.21 74.7929 464.124 75.0543 455.464C75.3151 446.825 76.0584 438.232 76.4896 429.603C74.4194 429.813 71.8696 430.377 69.9441 429.466C69.3117 427.838 69.6251 427.21 69.9711 425.529Z"/>
	<path fill="#FCFCE8" transform="scale(5.83778 5.83778)" d="M284.635 443.408C289.806 442.883 294.894 443.335 299.555 445.826C304.929 448.697 308.887 453.872 310.567 459.696C312.607 466.769 311.663 475.275 308.001 481.673C304.72 487.405 299.781 491.27 293.382 492.976C287.696 493.74 282.119 493.41 277.025 490.505C271.544 487.378 267.629 481.837 266.069 475.764C264.252 468.694 265.446 460.751 269.168 454.487C272.836 448.315 277.821 445.177 284.635 443.408Z"/>
	<path transform="scale(5.83778 5.83778)" d="M287.515 446.468C289.242 446.593 291.344 447.057 292.895 447.822C296.548 449.624 299.033 453.739 300.341 457.45C302.958 464.872 303.176 475.009 299.689 482.171C297.629 486.403 295.216 488.147 290.923 489.674C288.76 489.54 286.608 489.421 284.64 488.43C280.557 486.373 277.83 482.086 276.477 477.841C274.227 470.782 274.114 460.779 277.626 454.144C279.996 449.666 282.883 447.95 287.515 446.468Z"/>
	<path fill="#FCFCE8" transform="scale(5.83778 5.83778)" d="M915.843 420.609C916.679 420.586 917.529 420.66 918.365 420.702C918.429 420.806 918.497 420.907 918.556 421.014C919.691 423.028 919.413 483.843 918.34 488.013C919.627 487.984 920.926 487.942 922.212 487.986C923.887 488.043 924.76 488.244 925.912 489.451C925.749 490.669 925.684 490.831 924.888 491.765C921.883 492.235 914.725 493.017 912.019 491.713C911.893 490.407 911.755 489.456 911.147 488.268C908.624 488.243 905.213 491.783 902.691 492.74C897.309 494.783 890.95 492.806 885.926 490.639C884.025 487.598 881.022 485.606 879.354 482.208C876.095 475.568 876.266 465.912 878.661 459.023C880.721 453.094 884.861 447.889 890.599 445.179C897.107 442.105 904.218 442.791 910.798 445.171C911.947 440.828 912.236 431.097 910.949 426.804C908.672 426.946 906.604 427.278 904.733 425.905L904.65 424.253C906.18 422.25 912.866 422.596 915.571 420.801C915.664 420.739 915.752 420.673 915.843 420.609Z"/>
	<path transform="scale(5.83778 5.83778)" d="M897.126 447.344C902.032 446.553 906.036 447.351 910.479 449.544C910.74 449.904 910.947 450.198 911.079 450.628C912.065 453.82 911.935 480.217 910.49 482.718C910.162 483.485 909.597 484.176 909.015 484.769C906.19 487.651 902.55 488.529 898.65 488.641C898.058 488.591 897.492 488.473 896.921 488.306C893.449 487.296 890.91 484.616 889.277 481.461C885.995 475.117 885.715 465.659 887.818 458.897C889.555 453.316 892.021 450.053 897.126 447.344Z"/>
	<path fill="#FCFCE8" transform="scale(5.83778 5.83778)" d="M1080.61 420.609C1081.59 420.522 1082.46 420.609 1083.44 420.737C1083.55 420.909 1083.74 421.187 1083.82 421.395C1084.97 424.499 1084.35 444.481 1083.22 447.846C1086.02 446.91 1088.62 445.034 1091.46 444.019C1096.06 442.378 1102.31 442.994 1106.64 445.065C1111.8 447.532 1115.28 452.239 1117.08 457.562C1119.48 464.673 1119.04 473.442 1115.67 480.175C1113.2 485.118 1108.77 489.64 1103.46 491.388C1102.39 492.429 1101.13 492.662 1099.71 492.975C1092.63 494.53 1086.67 492.255 1080.81 488.52C1080.52 489.114 1080.22 489.72 1079.85 490.276C1078.98 491.615 1078.1 492.246 1076.57 492.545C1073.57 488.741 1076.51 437.082 1075.49 426.957C1073.54 427.016 1071.58 427.22 1069.73 426.497C1069.05 425.175 1069.11 425.106 1069.44 423.644C1072.92 422.939 1077.09 422.549 1080.21 420.834L1080.61 420.609Z"/>
	<path transform="scale(5.83778 5.83778)" d="M1092.81 447.966C1095.34 447.713 1098.04 447.878 1100.32 449.112C1104.03 451.12 1106.36 455.206 1107.57 459.114C1109.78 466.276 1109.56 475.462 1105.93 482.132C1104.14 485.426 1102.08 487.519 1098.46 488.586C1096.45 489.524 1091.95 489.795 1089.81 489.001C1078.92 484.953 1086.97 460.56 1083.44 452.276C1086.52 450.547 1089.43 449.039 1092.81 447.966Z"/>
	<path fill="#FCFCE8" transform="scale(5.83778 5.83778)" d="M453.437 437.035C455.702 437.077 457.017 437.482 458.787 438.879C459.508 440.681 459.648 442.214 459.702 444.144C457.863 447.512 452.295 442.839 448.123 445.279C445.643 449.958 450.284 452.215 451.083 456.974C451.84 461.48 451.24 466.789 448.495 470.525C442.353 478.887 432.988 477.49 424.099 478.984C422.028 479.332 420.009 479.794 418.732 481.586C418.765 482.22 418.682 482.936 419.002 483.489C422.333 489.254 439.746 487.267 446.303 489.21C450.157 490.353 453.48 492.829 455.356 496.444C456.711 499.053 456.9 501.941 455.953 504.719C454.049 510.307 449.602 513.176 444.65 515.698C442.264 516.419 439.933 517.091 437.446 517.363C429.82 518.197 420.515 517.316 414.371 512.279C412.31 510.59 410.594 508.295 410.376 505.563C409.916 499.784 414.862 496.689 418.136 492.878C416.184 492.112 413.643 491.087 412.698 489.08C411.956 487.506 412.228 485.715 412.82 484.141C414.434 479.853 416.996 477.94 420.957 476.089C417.001 473.034 414.034 469.97 412.875 464.906C411.867 460.503 412.858 455.828 415.308 452.063Q415.58 451.651 415.873 451.254Q416.166 450.857 416.479 450.474Q416.791 450.092 417.122 449.726Q417.454 449.36 417.803 449.012Q418.152 448.663 418.519 448.332Q418.885 448.001 419.268 447.69Q419.651 447.378 420.049 447.086Q420.447 446.794 420.859 446.522Q421.271 446.25 421.696 446Q422.121 445.749 422.559 445.52Q422.996 445.291 423.444 445.085Q423.893 444.878 424.351 444.695Q424.809 444.511 425.276 444.351Q425.743 444.19 426.217 444.054Q426.691 443.917 427.172 443.805Q427.652 443.692 428.138 443.604C433.114 442.674 438.89 443.443 443.118 446.338C446.054 441.743 448.394 439.107 453.437 437.035Z"/>
	<path transform="scale(5.83778 5.83778)" d="M429.517 446.447C430.956 446.415 432.608 446.31 434 446.706C436.759 447.493 438.953 449.916 440.265 452.368C442.621 456.774 442.959 462.746 441.422 467.469C440.194 471.24 438.296 473.013 434.814 474.755C433.326 474.775 431.693 474.852 430.237 474.514C427.403 473.858 425.111 471.643 423.68 469.194C421.291 465.107 420.979 459.49 422.286 455.004C423.557 450.637 425.591 448.573 429.517 446.447Z"/>
	<path transform="scale(5.83778 5.83778)" d="M422.904 494.405C428.886 495.206 434.997 494.501 440.976 495.627C443.865 496.171 447.306 497.249 449.005 499.846C450.021 501.399 450.24 503.366 449.813 505.156C449.054 508.336 446.19 510.358 443.6 512.012C440.554 513.143 437.372 513.654 434.133 513.683C429.246 513.727 423.474 512.406 419.959 508.831C418.634 507.484 417.667 505.704 417.707 503.776C417.787 500.004 420.289 496.859 422.904 494.405Z"/>
</svg>
