<?xml version="1.0" encoding="utf-8" ?>
<svg xmlns="http://www.w3.org/2000/svg" xmlns:xlink="http://www.w3.org/1999/xlink" width="1024" height="819">
	<path fill="#FEFEFE" transform="scale(0.8 0.8)" d="M0 0L1278.91 0C1280.3 2.44878 1279.99 5.15956 1280 7.90141L1280.01 807.041L1280 969.618C1280 976.707 1280.96 1018.64 1279.61 1022.62C1279.43 1023.14 1279.19 1023.51 1278.91 1024L0 1024L0 0Z"/>
	<path fill="#373031" transform="scale(0.8 0.8)" d="M702.128 549.812C702.425 551.338 696.648 559.505 695.519 561.317C690.771 561.606 686.267 562.303 681.614 563.289C681.542 560.473 686.513 554.76 688.364 552.363Q695.155 550.596 702.128 549.812Z"/>
	<path fill="#373031" transform="scale(0.8 0.8)" d="M765.99 238.442C779.653 237.342 815.776 238.171 827.376 245.492C828.918 246.466 830.578 247.962 830.827 249.878C831.088 251.889 829.89 253.922 828.592 255.358Q828.336 255.641 828.052 255.894Q827.768 256.148 827.458 256.371Q827.149 256.593 826.818 256.782Q826.486 256.97 826.137 257.123Q825.788 257.275 825.424 257.39Q825.061 257.504 824.687 257.58Q824.314 257.655 823.934 257.691Q823.555 257.727 823.174 257.722C818.098 257.664 811.752 255.016 806.701 253.822C795.989 251.289 785.174 249.857 774.158 249.958C717.677 250.477 679.379 278.54 641.399 317.201C630.732 329.034 620.793 341.127 611.548 354.11C609.116 353.507 606.636 353.05 604.183 352.537C611.591 339.406 623.6 324.067 633.474 312.673C670.718 269.697 708.091 242.574 765.99 238.442Z"/>
	<path fill="#373031" transform="scale(0.8 0.8)" d="M755.23 390.409C755.57 390.496 755.98 390.574 756.268 390.79C756.753 391.154 757.297 391.786 757.396 392.391C758.737 400.613 745.786 425.621 741.735 434.446C718.035 486.068 694.174 536.85 661.726 583.67C648.397 602.903 633.457 622.743 616.986 639.351Q615.24 641.099 613.46 642.814Q611.68 644.528 609.868 646.208Q608.056 647.888 606.212 649.533Q604.368 651.178 602.493 652.788Q600.618 654.397 598.712 655.97Q596.807 657.544 594.872 659.08Q592.936 660.617 590.972 662.116Q589.008 663.615 587.015 665.076Q585.022 666.537 583.002 667.96Q580.982 669.383 578.934 670.767Q576.887 672.151 574.814 673.495Q572.741 674.839 570.642 676.144Q568.543 677.448 566.42 678.712Q564.297 679.976 562.15 681.199Q560.003 682.422 557.833 683.604Q555.663 684.786 553.471 685.926Q551.278 687.066 549.065 688.164Q546.851 689.262 544.617 690.317Q542.382 691.372 540.128 692.384Q537.874 693.397 535.601 694.366Q533.328 695.335 531.037 696.26Q528.746 697.185 526.437 698.066Q524.129 698.947 521.804 699.784Q519.479 700.621 517.139 701.413Q514.798 702.205 512.443 702.952Q510.088 703.699 507.719 704.401Q505.35 705.103 502.968 705.76Q500.586 706.416 498.191 707.027Q495.797 707.637 493.392 708.202Q490.986 708.767 488.57 709.285Q486.155 709.804 483.729 710.276Q481.304 710.748 478.87 711.174L477.497 711.247C484.259 708.468 492.308 707.451 499.385 705.394C512.92 701.459 527.169 695.624 539.729 689.207C586.804 665.155 620.104 625.924 649.934 583.383Q658.773 570.787 667.083 557.834Q675.393 544.882 683.159 531.597Q690.925 518.311 698.134 504.715Q705.343 491.119 711.982 477.236Q722.574 455.411 732.548 433.296C739.265 418.644 745.617 403.455 755.23 390.409Z"/>
	<path fill="#373031" transform="scale(0.8 0.8)" d="M748.862 560.51C750.879 561.216 751.855 577.384 752.151 579.974C753.649 593.084 755.039 606.56 758.185 619.382C760.612 629.272 764.4 638.861 768.239 648.273C779.033 674.736 791.993 699.229 812.232 719.725C824.507 732.157 839.671 742.059 856.576 746.787C910.323 761.82 935.799 715.802 985.947 716.464C999.597 716.644 1013.36 721.725 1022.89 731.695C1024.92 733.822 1030.85 740.475 1030.76 743.282L1028.64 742.169C1027.74 739.275 1024.83 736.882 1022.46 735.11C1015.89 730.193 1007.4 727.236 999.423 725.622C975.509 720.786 949.816 731.225 928.775 741.854C916.759 747.923 904.57 754.769 891.038 756.629C865.154 760.185 835.568 750.019 815.014 734.283C785.701 711.84 758.787 662.713 750.266 627.462C745.673 608.458 744.16 588.319 741.593 568.937C743.857 565.878 746.063 563.096 748.862 560.51Z"/>
	<path fill="#373031" transform="scale(0.8 0.8)" d="M508.583 347.851C531.447 346.408 555.425 346.861 578.055 350.488C611.227 355.803 655.112 372.508 675.335 400.399C664.34 390.124 653.53 382.89 639.987 376.359C604.886 399.959 574.757 437.392 555.251 474.623C546.322 491.665 536.893 513.315 542.89 532.531C543.429 529.568 543.932 526.62 545.732 524.111C547.465 521.698 550.141 519.99 553.104 519.622Q553.625 519.556 554.149 519.544Q554.674 519.532 555.197 519.574Q555.72 519.616 556.236 519.712Q556.752 519.808 557.255 519.956Q557.759 520.105 558.244 520.304Q558.729 520.504 559.192 520.752Q559.654 521.001 560.088 521.295Q560.522 521.59 560.924 521.928C563.053 523.745 564.217 526.344 564.334 529.122C564.457 532.072 563.514 535.024 561.499 537.205C558.625 540.317 554.109 541.477 549.997 541.434C545.625 541.387 541.63 540 538.648 536.707C533.528 531.052 533.186 522.476 533.615 515.274C535.874 477.278 568.529 429.741 593.307 402.399C603.727 390.9 615.3 380.509 626.876 370.201C620.087 367.103 613.177 364.234 606.053 362.001C597.537 372.419 590.677 384.462 583.427 395.777L556.558 437.163C552.931 442.857 549.863 449.244 545.88 454.647C546.268 446.435 590.735 373.149 598.874 360.343C540.469 346.315 484.214 350.62 428.343 372.554C375.9 393.142 330.102 422.804 306.804 476.126C304.29 482.784 301.804 489.385 300.113 496.31C292.415 527.823 298.766 561.722 315.49 589.306C333.529 619.059 362.123 639.437 395.835 647.686C467.663 665.262 559.863 621.546 621.977 586.379C634.575 579.246 646.803 571.374 659.178 563.854L658.798 564.314C653.011 571.19 646.451 579.653 639.39 585.15C628.823 593.377 615.644 599.873 603.83 606.111C556.556 631.071 503.603 655.099 449.815 659.768C407.797 663.416 365.541 653.394 332.844 625.762Q331.586 624.707 330.354 623.621Q329.123 622.536 327.919 621.42Q326.715 620.304 325.539 619.158Q324.363 618.013 323.215 616.838Q322.068 615.664 320.95 614.461Q319.833 613.259 318.745 612.029Q317.657 610.799 316.601 609.542Q315.544 608.285 314.519 607.003Q313.494 605.72 312.501 604.413Q311.508 603.105 310.548 601.774Q309.587 600.442 308.661 599.087Q307.734 597.731 306.841 596.354Q305.948 594.976 305.089 593.576Q304.231 592.177 303.407 590.756Q302.584 589.336 301.796 587.895Q301.008 586.455 300.256 584.995Q299.504 583.535 298.789 582.057Q298.073 580.58 297.395 579.084Q296.716 577.589 296.075 576.078Q295.434 574.566 294.83 573.039Q294.227 571.512 293.661 569.971Q293.096 568.429 292.569 566.874Q292.042 565.319 291.554 563.751Q291.066 562.183 290.617 560.604Q290.168 559.025 289.758 557.435Q289.348 555.845 288.978 554.245Q288.608 552.645 288.278 551.037Q287.947 549.429 287.657 547.812Q287.367 546.196 287.117 544.573Q286.866 542.951 286.657 541.322Q286.447 539.693 286.278 538.06Q286.109 536.427 285.98 534.79C282.892 496.82 298.474 458.811 322.822 430.2C366.817 378.503 442.868 353.231 508.583 347.851Z"/>
	<path fill="#373031" transform="scale(0.8 0.8)" d="M801.325 300.971C831.516 299.094 865.843 304.275 889.914 323.695C910.698 340.463 921.849 363.866 924.435 390.254C927.655 423.119 915.52 455.199 894.877 480.417C866.434 515.164 820.503 539.003 777.275 549.032C763.715 552.177 749.813 553.703 735.984 555.095C730.969 565.148 724.482 575.154 718.213 584.477C667.248 660.278 596.605 719.354 504.95 737.14C442.239 749.308 381.546 741.522 327.812 705.188C298.258 685.204 275.577 658.894 255.359 629.746C252.604 625.775 246.774 619.092 245.889 614.532L246.978 615.828C246.991 615.828 251.563 621.345 251.975 621.841C287.756 664.935 323.861 695.565 378.299 711.988C428.617 727.168 485.29 723.145 534.198 704.703C546.237 700.163 557.761 694.387 569.09 688.32Q576.278 684.266 583.267 679.88Q590.257 675.494 597.034 670.785Q603.811 666.076 610.36 661.055Q616.909 656.034 623.216 650.712Q629.523 645.39 635.573 639.778Q641.624 634.166 647.406 628.277Q653.187 622.389 658.686 616.235Q664.186 610.082 669.391 603.678C688.746 580.073 705.618 554.906 721.872 529.103C730.773 514.973 739.184 500.632 747.627 486.227C762.805 460.332 794.616 400.902 824.827 392.596C830 391.174 835.293 391.498 839.952 394.339C847.495 398.939 850.563 407.207 852.507 415.375L851.506 416.902L852.31 417.277L852.345 417.264C848.506 411.729 848.805 405.784 842.036 401.647C839.007 399.795 835.596 399.427 832.172 400.265C823.424 402.407 816.112 410.897 810.68 417.557C788.75 444.447 774.323 477.4 759.622 508.59C754.467 519.528 749.717 531.081 743.405 541.384Q746.992 541.005 750.567 540.515Q754.141 540.025 757.698 539.424Q761.255 538.824 764.792 538.113Q768.328 537.403 771.842 536.583Q775.355 535.763 778.841 534.835Q782.327 533.907 785.783 532.871Q789.238 531.836 792.66 530.693Q796.082 529.551 799.467 528.304Q802.852 527.056 806.197 525.704Q809.541 524.352 812.843 522.897Q816.144 521.442 819.398 519.885Q822.653 518.329 825.858 516.672Q829.063 515.016 832.215 513.261Q835.367 511.506 838.463 509.654Q841.559 507.802 844.596 505.855Q847.633 503.908 850.609 501.868C878.24 482.579 905.671 451.922 911.55 417.618C915.38 395.268 910.445 369.708 897.332 351.14C882.58 330.251 860.614 319.7 836 315.424C784.898 306.546 722.336 327.292 678.028 351.671C667.321 357.562 657.353 364.387 647.367 371.399L635.997 364.613C671.934 335.475 721.698 312.562 767.253 304.3C778.61 302.241 789.804 301.456 801.325 300.971Z"/>
</svg>
