<svg xmlns="http://www.w3.org/2000/svg" xmlns:xlink="http://www.w3.org/1999/xlink" width="500" zoomAndPan="magnify" viewBox="0 0 375 374.999991" height="500" preserveAspectRatio="xMidYMid meet" version="1.0"><defs><g/><clipPath id="1f1188abe9"><path d="M 139 123 L 211 123 L 211 196 L 139 196 Z M 139 123 " clip-rule="nonzero"/></clipPath><clipPath id="e59a7992d0"><path d="M 207.261719 200.808594 L 132.714844 192.546875 L 140.976562 118.003906 L 215.519531 126.265625 Z M 207.261719 200.808594 " clip-rule="nonzero"/></clipPath><clipPath id="13323d96c2"><path d="M 207.261719 200.808594 L 132.714844 192.546875 L 140.976562 118.003906 L 215.519531 126.265625 Z M 207.261719 200.808594 " clip-rule="nonzero"/></clipPath><clipPath id="174455fd10"><path d="M 71.589844 141.601562 L 188.589844 141.601562 L 188.589844 170.851562 L 71.589844 170.851562 Z M 71.589844 141.601562 " clip-rule="nonzero"/></clipPath><clipPath id="b94053125d"><path d="M 183 141 L 273 141 L 273 176 L 183 176 Z M 183 141 " clip-rule="nonzero"/></clipPath><clipPath id="bd65d8900a"><path d="M 183.570312 141.601562 L 272.792969 143.710938 L 271.996094 177.453125 L 182.773438 175.339844 Z M 183.570312 141.601562 " clip-rule="nonzero"/></clipPath><clipPath id="4ded8af627"><path d="M 183.570312 141.601562 L 272.792969 143.710938 L 271.996094 177.453125 L 182.773438 175.339844 Z M 183.570312 141.601562 " clip-rule="nonzero"/></clipPath><clipPath id="9e5ba4ba42"><path d="M 183.570312 141.601562 L 272.792969 143.710938 L 271.996094 177.453125 L 182.773438 175.339844 Z M 183.570312 141.601562 " clip-rule="nonzero"/></clipPath><clipPath id="9474e03c65"><path d="M 167.398438 146.101562 L 171.113281 146.101562 L 171.113281 151.5 L 167.398438 151.5 Z M 167.398438 146.101562 " clip-rule="nonzero"/></clipPath><clipPath id="d70af7c934"><path d="M 170.101562 147.375 C 169.199219 150.75 170.925781 150.449219 171.074219 150.75 C 171.148438 150.898438 170.925781 151.273438 170.699219 151.351562 C 170.476562 151.425781 169.574219 150.976562 169.574219 150.75 C 169.574219 150.523438 170.476562 150 170.699219 150.074219 C 170.851562 150.226562 170.925781 151.199219 170.773438 151.351562 C 170.625 151.425781 169.574219 150.976562 169.574219 150.75 C 169.5 150.523438 170.476562 149.925781 170.625 150.074219 C 170.773438 150.148438 170.25 151.425781 170.398438 151.5 C 170.476562 151.5 171 150.976562 171 150.898438 C 171 150.898438 170.550781 151.5 170.175781 151.5 C 169.574219 151.5 167.699219 150.601562 167.476562 149.851562 C 167.175781 148.949219 168.300781 146.851562 168.898438 146.398438 C 169.273438 146.101562 169.949219 146.023438 170.175781 146.175781 C 170.324219 146.324219 170.101562 147.375 170.101562 147.375 " clip-rule="nonzero"/></clipPath><clipPath id="8f213c1879"><path d="M 167.382812 148.183594 L 173.195312 148.183594 L 173.195312 152.304688 L 167.382812 152.304688 Z M 167.382812 148.183594 " clip-rule="nonzero"/></clipPath><clipPath id="33481f10e3"><path d="M 169.050781 149.101562 C 169.5 150.601562 171.976562 148.875 172.5 149.25 C 172.875 149.398438 172.949219 150.523438 172.800781 150.675781 C 172.648438 150.75 171.75 150.300781 171.675781 150 C 171.675781 149.773438 172.199219 149.175781 172.425781 149.25 C 172.648438 149.25 173.25 149.925781 173.175781 150.226562 C 172.949219 150.898438 169.800781 152.550781 168.824219 152.25 C 168.074219 152.023438 167.476562 150.601562 167.398438 149.851562 C 167.398438 149.25 167.699219 148.273438 168 148.199219 C 168.226562 148.125 169.050781 149.101562 169.050781 149.101562 " clip-rule="nonzero"/></clipPath><clipPath id="6f6c6a2c09"><path d="M 171.832031 145.765625 L 176.515625 145.765625 L 176.515625 150.367188 L 171.832031 150.367188 Z M 171.832031 145.765625 " clip-rule="nonzero"/></clipPath><clipPath id="e2afc52998"><path d="M 172.050781 149.175781 C 175.726562 145.726562 176.25 145.800781 176.398438 145.949219 C 176.476562 146.175781 175.949219 147.226562 175.800781 147.226562 C 175.574219 147.148438 175.125 146.175781 175.199219 145.949219 C 175.351562 145.800781 176.101562 145.726562 176.324219 145.875 C 176.476562 146.023438 176.550781 146.398438 176.476562 146.773438 C 176.175781 147.601562 173.851562 150 173.023438 150.300781 C 172.574219 150.449219 172.050781 150.300781 171.898438 150.148438 C 171.75 149.925781 172.050781 149.175781 172.050781 149.175781 " clip-rule="nonzero"/></clipPath><clipPath id="4b852a7d39"><path d="M 174.964844 142.757812 L 176.710938 142.757812 L 176.710938 147.136719 L 174.964844 147.136719 Z M 174.964844 142.757812 " clip-rule="nonzero"/></clipPath><clipPath id="159b6f0a9e"><path d="M 174.976562 146.101562 C 175.273438 142.949219 175.949219 142.726562 176.101562 142.800781 C 176.324219 142.949219 176.324219 144.074219 176.101562 144.148438 C 175.949219 144.300781 175.125 143.773438 175.050781 143.550781 C 174.976562 143.324219 175.351562 142.875 175.574219 142.800781 C 175.800781 142.726562 176.324219 142.949219 176.476562 143.324219 C 176.851562 143.925781 176.699219 146.25 176.324219 146.773438 C 176.023438 147.074219 175.425781 147.226562 175.199219 147.074219 C 174.976562 146.925781 174.976562 146.101562 174.976562 146.101562 " clip-rule="nonzero"/></clipPath><clipPath id="3b2b4b9618"><path d="M 187.5625 150.664062 L 189.402344 150.664062 L 189.402344 155.582031 L 187.5625 155.582031 Z M 187.5625 150.664062 " clip-rule="nonzero"/></clipPath><clipPath id="1bc4a5a0c2"><path d="M 187.574219 155.101562 C 188.773438 150.675781 189.226562 151.050781 189.226562 151.050781 C 189.226562 150.976562 188.550781 150.75 188.550781 150.675781 C 188.550781 150.675781 189.148438 150.675781 189.300781 150.898438 C 189.523438 151.199219 189.300781 152.699219 189.074219 153.523438 C 188.925781 154.273438 188.476562 155.476562 188.175781 155.550781 C 187.949219 155.625 187.574219 155.101562 187.574219 155.101562 " clip-rule="nonzero"/></clipPath><clipPath id="0d63d3855f"><path d="M 170.003906 145.777344 L 170.074219 145.777344 L 170.074219 146.355469 L 170.003906 146.355469 Z M 170.003906 145.777344 " clip-rule="nonzero"/></clipPath><clipPath id="e46256dcc6"><path d="M 170.023438 145.800781 C 170.101562 147 170.023438 145.800781 170.023438 145.800781 " clip-rule="nonzero"/></clipPath><clipPath id="c0c5e3ce1e"><path d="M 168.363281 146.386719 L 170.425781 146.386719 L 170.425781 147.316406 L 168.363281 147.316406 Z M 168.363281 146.386719 " clip-rule="nonzero"/></clipPath><clipPath id="fa53524d50"><path d="M 170.398438 146.398438 C 169.273438 148.050781 168.375 146.925781 168.375 146.925781 " clip-rule="nonzero"/></clipPath><clipPath id="c5b7979e3b"><path d="M 169.824219 146.148438 L 170.707031 146.148438 L 170.707031 146.644531 L 169.824219 146.644531 Z M 169.824219 146.148438 " clip-rule="nonzero"/></clipPath><clipPath id="83c960ab47"><path d="M 170.699219 146.175781 C 168.75 147.226562 170.699219 146.175781 170.699219 146.175781 " clip-rule="nonzero"/></clipPath><clipPath id="86f811866a"><path d="M 198.800781 173.34375 L 200.175781 173.34375 L 200.175781 173.921875 L 198.800781 173.921875 Z M 198.800781 173.34375 " clip-rule="nonzero"/></clipPath><clipPath id="0523a09e71"><path d="M 198.824219 173.625 C 200.175781 172.949219 200.25 173.699219 200.101562 173.851562 C 199.949219 174.074219 198.824219 173.625 198.824219 173.625 " clip-rule="nonzero"/></clipPath><clipPath id="64e12046ed"><path d="M 198.253906 173.023438 L 200.449219 173.023438 L 200.449219 174.851562 L 198.253906 174.851562 Z M 198.253906 173.023438 " clip-rule="nonzero"/></clipPath><clipPath id="f2b65f65a5"><path d="M 199.875 173.773438 C 198.898438 174.226562 199.875 173.925781 199.875 173.699219 C 199.949219 173.476562 199.574219 173.101562 199.574219 173.101562 C 199.5 173.101562 199.875 173.625 199.800781 173.773438 C 199.648438 174.074219 198.601562 174.601562 198.375 174.449219 C 198.300781 174.449219 198.226562 174.074219 198.300781 173.925781 C 198.449219 173.550781 199.726562 172.875 200.101562 173.101562 C 200.324219 173.175781 200.550781 174.074219 200.398438 174.375 C 200.324219 174.601562 199.800781 174.898438 199.574219 174.824219 C 199.351562 174.75 198.976562 173.773438 199.125 173.625 C 199.199219 173.476562 199.875 173.773438 199.875 173.773438 " clip-rule="nonzero"/></clipPath></defs><g clip-path="url(#1f1188abe9)"><g clip-path="url(#e59a7992d0)"><g clip-path="url(#13323d96c2)"><path fill="#3d3b3a" d="M 144.773438 178.75 C 148.589844 184.644531 154.0625 188.917969 160.273438 191.460938 C 162.382812 192.558594 164.582031 193.417969 166.878906 194.039062 C 166.890625 194.042969 166.902344 194.046875 166.914062 194.050781 C 181.226562 197.871094 197.550781 191.679688 205.109375 178.761719 C 205.15625 178.679688 205.207031 178.589844 205.253906 178.503906 C 207.652344 174.71875 209.25 170.621094 210.050781 166.210938 C 212.753906 151.285156 204.863281 135.875 192.011719 128.175781 C 185.09375 124.03125 176.542969 122.140625 168.574219 123.722656 C 160.332031 125.363281 153.378906 131.082031 147.976562 137.28125 C 137.6875 149.082031 136.191406 165.484375 144.773438 178.75 Z M 194.65625 188.347656 C 184.34375 194.324219 171.269531 195.566406 160.308594 191.019531 C 156.699219 189.144531 153.570312 186.667969 150.917969 183.582031 C 141.386719 172.527344 139.601562 156.421875 148.058594 144.242188 C 156.25 132.445312 172.683594 125.226562 186.816406 129.386719 C 195.585938 131.972656 203.210938 139.941406 206.667969 148.234375 C 209.949219 156.105469 210.105469 165.230469 207.207031 173.234375 C 206.621094 174.847656 205.902344 176.398438 205.054688 177.894531 C 203.261719 180.847656 201.074219 183.472656 198.496094 185.769531 C 195.917969 188.070312 193.058594 189.941406 189.917969 191.386719 C 182.144531 194.957031 173.542969 195.566406 165.785156 193.238281 C 168.921875 193.976562 172.101562 194.320312 175.324219 194.261719 C 178.546875 194.207031 181.714844 193.753906 184.824219 192.90625 C 188.347656 191.929688 191.652344 190.460938 194.742188 188.503906 C 194.839844 188.453125 194.746094 188.304688 194.65625 188.347656 Z M 156.402344 130.09375 C 163.5 124.640625 171.910156 122.574219 180.722656 124.328125 C 195.054688 127.199219 206.636719 139.316406 209.488281 153.566406 C 210.539062 158.839844 210.328125 164.0625 208.859375 169.234375 C 211.492188 157.542969 207.804688 144.863281 198.894531 136.363281 C 192.550781 130.316406 185.113281 127.34375 176.304688 127.894531 C 168.992188 128.347656 161.851562 131.082031 155.972656 135.4375 C 143.855469 144.40625 138.734375 159.730469 144.453125 173.902344 C 145.675781 176.949219 147.304688 179.765625 149.332031 182.34375 C 151.359375 184.925781 153.710938 187.171875 156.382812 189.078125 C 155.039062 188.304688 153.761719 187.441406 152.542969 186.488281 C 141.546875 177.867188 136.566406 161.871094 141.566406 148.6875 C 144.402344 141.203125 150.128906 134.914062 156.402344 130.09375 Z M 156.402344 130.09375 " fill-opacity="1" fill-rule="nonzero"/></g></g></g><g clip-path="url(#174455fd10)"><path fill="#231f20" d="M 187.96875 154.667969 C 187.5 155.027344 187.175781 155.324219 186.804688 155.546875 C 185.121094 156.550781 183.4375 157.566406 181.726562 158.523438 C 179.863281 159.574219 177.972656 160.574219 176.09375 161.585938 C 174.984375 162.183594 173.878906 162.796875 172.75 163.367188 C 171.621094 163.933594 170.460938 164.441406 169.324219 164.996094 C 166.769531 166.234375 164.195312 167.429688 161.488281 168.304688 C 160.238281 168.707031 158.960938 169.003906 157.644531 169.117188 C 156.855469 169.1875 156.066406 169.152344 155.316406 168.875 C 154.605469 168.613281 153.96875 168.230469 153.644531 167.503906 C 153.398438 166.945312 153.207031 166.371094 153.195312 165.75 C 153.167969 164.390625 153.402344 163.042969 153.871094 161.800781 C 154.464844 160.230469 155.171875 158.691406 156.023438 157.214844 C 157.597656 154.488281 159.460938 152.003906 161.761719 149.84375 C 161.917969 149.699219 162.078125 149.542969 162.238281 149.398438 C 163.011719 148.703125 163.722656 147.921875 164.578125 147.335938 C 166.15625 146.257812 167.753906 145.1875 169.511719 144.394531 C 170.714844 143.855469 171.996094 143.554688 173.300781 143.394531 C 173.636719 143.351562 173.996094 143.433594 174.339844 143.492188 C 174.457031 143.511719 174.550781 143.632812 174.621094 143.6875 C 174.574219 144.222656 174.292969 144.554688 174.042969 144.910156 C 173.105469 146.238281 171.824219 147.226562 170.632812 148.308594 C 169.988281 148.890625 169.300781 149.429688 168.652344 150.007812 C 168.464844 150.175781 168.339844 150.402344 168.191406 150.597656 C 168.347656 151.257812 168.550781 151.808594 169.25 151.972656 C 171.203125 151.46875 173.347656 149.851562 174.304688 148.285156 C 175.9375 146.855469 177.113281 145.476562 176.84375 143.363281 C 176.660156 143.03125 176.472656 142.6875 176.242188 142.28125 C 175.980469 142.160156 175.675781 141.960938 175.351562 141.882812 C 174.328125 141.636719 173.296875 141.589844 172.242188 141.804688 C 170.40625 142.171875 168.808594 143.0625 167.214844 143.953125 C 165.792969 144.753906 164.519531 145.773438 163.226562 146.773438 C 162.171875 147.253906 161.128906 147.746094 160.054688 148.179688 C 157.597656 149.183594 155.132812 150.164062 152.664062 151.140625 C 151.238281 151.710938 149.804688 152.273438 148.355469 152.789062 C 144.84375 154.042969 141.335938 155.300781 137.800781 156.488281 C 134.046875 157.753906 130.28125 158.980469 126.5 160.148438 C 123.558594 161.058594 120.589844 161.875 117.617188 162.691406 C 115.191406 163.359375 112.765625 164.023438 110.320312 164.601562 C 107.550781 165.25 104.761719 165.832031 101.972656 166.382812 C 98.722656 167.023438 95.453125 167.550781 92.160156 167.953125 C 89.707031 168.25 87.25 168.554688 84.777344 168.613281 C 83.148438 168.65625 81.511719 168.699219 79.878906 168.527344 C 77.996094 168.328125 76.242188 167.792969 74.828125 166.757812 C 74.375 166.058594 74.84375 165.496094 74.828125 164.890625 C 74.351562 164.523438 73.882812 164.261719 73.304688 164.253906 C 72.890625 164.394531 72.492188 164.53125 72.097656 164.671875 C 71.921875 164.886719 71.742188 165.097656 71.613281 165.253906 L 71.617188 166.5625 C 71.8125 166.730469 71.976562 166.90625 72.171875 167.019531 C 72.488281 167.214844 72.824219 167.382812 73.164062 167.535156 C 73.457031 167.671875 73.78125 167.75 74.066406 167.902344 C 76.421875 169.15625 78.972656 169.578125 81.605469 169.675781 C 83.523438 169.742188 85.429688 169.601562 87.335938 169.4375 C 90.871094 169.132812 94.382812 168.609375 97.875 168.019531 C 100.359375 167.601562 102.835938 167.136719 105.296875 166.605469 C 108.210938 165.972656 111.117188 165.289062 114.011719 164.554688 C 116.316406 163.972656 118.589844 163.292969 120.875 162.632812 C 123.472656 161.882812 126.074219 161.15625 128.648438 160.332031 C 132.683594 159.035156 136.726562 157.769531 140.699219 156.285156 C 144.277344 154.949219 147.894531 153.707031 151.472656 152.386719 C 153.746094 151.546875 155.992188 150.640625 158.25 149.746094 C 159.21875 149.359375 160.179688 148.957031 161.148438 148.570312 C 160.242188 149.410156 159.375 150.289062 158.550781 151.210938 C 157.882812 151.953125 157.328125 152.785156 156.679688 153.546875 C 155.835938 154.542969 155.140625 155.644531 154.5 156.765625 C 153.589844 158.34375 152.796875 159.984375 152.25 161.730469 C 151.789062 163.183594 151.457031 164.652344 151.574219 166.195312 C 151.679688 167.546875 152.148438 168.695312 153.203125 169.625 C 154.074219 170.390625 155.113281 170.664062 156.195312 170.757812 C 157.09375 170.835938 158.023438 170.761719 158.925781 170.648438 C 160.625 170.433594 162.21875 169.839844 163.820312 169.242188 C 166.074219 168.398438 168.261719 167.40625 170.394531 166.3125 C 172.636719 165.160156 174.855469 163.957031 177.046875 162.714844 C 179.816406 161.148438 182.554688 159.523438 185.28125 157.886719 C 186.253906 157.304688 187.191406 156.664062 188.023438 155.894531 C 188.234375 155.699219 188.367188 155.421875 188.574219 155.121094 C 188.359375 154.953125 188.199219 154.835938 187.972656 154.667969 Z M 187.96875 154.667969 " fill-opacity="1" fill-rule="nonzero"/></g><g clip-path="url(#b94053125d)"><g clip-path="url(#bd65d8900a)"><g clip-path="url(#4ded8af627)"><g clip-path="url(#9e5ba4ba42)"><path fill="#231f20" d="M 272.710938 145.425781 C 272.578125 145.03125 272.46875 144.714844 272.363281 144.410156 C 271.925781 143.902344 271.347656 143.769531 270.742188 143.730469 C 268.988281 143.632812 267.238281 143.683594 265.496094 143.917969 C 262.351562 144.34375 259.226562 144.867188 256.121094 145.515625 C 253.488281 146.0625 250.859375 146.636719 248.253906 147.296875 C 243.617188 148.476562 239.039062 149.863281 234.542969 151.5 C 231.355469 152.660156 228.171875 153.855469 225.042969 155.191406 C 222.605469 156.238281 220.15625 157.253906 217.746094 158.359375 C 214.175781 159.996094 210.621094 161.648438 207.148438 163.488281 C 205.53125 164.34375 203.9375 165.246094 202.335938 166.132812 C 201.09375 166.816406 199.847656 167.492188 198.617188 168.195312 C 197.519531 168.824219 196.4375 169.484375 195.351562 170.144531 C 194.074219 170.914062 192.773438 171.652344 191.464844 172.371094 C 190.546875 172.875 189.613281 173.339844 188.632812 173.699219 C 187.929688 173.960938 187.207031 174.152344 186.445312 174.148438 C 185.390625 174.140625 184.800781 173.609375 184.617188 172.554688 C 184.472656 171.71875 184.617188 170.910156 184.8125 170.109375 C 185.226562 168.382812 186.1875 166.871094 186.769531 165.207031 C 186.859375 164.941406 187.121094 164.738281 187.300781 164.503906 C 187.34375 164.445312 187.378906 164.378906 187.414062 164.3125 C 188.382812 162.398438 189.667969 160.6875 190.835938 158.90625 C 191.519531 157.863281 192.160156 156.828125 192.601562 155.664062 C 192.859375 154.988281 193.011719 154.273438 192.765625 153.59375 C 192.554688 153.011719 192.359375 152.394531 191.929688 151.902344 C 191.683594 151.625 191.445312 151.332031 191.25 151.011719 C 190.863281 150.378906 190.445312 149.753906 190.339844 149.019531 C 190.394531 148.921875 190.421875 148.847656 190.476562 148.796875 C 190.835938 148.46875 191.191406 148.140625 191.5625 147.824219 C 191.953125 147.492188 192.203125 147.03125 192.65625 146.746094 C 193.027344 146.511719 193.3125 146.132812 193.601562 145.792969 C 194.269531 145.015625 194.621094 144.144531 194.320312 143.277344 C 194.011719 142.832031 193.804688 142.53125 193.59375 142.226562 C 193.285156 142.109375 192.976562 141.988281 192.761719 141.90625 C 192.113281 141.808594 191.628906 141.996094 191.167969 142.273438 C 189.886719 143.042969 188.957031 144.160156 188.261719 145.457031 C 187.765625 146.382812 187.417969 147.378906 187.464844 148.464844 C 187.46875 148.652344 187.453125 148.839844 187.449219 149.007812 C 187.4375 149.019531 187.429688 149.035156 187.414062 149.046875 C 187.652344 149.574219 187.835938 150.113281 188.011719 150.714844 C 188.035156 150.796875 188.015625 150.859375 188.027344 150.9375 C 188.308594 151.304688 188.582031 151.675781 188.871094 152.03125 C 189.292969 152.550781 189.730469 153.058594 190.171875 153.5625 C 190.648438 154.097656 190.710938 154.699219 190.507812 155.351562 C 190.441406 155.566406 190.34375 155.773438 190.222656 155.960938 C 189.71875 156.742188 189.3125 157.582031 188.789062 158.355469 C 188.070312 159.410156 187.460938 160.53125 186.757812 161.59375 C 185.742188 163.128906 185.070312 164.84375 184.242188 166.472656 C 183.84375 167.265625 183.621094 168.160156 183.363281 169.019531 C 183.027344 170.148438 182.910156 171.304688 183.105469 172.46875 C 183.308594 173.660156 183.84375 174.675781 185.046875 175.152344 C 185.722656 175.425781 186.433594 175.4375 187.140625 175.304688 C 187.953125 175.152344 188.71875 174.863281 189.476562 174.53125 C 191.640625 173.582031 193.621094 172.300781 195.636719 171.085938 C 198.195312 169.539062 200.726562 167.945312 203.320312 166.460938 C 205.457031 165.242188 207.675781 164.15625 209.855469 163.007812 C 212.265625 161.730469 214.726562 160.5625 217.195312 159.414062 C 220.277344 157.976562 223.375 156.585938 226.53125 155.324219 C 227.746094 154.839844 228.9375 154.296875 230.164062 153.84375 C 232.402344 153.011719 234.660156 152.226562 236.910156 151.425781 C 241.3125 149.851562 245.804688 148.597656 250.34375 147.527344 C 252.992188 146.902344 255.65625 146.316406 258.347656 145.890625 C 260.703125 145.519531 263.054688 145.097656 265.425781 144.875 C 266.761719 144.746094 268.113281 144.726562 269.453125 144.859375 C 269.933594 144.90625 270.398438 144.992188 270.863281 145.3125 C 270.621094 145.707031 270.363281 146.023438 270.21875 146.390625 C 270.042969 146.835938 270.238281 147.265625 270.417969 147.6875 C 270.839844 147.757812 271.238281 147.820312 271.613281 147.882812 C 271.867188 147.675781 272.101562 147.488281 272.289062 147.335938 C 272.664062 146.679688 272.699219 146.011719 272.707031 145.425781 Z M 272.710938 145.425781 " fill-opacity="1" fill-rule="nonzero"/></g></g></g></g><g fill="#000000" fill-opacity="1"><g transform="translate(155.705654, 233.390237)"><g><path d="M 2.71875 0 C 2.65625 0 2.617188 -0.03125 2.609375 -0.09375 L 2.453125 -0.9375 C 2.453125 -0.957031 2.4375 -0.96875 2.40625 -0.96875 L 1.234375 -0.96875 C 1.203125 -0.96875 1.1875 -0.957031 1.1875 -0.9375 L 1.03125 -0.09375 C 1.03125 -0.03125 1 0 0.9375 0 L 0.203125 0 C 0.128906 0 0.0976562 -0.0351562 0.109375 -0.109375 L 1.296875 -5.53125 C 1.304688 -5.59375 1.34375 -5.625 1.40625 -5.625 L 2.25 -5.625 C 2.3125 -5.625 2.347656 -5.59375 2.359375 -5.53125 L 3.546875 -0.109375 L 3.546875 -0.078125 C 3.546875 -0.0234375 3.519531 0 3.46875 0 Z M 1.328125 -1.75 C 1.328125 -1.71875 1.34375 -1.703125 1.375 -1.703125 L 2.265625 -1.703125 C 2.296875 -1.703125 2.3125 -1.71875 2.3125 -1.75 L 1.84375 -4.28125 C 1.832031 -4.300781 1.820312 -4.3125 1.8125 -4.3125 C 1.800781 -4.3125 1.796875 -4.300781 1.796875 -4.28125 Z M 1.328125 -1.75 "/></g></g></g><g fill="#000000" fill-opacity="1"><g transform="translate(161.777341, 233.390237)"><g><path d="M 1.484375 0 C 1.421875 0 1.382812 -0.03125 1.375 -0.09375 L 0.21875 -5.515625 L 0.21875 -5.546875 C 0.21875 -5.597656 0.25 -5.625 0.3125 -5.625 L 1.109375 -5.625 C 1.179688 -5.625 1.21875 -5.59375 1.21875 -5.53125 L 1.890625 -1.671875 C 1.890625 -1.648438 1.894531 -1.640625 1.90625 -1.640625 C 1.914062 -1.640625 1.925781 -1.648438 1.9375 -1.671875 L 2.59375 -5.53125 C 2.59375 -5.59375 2.625 -5.625 2.6875 -5.625 L 3.484375 -5.625 C 3.546875 -5.625 3.570312 -5.585938 3.5625 -5.515625 L 2.40625 -0.09375 C 2.394531 -0.03125 2.359375 0 2.296875 0 Z M 1.484375 0 "/></g></g></g><g fill="#000000" fill-opacity="1"><g transform="translate(167.969493, 233.390237)"><g><path d="M 1.875 0.0625 C 1.414062 0.0625 1.046875 -0.0703125 0.765625 -0.34375 C 0.484375 -0.625 0.34375 -1 0.34375 -1.46875 L 0.34375 -4.15625 C 0.34375 -4.613281 0.484375 -4.984375 0.765625 -5.265625 C 1.046875 -5.546875 1.414062 -5.6875 1.875 -5.6875 C 2.332031 -5.6875 2.703125 -5.546875 2.984375 -5.265625 C 3.265625 -4.984375 3.40625 -4.613281 3.40625 -4.15625 L 3.40625 -1.46875 C 3.40625 -1 3.265625 -0.625 2.984375 -0.34375 C 2.703125 -0.0703125 2.332031 0.0625 1.875 0.0625 Z M 1.875 -0.734375 C 2.050781 -0.734375 2.195312 -0.796875 2.3125 -0.921875 C 2.425781 -1.046875 2.484375 -1.210938 2.484375 -1.421875 L 2.484375 -4.203125 C 2.484375 -4.398438 2.425781 -4.5625 2.3125 -4.6875 C 2.195312 -4.820312 2.050781 -4.890625 1.875 -4.890625 C 1.6875 -4.890625 1.535156 -4.820312 1.421875 -4.6875 C 1.316406 -4.5625 1.265625 -4.398438 1.265625 -4.203125 L 1.265625 -1.421875 C 1.265625 -1.210938 1.316406 -1.046875 1.421875 -0.921875 C 1.535156 -0.796875 1.6875 -0.734375 1.875 -0.734375 Z M 1.875 -0.734375 "/></g></g></g><g fill="#000000" fill-opacity="1"><g transform="translate(174.129516, 233.390237)"><g><path d="M 1.84375 0.0625 C 1.394531 0.0625 1.03125 -0.0703125 0.75 -0.34375 C 0.476562 -0.625 0.34375 -0.992188 0.34375 -1.453125 L 0.34375 -4.1875 C 0.34375 -4.644531 0.476562 -5.007812 0.75 -5.28125 C 1.03125 -5.550781 1.394531 -5.6875 1.84375 -5.6875 C 2.300781 -5.6875 2.671875 -5.550781 2.953125 -5.28125 C 3.234375 -5.007812 3.375 -4.644531 3.375 -4.1875 L 3.375 -4.09375 C 3.375 -4.0625 3.363281 -4.035156 3.34375 -4.015625 C 3.320312 -3.992188 3.300781 -3.984375 3.28125 -3.984375 L 2.53125 -3.953125 C 2.46875 -3.953125 2.4375 -3.984375 2.4375 -4.046875 L 2.4375 -4.25 C 2.4375 -4.4375 2.378906 -4.585938 2.265625 -4.703125 C 2.160156 -4.828125 2.019531 -4.890625 1.84375 -4.890625 C 1.675781 -4.890625 1.535156 -4.828125 1.421875 -4.703125 C 1.316406 -4.585938 1.265625 -4.4375 1.265625 -4.25 L 1.265625 -1.375 C 1.265625 -1.1875 1.316406 -1.03125 1.421875 -0.90625 C 1.535156 -0.789062 1.675781 -0.734375 1.84375 -0.734375 C 2.019531 -0.734375 2.160156 -0.789062 2.265625 -0.90625 C 2.378906 -1.03125 2.4375 -1.1875 2.4375 -1.375 L 2.4375 -1.578125 C 2.4375 -1.597656 2.441406 -1.617188 2.453125 -1.640625 C 2.472656 -1.660156 2.5 -1.671875 2.53125 -1.671875 L 3.28125 -1.640625 C 3.300781 -1.640625 3.320312 -1.628906 3.34375 -1.609375 C 3.363281 -1.585938 3.375 -1.566406 3.375 -1.546875 L 3.375 -1.453125 C 3.375 -0.992188 3.234375 -0.625 2.953125 -0.34375 C 2.671875 -0.0703125 2.300781 0.0625 1.84375 0.0625 Z M 1.84375 0.0625 "/></g></g></g><g fill="#000000" fill-opacity="1"><g transform="translate(180.20923, 233.390237)"><g><path d="M 2.71875 0 C 2.65625 0 2.617188 -0.03125 2.609375 -0.09375 L 2.453125 -0.9375 C 2.453125 -0.957031 2.4375 -0.96875 2.40625 -0.96875 L 1.234375 -0.96875 C 1.203125 -0.96875 1.1875 -0.957031 1.1875 -0.9375 L 1.03125 -0.09375 C 1.03125 -0.03125 1 0 0.9375 0 L 0.203125 0 C 0.128906 0 0.0976562 -0.0351562 0.109375 -0.109375 L 1.296875 -5.53125 C 1.304688 -5.59375 1.34375 -5.625 1.40625 -5.625 L 2.25 -5.625 C 2.3125 -5.625 2.347656 -5.59375 2.359375 -5.53125 L 3.546875 -0.109375 L 3.546875 -0.078125 C 3.546875 -0.0234375 3.519531 0 3.46875 0 Z M 1.328125 -1.75 C 1.328125 -1.71875 1.34375 -1.703125 1.375 -1.703125 L 2.265625 -1.703125 C 2.296875 -1.703125 2.3125 -1.71875 2.3125 -1.75 L 1.84375 -4.28125 C 1.832031 -4.300781 1.820312 -4.3125 1.8125 -4.3125 C 1.800781 -4.3125 1.796875 -4.300781 1.796875 -4.28125 Z M 1.328125 -1.75 "/></g></g></g><g fill="#000000" fill-opacity="1"><g transform="translate(186.280916, 233.390237)"><g><path d="M 3.3125 -5.625 C 3.34375 -5.625 3.363281 -5.613281 3.375 -5.59375 C 3.394531 -5.570312 3.40625 -5.550781 3.40625 -5.53125 L 3.40625 -4.921875 C 3.40625 -4.890625 3.394531 -4.863281 3.375 -4.84375 C 3.363281 -4.820312 3.34375 -4.8125 3.3125 -4.8125 L 2.296875 -4.8125 C 2.265625 -4.8125 2.25 -4.800781 2.25 -4.78125 L 2.25 -0.09375 C 2.25 -0.0703125 2.238281 -0.0507812 2.21875 -0.03125 C 2.207031 -0.0078125 2.1875 0 2.15625 0 L 1.421875 0 C 1.390625 0 1.363281 -0.0078125 1.34375 -0.03125 C 1.332031 -0.0507812 1.328125 -0.0703125 1.328125 -0.09375 L 1.328125 -4.78125 C 1.328125 -4.800781 1.3125 -4.8125 1.28125 -4.8125 L 0.328125 -4.8125 C 0.296875 -4.8125 0.269531 -4.820312 0.25 -4.84375 C 0.226562 -4.863281 0.21875 -4.890625 0.21875 -4.921875 L 0.21875 -5.53125 C 0.21875 -5.550781 0.226562 -5.570312 0.25 -5.59375 C 0.269531 -5.613281 0.296875 -5.625 0.328125 -5.625 Z M 3.3125 -5.625 "/></g></g></g><g fill="#000000" fill-opacity="1"><g transform="translate(192.320474, 233.390237)"><g><path d="M 3.234375 -4.921875 C 3.234375 -4.890625 3.222656 -4.863281 3.203125 -4.84375 C 3.191406 -4.820312 3.171875 -4.8125 3.140625 -4.8125 L 1.40625 -4.8125 C 1.375 -4.8125 1.359375 -4.800781 1.359375 -4.78125 L 1.359375 -3.265625 C 1.359375 -3.234375 1.375 -3.21875 1.40625 -3.21875 L 2.4375 -3.21875 C 2.457031 -3.21875 2.476562 -3.207031 2.5 -3.1875 C 2.519531 -3.175781 2.53125 -3.15625 2.53125 -3.125 L 2.53125 -2.5 C 2.53125 -2.476562 2.519531 -2.457031 2.5 -2.4375 C 2.476562 -2.414062 2.457031 -2.40625 2.4375 -2.40625 L 1.40625 -2.40625 C 1.375 -2.40625 1.359375 -2.394531 1.359375 -2.375 L 1.359375 -0.84375 C 1.359375 -0.8125 1.375 -0.796875 1.40625 -0.796875 L 3.140625 -0.796875 C 3.171875 -0.796875 3.191406 -0.785156 3.203125 -0.765625 C 3.222656 -0.753906 3.234375 -0.734375 3.234375 -0.703125 L 3.234375 -0.09375 C 3.234375 -0.0703125 3.222656 -0.0507812 3.203125 -0.03125 C 3.191406 -0.0078125 3.171875 0 3.140625 0 L 0.53125 0 C 0.5 0 0.472656 -0.0078125 0.453125 -0.03125 C 0.441406 -0.0507812 0.4375 -0.0703125 0.4375 -0.09375 L 0.4375 -5.53125 C 0.4375 -5.550781 0.441406 -5.570312 0.453125 -5.59375 C 0.472656 -5.613281 0.5 -5.625 0.53125 -5.625 L 3.140625 -5.625 C 3.171875 -5.625 3.191406 -5.613281 3.203125 -5.59375 C 3.222656 -5.570312 3.234375 -5.550781 3.234375 -5.53125 Z M 3.234375 -4.921875 "/></g></g></g><g fill="#000000" fill-opacity="1"><g transform="translate(110.730486, 217.23709)"><g><path d="M 3.1875 0.09375 C 2.457031 0.09375 1.867188 -0.117188 1.421875 -0.546875 C 0.984375 -0.984375 0.765625 -1.554688 0.765625 -2.265625 L 0.765625 -6.140625 C 0.765625 -6.859375 0.984375 -7.429688 1.421875 -7.859375 C 1.867188 -8.285156 2.457031 -8.5 3.1875 -8.5 C 3.925781 -8.5 4.515625 -8.285156 4.953125 -7.859375 C 5.398438 -7.429688 5.625 -6.867188 5.625 -6.171875 L 5.625 -6.0625 C 5.625 -5.976562 5.585938 -5.9375 5.515625 -5.9375 L 4.890625 -5.921875 C 4.816406 -5.921875 4.78125 -5.957031 4.78125 -6.03125 L 4.78125 -6.1875 C 4.78125 -6.65625 4.632812 -7.03125 4.34375 -7.3125 C 4.050781 -7.601562 3.664062 -7.75 3.1875 -7.75 C 2.71875 -7.75 2.335938 -7.609375 2.046875 -7.328125 C 1.765625 -7.046875 1.625 -6.664062 1.625 -6.1875 L 1.625 -2.203125 C 1.625 -1.734375 1.765625 -1.351562 2.046875 -1.0625 C 2.335938 -0.78125 2.71875 -0.640625 3.1875 -0.640625 C 3.664062 -0.640625 4.050781 -0.785156 4.34375 -1.078125 C 4.632812 -1.367188 4.78125 -1.742188 4.78125 -2.203125 L 4.78125 -2.375 C 4.78125 -2.445312 4.816406 -2.484375 4.890625 -2.484375 L 5.515625 -2.453125 C 5.585938 -2.453125 5.625 -2.410156 5.625 -2.328125 L 5.625 -2.25 C 5.625 -1.539062 5.398438 -0.972656 4.953125 -0.546875 C 4.515625 -0.117188 3.925781 0.09375 3.1875 0.09375 Z M 3.1875 0.09375 "/></g></g></g><g fill="#000000" fill-opacity="1"><g transform="translate(120.642542, 217.23709)"><g><path d="M 4.921875 -8.28125 C 4.921875 -8.363281 4.960938 -8.40625 5.046875 -8.40625 L 5.65625 -8.40625 C 5.726562 -8.40625 5.765625 -8.363281 5.765625 -8.28125 L 5.765625 -0.125 C 5.765625 -0.0390625 5.726562 0 5.65625 0 L 5.046875 0 C 4.960938 0 4.921875 -0.0390625 4.921875 -0.125 L 4.921875 -3.796875 C 4.921875 -3.828125 4.90625 -3.84375 4.875 -3.84375 L 1.890625 -3.84375 C 1.859375 -3.84375 1.84375 -3.828125 1.84375 -3.796875 L 1.84375 -0.125 C 1.84375 -0.0390625 1.804688 0 1.734375 0 L 1.109375 0 C 1.035156 0 1 -0.0390625 1 -0.125 L 1 -8.28125 C 1 -8.363281 1.035156 -8.40625 1.109375 -8.40625 L 1.734375 -8.40625 C 1.804688 -8.40625 1.84375 -8.363281 1.84375 -8.28125 L 1.84375 -4.625 C 1.84375 -4.59375 1.859375 -4.578125 1.890625 -4.578125 L 4.875 -4.578125 C 4.90625 -4.578125 4.921875 -4.59375 4.921875 -4.625 Z M 4.921875 -8.28125 "/></g></g></g><g fill="#000000" fill-opacity="1"><g transform="translate(130.998595, 217.23709)"><g><path d="M 5.109375 0 C 5.046875 0 5.003906 -0.03125 4.984375 -0.09375 L 3.484375 -3.796875 C 3.484375 -3.828125 3.46875 -3.84375 3.4375 -3.84375 L 1.890625 -3.84375 C 1.859375 -3.84375 1.84375 -3.828125 1.84375 -3.796875 L 1.84375 -0.125 C 1.84375 -0.0390625 1.804688 0 1.734375 0 L 1.109375 0 C 1.035156 0 1 -0.0390625 1 -0.125 L 1 -8.28125 C 1 -8.363281 1.035156 -8.40625 1.109375 -8.40625 L 3.65625 -8.40625 C 4.070312 -8.40625 4.441406 -8.304688 4.765625 -8.109375 C 5.085938 -7.921875 5.335938 -7.648438 5.515625 -7.296875 C 5.703125 -6.941406 5.796875 -6.535156 5.796875 -6.078125 C 5.796875 -5.535156 5.660156 -5.070312 5.390625 -4.6875 C 5.128906 -4.300781 4.769531 -4.046875 4.3125 -3.921875 C 4.28125 -3.910156 4.273438 -3.890625 4.296875 -3.859375 L 5.84375 -0.140625 L 5.859375 -0.09375 C 5.859375 -0.03125 5.820312 0 5.75 0 Z M 1.890625 -7.65625 C 1.859375 -7.65625 1.84375 -7.640625 1.84375 -7.609375 L 1.84375 -4.578125 C 1.84375 -4.546875 1.859375 -4.53125 1.890625 -4.53125 L 3.546875 -4.53125 C 3.960938 -4.53125 4.296875 -4.671875 4.546875 -4.953125 C 4.804688 -5.242188 4.9375 -5.617188 4.9375 -6.078125 C 4.9375 -6.554688 4.804688 -6.9375 4.546875 -7.21875 C 4.296875 -7.507812 3.960938 -7.65625 3.546875 -7.65625 Z M 1.890625 -7.65625 "/></g></g></g><g fill="#000000" fill-opacity="1"><g transform="translate(140.93465, 217.23709)"><g><path d="M 1.109375 0 C 1.035156 0 1 -0.0390625 1 -0.125 L 1 -8.28125 C 1 -8.363281 1.035156 -8.40625 1.109375 -8.40625 L 1.734375 -8.40625 C 1.804688 -8.40625 1.84375 -8.363281 1.84375 -8.28125 L 1.84375 -0.125 C 1.84375 -0.0390625 1.804688 0 1.734375 0 Z M 1.109375 0 "/></g></g></g><g fill="#000000" fill-opacity="1"><g transform="translate(147.3787, 217.23709)"><g><path d="M 3.03125 0.09375 C 2.269531 0.09375 1.664062 -0.101562 1.21875 -0.5 C 0.78125 -0.894531 0.5625 -1.425781 0.5625 -2.09375 L 0.5625 -2.40625 C 0.5625 -2.488281 0.601562 -2.53125 0.6875 -2.53125 L 1.265625 -2.53125 C 1.347656 -2.53125 1.390625 -2.488281 1.390625 -2.40625 L 1.390625 -2.140625 C 1.390625 -1.691406 1.539062 -1.328125 1.84375 -1.046875 C 2.144531 -0.773438 2.550781 -0.640625 3.0625 -0.640625 C 3.53125 -0.640625 3.898438 -0.769531 4.171875 -1.03125 C 4.441406 -1.289062 4.578125 -1.628906 4.578125 -2.046875 C 4.578125 -2.316406 4.515625 -2.550781 4.390625 -2.75 C 4.265625 -2.945312 4.078125 -3.128906 3.828125 -3.296875 C 3.578125 -3.460938 3.222656 -3.675781 2.765625 -3.9375 C 2.265625 -4.195312 1.867188 -4.425781 1.578125 -4.625 C 1.296875 -4.832031 1.066406 -5.078125 0.890625 -5.359375 C 0.722656 -5.648438 0.640625 -6.003906 0.640625 -6.421875 C 0.640625 -7.066406 0.847656 -7.570312 1.265625 -7.9375 C 1.679688 -8.3125 2.234375 -8.5 2.921875 -8.5 C 3.671875 -8.5 4.265625 -8.289062 4.703125 -7.875 C 5.140625 -7.46875 5.359375 -6.929688 5.359375 -6.265625 L 5.359375 -5.984375 C 5.359375 -5.910156 5.320312 -5.875 5.25 -5.875 L 4.640625 -5.875 C 4.566406 -5.875 4.53125 -5.910156 4.53125 -5.984375 L 4.53125 -6.25 C 4.53125 -6.695312 4.382812 -7.054688 4.09375 -7.328125 C 3.800781 -7.609375 3.40625 -7.75 2.90625 -7.75 C 2.457031 -7.75 2.101562 -7.632812 1.84375 -7.40625 C 1.59375 -7.175781 1.46875 -6.847656 1.46875 -6.421875 C 1.46875 -6.148438 1.53125 -5.921875 1.65625 -5.734375 C 1.78125 -5.546875 1.953125 -5.375 2.171875 -5.21875 C 2.398438 -5.070312 2.753906 -4.875 3.234375 -4.625 C 3.773438 -4.3125 4.191406 -4.050781 4.484375 -3.84375 C 4.773438 -3.632812 5.003906 -3.390625 5.171875 -3.109375 C 5.347656 -2.835938 5.4375 -2.5 5.4375 -2.09375 C 5.4375 -1.425781 5.21875 -0.894531 4.78125 -0.5 C 4.351562 -0.101562 3.769531 0.09375 3.03125 0.09375 Z M 3.03125 0.09375 "/></g></g></g><g fill="#000000" fill-opacity="1"><g transform="translate(156.978756, 217.23709)"><g><path d="M 5.359375 -8.40625 C 5.441406 -8.40625 5.484375 -8.363281 5.484375 -8.28125 L 5.484375 -7.78125 C 5.484375 -7.695312 5.441406 -7.65625 5.359375 -7.65625 L 3.40625 -7.65625 C 3.375 -7.65625 3.359375 -7.640625 3.359375 -7.609375 L 3.359375 -0.125 C 3.359375 -0.0390625 3.316406 0 3.234375 0 L 2.625 0 C 2.550781 0 2.515625 -0.0390625 2.515625 -0.125 L 2.515625 -7.609375 C 2.515625 -7.640625 2.492188 -7.65625 2.453125 -7.65625 L 0.578125 -7.65625 C 0.492188 -7.65625 0.453125 -7.695312 0.453125 -7.78125 L 0.453125 -8.28125 C 0.453125 -8.363281 0.492188 -8.40625 0.578125 -8.40625 Z M 5.359375 -8.40625 "/></g></g></g><g fill="#000000" fill-opacity="1"><g transform="translate(166.530815, 217.23709)"><g><path d="M 1.109375 0 C 1.035156 0 1 -0.0390625 1 -0.125 L 1 -8.28125 C 1 -8.363281 1.035156 -8.40625 1.109375 -8.40625 L 1.734375 -8.40625 C 1.804688 -8.40625 1.84375 -8.363281 1.84375 -8.28125 L 1.84375 -0.125 C 1.84375 -0.0390625 1.804688 0 1.734375 0 Z M 1.109375 0 "/></g></g></g><g fill="#000000" fill-opacity="1"><g transform="translate(172.974863, 217.23709)"><g><path d="M 5.171875 -8.28125 C 5.171875 -8.363281 5.210938 -8.40625 5.296875 -8.40625 L 5.90625 -8.40625 C 5.988281 -8.40625 6.03125 -8.363281 6.03125 -8.28125 L 6.03125 -0.125 C 6.03125 -0.0390625 5.988281 0 5.90625 0 L 5.25 0 C 5.175781 0 5.128906 -0.0234375 5.109375 -0.078125 L 1.890625 -6.5 C 1.878906 -6.519531 1.867188 -6.53125 1.859375 -6.53125 C 1.847656 -6.53125 1.84375 -6.515625 1.84375 -6.484375 L 1.84375 -0.125 C 1.84375 -0.0390625 1.804688 0 1.734375 0 L 1.109375 0 C 1.035156 0 1 -0.0390625 1 -0.125 L 1 -8.28125 C 1 -8.363281 1.035156 -8.40625 1.109375 -8.40625 L 1.765625 -8.40625 C 1.835938 -8.40625 1.882812 -8.375 1.90625 -8.3125 L 5.125 -1.875 C 5.132812 -1.851562 5.144531 -1.84375 5.15625 -1.84375 C 5.175781 -1.84375 5.1875 -1.859375 5.1875 -1.890625 Z M 5.171875 -8.28125 "/></g></g></g><g fill="#000000" fill-opacity="1"><g transform="translate(183.594922, 217.23709)"><g><path d="M 5.609375 -7.78125 C 5.609375 -7.695312 5.570312 -7.65625 5.5 -7.65625 L 1.890625 -7.65625 C 1.859375 -7.65625 1.84375 -7.640625 1.84375 -7.609375 L 1.84375 -4.625 C 1.84375 -4.59375 1.859375 -4.578125 1.890625 -4.578125 L 4.3125 -4.578125 C 4.394531 -4.578125 4.4375 -4.539062 4.4375 -4.46875 L 4.4375 -3.953125 C 4.4375 -3.878906 4.394531 -3.84375 4.3125 -3.84375 L 1.890625 -3.84375 C 1.859375 -3.84375 1.84375 -3.828125 1.84375 -3.796875 L 1.84375 -0.796875 C 1.84375 -0.765625 1.859375 -0.75 1.890625 -0.75 L 5.5 -0.75 C 5.570312 -0.75 5.609375 -0.707031 5.609375 -0.625 L 5.609375 -0.125 C 5.609375 -0.0390625 5.570312 0 5.5 0 L 1.109375 0 C 1.035156 0 1 -0.0390625 1 -0.125 L 1 -8.28125 C 1 -8.363281 1.035156 -8.40625 1.109375 -8.40625 L 5.5 -8.40625 C 5.570312 -8.40625 5.609375 -8.363281 5.609375 -8.28125 Z M 5.609375 -7.78125 "/></g></g></g><g fill="#000000" fill-opacity="1"><g transform="translate(193.398984, 217.23709)"><g/></g></g><g fill="#000000" fill-opacity="1"><g transform="translate(199.39904, 217.23709)"><g><path d="M 5.109375 0 C 5.046875 0 5.003906 -0.03125 4.984375 -0.09375 L 3.484375 -3.796875 C 3.484375 -3.828125 3.46875 -3.84375 3.4375 -3.84375 L 1.890625 -3.84375 C 1.859375 -3.84375 1.84375 -3.828125 1.84375 -3.796875 L 1.84375 -0.125 C 1.84375 -0.0390625 1.804688 0 1.734375 0 L 1.109375 0 C 1.035156 0 1 -0.0390625 1 -0.125 L 1 -8.28125 C 1 -8.363281 1.035156 -8.40625 1.109375 -8.40625 L 3.65625 -8.40625 C 4.070312 -8.40625 4.441406 -8.304688 4.765625 -8.109375 C 5.085938 -7.921875 5.335938 -7.648438 5.515625 -7.296875 C 5.703125 -6.941406 5.796875 -6.535156 5.796875 -6.078125 C 5.796875 -5.535156 5.660156 -5.070312 5.390625 -4.6875 C 5.128906 -4.300781 4.769531 -4.046875 4.3125 -3.921875 C 4.28125 -3.910156 4.273438 -3.890625 4.296875 -3.859375 L 5.84375 -0.140625 L 5.859375 -0.09375 C 5.859375 -0.03125 5.820312 0 5.75 0 Z M 1.890625 -7.65625 C 1.859375 -7.65625 1.84375 -7.640625 1.84375 -7.609375 L 1.84375 -4.578125 C 1.84375 -4.546875 1.859375 -4.53125 1.890625 -4.53125 L 3.546875 -4.53125 C 3.960938 -4.53125 4.296875 -4.671875 4.546875 -4.953125 C 4.804688 -5.242188 4.9375 -5.617188 4.9375 -6.078125 C 4.9375 -6.554688 4.804688 -6.9375 4.546875 -7.21875 C 4.296875 -7.507812 3.960938 -7.65625 3.546875 -7.65625 Z M 1.890625 -7.65625 "/></g></g></g><g fill="#000000" fill-opacity="1"><g transform="translate(209.335098, 217.23709)"><g><path d="M 1.109375 0 C 1.035156 0 1 -0.0390625 1 -0.125 L 1 -8.28125 C 1 -8.363281 1.035156 -8.40625 1.109375 -8.40625 L 1.734375 -8.40625 C 1.804688 -8.40625 1.84375 -8.363281 1.84375 -8.28125 L 1.84375 -0.125 C 1.84375 -0.0390625 1.804688 0 1.734375 0 Z M 1.109375 0 "/></g></g></g><g fill="#000000" fill-opacity="1"><g transform="translate(215.779151, 217.23709)"><g><path d="M 0.59375 0 C 0.507812 0 0.46875 -0.0390625 0.46875 -0.125 L 0.46875 -0.6875 C 0.46875 -0.726562 0.476562 -0.78125 0.5 -0.84375 L 4.15625 -7.59375 C 4.164062 -7.632812 4.15625 -7.65625 4.125 -7.65625 L 0.59375 -7.65625 C 0.507812 -7.65625 0.46875 -7.695312 0.46875 -7.78125 L 0.46875 -8.28125 C 0.46875 -8.363281 0.507812 -8.40625 0.59375 -8.40625 L 4.984375 -8.40625 C 5.066406 -8.40625 5.109375 -8.363281 5.109375 -8.28125 L 5.109375 -7.71875 C 5.109375 -7.675781 5.097656 -7.625 5.078125 -7.5625 L 1.421875 -0.796875 C 1.410156 -0.765625 1.421875 -0.75 1.453125 -0.75 L 4.984375 -0.75 C 5.066406 -0.75 5.109375 -0.707031 5.109375 -0.625 L 5.109375 -0.125 C 5.109375 -0.0390625 5.066406 0 4.984375 0 Z M 0.59375 0 "/></g></g></g><g fill="#000000" fill-opacity="1"><g transform="translate(225.043211, 217.23709)"><g><path d="M 0.59375 0 C 0.507812 0 0.46875 -0.0390625 0.46875 -0.125 L 0.46875 -0.6875 C 0.46875 -0.726562 0.476562 -0.78125 0.5 -0.84375 L 4.15625 -7.59375 C 4.164062 -7.632812 4.15625 -7.65625 4.125 -7.65625 L 0.59375 -7.65625 C 0.507812 -7.65625 0.46875 -7.695312 0.46875 -7.78125 L 0.46875 -8.28125 C 0.46875 -8.363281 0.507812 -8.40625 0.59375 -8.40625 L 4.984375 -8.40625 C 5.066406 -8.40625 5.109375 -8.363281 5.109375 -8.28125 L 5.109375 -7.71875 C 5.109375 -7.675781 5.097656 -7.625 5.078125 -7.5625 L 1.421875 -0.796875 C 1.410156 -0.765625 1.421875 -0.75 1.453125 -0.75 L 4.984375 -0.75 C 5.066406 -0.75 5.109375 -0.707031 5.109375 -0.625 L 5.109375 -0.125 C 5.109375 -0.0390625 5.066406 0 4.984375 0 Z M 0.59375 0 "/></g></g></g><g fill="#000000" fill-opacity="1"><g transform="translate(234.307272, 217.23709)"><g><path d="M 3.234375 0.09375 C 2.742188 0.09375 2.3125 -0.00390625 1.9375 -0.203125 C 1.5625 -0.410156 1.269531 -0.695312 1.0625 -1.0625 C 0.863281 -1.4375 0.765625 -1.863281 0.765625 -2.34375 L 0.765625 -6.046875 C 0.765625 -6.523438 0.863281 -6.953125 1.0625 -7.328125 C 1.269531 -7.703125 1.5625 -7.988281 1.9375 -8.1875 C 2.3125 -8.394531 2.742188 -8.5 3.234375 -8.5 C 3.710938 -8.5 4.140625 -8.394531 4.515625 -8.1875 C 4.890625 -7.988281 5.179688 -7.703125 5.390625 -7.328125 C 5.597656 -6.953125 5.703125 -6.523438 5.703125 -6.046875 L 5.703125 -2.34375 C 5.703125 -1.863281 5.597656 -1.4375 5.390625 -1.0625 C 5.179688 -0.695312 4.890625 -0.410156 4.515625 -0.203125 C 4.140625 -0.00390625 3.710938 0.09375 3.234375 0.09375 Z M 3.234375 -0.640625 C 3.710938 -0.640625 4.097656 -0.789062 4.390625 -1.09375 C 4.691406 -1.40625 4.84375 -1.804688 4.84375 -2.296875 L 4.84375 -6.078125 C 4.84375 -6.578125 4.691406 -6.976562 4.390625 -7.28125 C 4.097656 -7.59375 3.710938 -7.75 3.234375 -7.75 C 2.753906 -7.75 2.363281 -7.59375 2.0625 -7.28125 C 1.769531 -6.976562 1.625 -6.578125 1.625 -6.078125 L 1.625 -2.296875 C 1.625 -1.804688 1.769531 -1.40625 2.0625 -1.09375 C 2.363281 -0.789062 2.753906 -0.640625 3.234375 -0.640625 Z M 3.234375 -0.640625 "/></g></g></g><g clip-path="url(#9474e03c65)"><g clip-path="url(#d70af7c934)"><path fill="#232020" d="M 164.476562 143.175781 L 174.074219 143.175781 L 174.074219 154.5 L 164.476562 154.5 Z M 164.476562 143.175781 " fill-opacity="1" fill-rule="nonzero"/></g></g><g clip-path="url(#8f213c1879)"><g clip-path="url(#33481f10e3)"><path fill="#232020" d="M 164.398438 145.199219 L 176.175781 145.199219 L 176.175781 155.25 L 164.398438 155.25 Z M 164.398438 145.199219 " fill-opacity="1" fill-rule="nonzero"/></g></g><g clip-path="url(#6f6c6a2c09)"><g clip-path="url(#e2afc52998)"><path fill="#232020" d="M 168.898438 142.875 L 179.488281 142.875 L 179.488281 153.300781 L 168.898438 153.300781 Z M 168.898438 142.875 " fill-opacity="1" fill-rule="nonzero"/></g></g><g clip-path="url(#4b852a7d39)"><g clip-path="url(#159b6f0a9e)"><path fill="#232020" d="M 171.976562 139.800781 L 179.550781 139.800781 L 179.550781 150.15625 L 171.976562 150.15625 Z M 171.976562 139.800781 " fill-opacity="1" fill-rule="nonzero"/></g></g><g clip-path="url(#3b2b4b9618)"><g clip-path="url(#1bc4a5a0c2)"><path fill="#232020" d="M 184.574219 147.675781 L 192.300781 147.675781 L 192.300781 158.628906 L 184.574219 158.628906 Z M 184.574219 147.675781 " fill-opacity="1" fill-rule="nonzero"/></g></g><g clip-path="url(#0d63d3855f)"><g clip-path="url(#e46256dcc6)"><path fill="#232020" d="M 167.023438 142.800781 L 173.175781 142.800781 L 173.175781 150.078125 L 167.023438 150.078125 Z M 167.023438 142.800781 " fill-opacity="1" fill-rule="nonzero"/></g></g><g clip-path="url(#c0c5e3ce1e)"><g clip-path="url(#fa53524d50)"><path fill="#232020" d="M 165.375 143.398438 L 173.472656 143.398438 L 173.472656 151.050781 L 165.375 151.050781 Z M 165.375 143.398438 " fill-opacity="1" fill-rule="nonzero"/></g></g><g clip-path="url(#c5b7979e3b)"><g clip-path="url(#83c960ab47)"><path fill="#232020" d="M 165.75 143.175781 L 173.707031 143.175781 L 173.707031 150.226562 L 165.75 150.226562 Z M 165.75 143.175781 " fill-opacity="1" fill-rule="nonzero"/></g></g><g clip-path="url(#86f811866a)"><g clip-path="url(#0523a09e71)"><path fill="#232020" d="M 195.824219 169.875 L 203.179688 169.875 L 203.179688 176.925781 L 195.824219 176.925781 Z M 195.824219 169.875 " fill-opacity="1" fill-rule="nonzero"/></g></g><g clip-path="url(#64e12046ed)"><g clip-path="url(#f2b65f65a5)"><path fill="#232020" d="M 195.300781 170.101562 L 203.40625 170.101562 L 203.40625 177.898438 L 195.300781 177.898438 Z M 195.300781 170.101562 " fill-opacity="1" fill-rule="nonzero"/></g></g></svg>