<?xml version="1.0" encoding="utf-8" ?>
<svg xmlns="http://www.w3.org/2000/svg" xmlns:xlink="http://www.w3.org/1999/xlink" width="789" height="789">
	<path fill="#FDFCFB" transform="scale(0.770917 0.770917)" d="M0 0L1024 0L1024 1024L0 1024L0 0Z"/>
	<path fill="#F0D197" transform="scale(0.770917 0.770917)" d="M610.82 236.02C643.459 189.92 689.928 157.592 746.08 147.939Q748.627 147.503 751.185 147.13Q753.742 146.757 756.308 146.447Q758.874 146.137 761.447 145.89Q764.019 145.643 766.597 145.46Q769.175 145.277 771.757 145.157Q774.339 145.037 776.922 144.981Q779.506 144.925 782.091 144.932Q784.675 144.94 787.259 145.011Q789.842 145.082 792.423 145.216Q795.004 145.351 797.581 145.549Q800.158 145.747 802.729 146.009Q805.3 146.27 807.864 146.595Q810.428 146.92 812.984 147.308Q815.539 147.695 818.084 148.146Q820.629 148.596 823.162 149.11Q825.695 149.623 828.214 150.198Q830.734 150.773 833.239 151.41Q835.743 152.047 838.232 152.746Q840.72 153.445 843.19 154.204Q845.661 154.964 848.111 155.784Q850.562 156.604 852.992 157.485Q855.422 158.365 857.83 159.305Q860.237 160.245 862.621 161.244Q865.004 162.243 867.363 163.3Q869.721 164.357 872.053 165.472Q874.384 166.587 876.688 167.759Q878.991 168.931 881.265 170.16Q883.539 171.388 885.782 172.672Q888.025 173.956 890.235 175.295Q892.446 176.634 894.623 178.027Q896.8 179.42 898.942 180.866Q901.084 182.312 903.19 183.81C947.307 215.183 977.939 265.433 986.888 318.671C996.405 375.291 985.138 433.901 951.445 480.977C938.415 499.182 921.492 516.557 902.622 528.753C895.403 533.419 885.662 537.528 879.373 543.113C867.414 529.941 855.442 520.424 837.689 516.669C821.75 495.489 828.116 469.091 825.671 444.482C824.001 427.676 819.983 411.818 813.647 396.186C804.213 372.912 786.811 349.987 763.04 340.117C750.248 334.806 735.078 333.358 722.062 338.764C716.537 341.059 705.834 348.352 703.908 354.147C703.666 354.876 704.101 355.197 704.452 355.811C703.337 356.074 703.406 356.356 702.528 356.873C702.422 356.935 702.289 356.931 702.169 356.96C701.677 356.176 701.313 355.779 700.65 355.163C696.682 354.242 692.371 356.235 688.607 357.454Q659.622 313.17 631.469 268.354C624.685 257.5 617.171 247.15 610.82 236.02Z"/>
	<path fill="#B7C7A6" transform="scale(0.770917 0.770917)" d="M877.207 696.917C876.066 703.468 871.513 713.067 868.74 719.347C838.633 787.53 784.167 836.646 714.89 863.56C645.13 890.661 573.101 889.044 502.815 865.114C465.137 852.286 438.224 839.584 397.255 842.581C371.093 844.495 346.365 853.769 321.54 861.549C275.194 876.074 223.678 883.262 177.902 862.925C104.198 830.18 78.9192 749.223 83.7845 674.188Q84.9299 658.566 87.6117 643.134Q90.2935 627.702 94.4856 612.61C99.8855 592.438 107.324 573.003 114.767 553.522C126.97 521.579 140.298 488.942 138.635 454.052C136.745 414.391 109.478 389.945 96.3185 355.166C86.0507 328.029 85.3368 299.865 97.3751 273.166C115.694 232.537 153.522 205.049 194.276 189.537C255.527 166.222 327.943 169.499 387.517 196.377C433.06 216.925 473.7 253.307 491.58 300.715C500.915 297.712 511.644 295.919 521.326 294.251Q543.403 257.916 566.09 221.959L577.987 203.157C579.286 201.088 580.387 198.467 581.916 196.61C582.559 195.829 582.887 195.579 583.823 195.28C587.186 197.277 606.981 230.049 610.82 236.02C617.171 247.15 624.685 257.5 631.469 268.354Q659.622 313.17 688.607 357.454C692.371 356.235 696.682 354.242 700.65 355.163C701.313 355.779 701.677 356.176 702.169 356.96C702.289 356.931 702.422 356.935 702.528 356.873C703.406 356.356 703.337 356.074 704.452 355.811C704.101 355.197 703.666 354.876 703.908 354.147C705.834 348.352 716.537 341.059 722.062 338.764C735.078 333.358 750.248 334.806 763.04 340.117C786.811 349.987 804.213 372.912 813.647 396.186C819.983 411.818 824.001 427.676 825.671 444.482C828.116 469.091 821.75 495.489 837.689 516.669C855.442 520.424 867.414 529.941 879.373 543.113C899.3 564.886 906.832 594.666 905.58 623.627C904.366 651.724 893.401 674.64 877.207 696.917Z"/>
	<path fill="#424238" transform="scale(0.770917 0.770917)" d="M218.86 465.49C211.772 451.952 210.116 437.64 213.919 422.775C215.108 418.126 217.183 413.599 218.191 408.936C218.722 406.478 218.398 403.958 218.881 401.511C219.499 398.381 221.594 396.689 224.161 395.041C228.333 392.361 232.996 390.115 237.378 387.765C256.985 377.252 275.748 370.981 298.134 376.106C310.691 378.981 313.138 381.855 319.783 392.409C326.715 395.742 333.53 398.918 338.6 404.918C350.586 419.105 347.889 441.116 346.345 458.208C350.826 460.341 353.672 462.891 355.523 467.61C357.967 473.843 357.607 481.73 354.919 487.827C352.599 493.092 349.121 496.26 343.778 498.225C339.903 517.627 334.296 534.334 320.792 549.282L322.578 557.637C348.908 567.012 388.25 579.263 408.307 598.359C414.053 603.83 418.26 610.407 422.637 616.962C439.082 617.223 455.569 616.854 472.018 616.777L562.985 616.427C564.535 617.24 565.551 617.835 566.63 619.229C567.579 623.396 560.739 677.697 559.953 686.186C558.204 699.748 547.756 802.551 545.889 805.174C544.158 806.052 542.466 806.245 540.538 806.291C511.05 807.006 481.342 806.336 451.829 806.36L291.402 806.336L249.867 806.198C243.619 806.237 228.695 807.345 223.509 806.013C222.015 805.63 221.211 804.879 220.517 803.559C220.605 802.452 221.139 801.766 221.954 801.058C226.105 797.455 238.864 793.959 244.316 792.008C253.637 788.672 273.643 780.554 282.717 779.051C287.521 778.255 324.024 782.3 331.33 783.003C332.025 777.506 332.475 772.055 332.794 766.524L186.893 765.489L142.401 765.334C134.523 765.323 125.721 766.045 117.971 764.829C117.515 764.343 117.449 764.326 117.091 763.647C114.887 759.471 116.44 748.591 116.73 743.809C118.751 710.449 122.426 671.135 134.279 639.735C138.269 629.163 144.64 619.005 152.895 611.246C162.872 601.869 183.549 592.205 195.936 584.533C209.958 575.849 223.084 565.164 238.125 558.29C239.088 551.026 241.68 526.385 239.86 520.696C238.495 516.429 235.413 511.84 233.763 507.272C228.302 505.615 223.938 503.835 220.165 499.286C215.175 493.27 212.188 484.227 212.94 476.421C213.406 471.577 215.219 468.569 218.86 465.49Z"/>
	<path fill="#F0D197" transform="scale(0.770917 0.770917)" d="M345.982 462.985C346.688 463.284 347.272 463.557 347.92 463.958C350.661 465.656 352.164 468.571 352.832 471.667C354.264 478.301 352.76 484.93 349.053 490.515C347.687 492.023 346.019 493.019 344.33 494.124Q344.983 488.254 345.079 482.348C345.144 476.13 344.011 468.915 345.982 462.985Z"/>
	<path fill="#F0D197" transform="scale(0.770917 0.770917)" d="M219.894 469.21C221.244 469.817 222.04 470.912 222.933 472.045C228.123 478.626 228.302 485.008 230.045 492.865C230.692 495.78 232.062 499.388 231.725 502.367L230.67 502.681C229.422 502.058 228.183 501.401 227.041 500.595C221.698 496.828 218.403 490.01 217.314 483.685C216.423 478.505 216.815 473.572 219.894 469.21Z"/>
	<path fill="#F0D197" transform="scale(0.770917 0.770917)" d="M284.795 783.13C300.211 785.093 315.746 786.242 331.216 787.754Q330.768 794.845 330.129 801.921L280.25 801.655Q255.997 801.389 231.75 801.979C249.067 795.174 267.017 788.591 284.795 783.13Z"/>
	<path fill="#F0D197" transform="scale(0.770917 0.770917)" d="M244.063 528.383C247.441 531.559 250.331 536.114 253.491 539.651C262.779 550.046 276.474 558.605 290.523 560.227C300.896 561.425 309.112 558.215 317.148 551.868L319.047 561.403C315.408 570.475 310.929 579.392 306.912 588.319Q302.562 597.954 298.003 607.493C279.425 591.817 261.334 575.572 242.408 560.312C242.527 550.239 243.54 538.645 244.063 528.383Z"/>
	<path fill="#F0D197" transform="scale(0.770917 0.770917)" d="M313.772 412.939C314.739 413.045 315.656 413.513 316.491 414.002C327.505 420.457 335.707 441.878 338.404 453.69C344.498 480.381 340.979 512.828 326.125 536.223C320.379 545.273 311.933 553.488 301.156 555.81C289.65 558.289 279.034 554.014 269.434 547.915C259.23 541.334 250.959 532.139 244.805 521.723C232.782 501.375 228.686 474.881 234.763 451.962C239.017 435.916 248.784 425.122 265.852 423.492C275.727 422.549 285.628 423.371 295.413 421.174C302.101 419.672 307.904 416.339 313.772 412.939Z"/>
	<path fill="#B7C7A6" transform="scale(0.770917 0.770917)" d="M507.586 620.75L563.032 620.548L551.918 720.988C548.938 747.945 546.393 775.137 542.472 801.971L390.142 801.93L334.422 801.757Q339.286 743.432 345.572 685.243C347.777 663.975 349.656 642.662 352.036 621.414L507.586 620.75Z"/>
	<path fill="#424238" transform="scale(0.770917 0.770917)" d="M521.326 294.251Q543.403 257.916 566.09 221.959L577.987 203.157C579.286 201.088 580.387 198.467 581.916 196.61C582.559 195.829 582.887 195.579 583.823 195.28C587.186 197.277 606.981 230.049 610.82 236.02C617.171 247.15 624.685 257.5 631.469 268.354Q659.622 313.17 688.607 357.454C692.371 356.235 696.682 354.242 700.65 355.163C701.313 355.779 701.677 356.176 702.169 356.96C702.289 356.931 702.422 356.935 702.528 356.873C703.406 356.356 703.337 356.074 704.452 355.811C704.101 355.197 703.666 354.876 703.908 354.147C705.834 348.352 716.537 341.059 722.062 338.764C735.078 333.358 750.248 334.806 763.04 340.117C786.811 349.987 804.213 372.912 813.647 396.186C819.983 411.818 824.001 427.676 825.671 444.482C828.116 469.091 821.75 495.489 837.689 516.669C855.442 520.424 867.414 529.941 879.373 543.113C899.3 564.886 906.832 594.666 905.58 623.627C904.366 651.724 893.401 674.64 877.207 696.917C873.721 700.508 870.602 704.482 867.134 708.107Q863.085 712.367 858.702 716.282Q854.319 720.197 849.631 723.741Q844.942 727.285 839.98 730.434Q835.018 733.583 829.815 736.316C793.296 755.145 755.256 757.912 716.229 745.338C677.536 732.872 647.442 704.708 629.146 668.818C617.737 646.439 609.728 621.578 614.238 596.235C615.254 590.523 617.076 585.063 618.861 579.557C609.029 588.2 575.737 655.758 567.852 671.228C566.084 674.698 562.68 683.964 559.953 686.186C560.739 677.697 567.579 623.396 566.63 619.229C565.551 617.835 564.535 617.24 562.985 616.427C560.851 609.535 544.922 589.567 540.024 582.494L460.451 468.286C453.911 458.899 447.435 449.448 440.747 440.165C436.282 433.967 431.397 428.037 427.391 421.522C424.204 416.337 421.303 410.554 419.577 404.701C414.231 386.581 418.391 365.674 427.446 349.491C440.733 325.745 465.63 308.029 491.58 300.715C500.915 297.712 511.644 295.919 521.326 294.251Z"/>
	<path fill="#FDFCFB" transform="scale(0.770917 0.770917)" d="M883.557 554.073C900.033 576.912 905.306 608.95 900.81 636.385C898.077 653.066 892.099 668.002 883.153 682.306C882.784 681.066 882.922 681.186 883.281 680.007C892.387 650.139 901.189 614.366 893.742 583.447C892.412 577.924 890.673 572.344 888.704 567.014C887.343 563.33 883.762 558.812 883.568 554.916C883.554 554.636 883.561 554.354 883.557 554.073Z"/>
	<path fill="#F0D197" transform="scale(0.770917 0.770917)" d="M776.818 500.908C776.944 504.3 776.107 508.116 775.794 511.535C774.97 520.532 776.127 528.02 778.52 536.695C777.111 539.083 775.703 541.545 774.04 543.764C768.508 551.143 760.608 555.995 751.449 557.289C741.079 558.754 731.37 555.475 723.085 549.322L723.944 543.613C725.599 530.679 722.467 519.257 716.728 507.718C725.49 514.175 735.741 520.336 747.031 519.76C760.177 519.089 768.603 510.091 776.818 500.908Z"/>
	<path fill="#C2D9E1" transform="scale(0.770917 0.770917)" d="M780.692 544.263C783.078 545.963 797.753 566.361 801.044 570.45C806.43 577.143 812.171 583.591 817.786 590.095C813.18 602.607 807.939 614.931 803.038 627.334Q792.015 655.862 780.384 684.149Q774.928 698.285 769.008 712.233C768.896 702.024 769.822 691.709 770.464 681.524Q772.082 655.814 774.063 630.131C776.235 601.582 777.509 572.702 780.692 544.263Z"/>
	<path fill="#C2D9E1" transform="scale(0.770917 0.770917)" d="M775.327 548.913C776.414 553.723 774.193 572.58 773.736 578.877L768.445 650.67Q767.278 666.796 766.333 682.936C765.918 689.696 765.844 696.734 764.639 703.394C762.21 690.485 757.018 677.846 753.788 665.059L733.696 596.205C729.554 582.003 725.125 567.81 722.009 553.339C728.76 558.11 736.106 561.103 744.432 561.498C756.847 562.087 766.386 557.091 775.327 548.913Z"/>
	<path fill="#C2D9E1" transform="scale(0.770917 0.770917)" d="M718.311 559.074C720.293 561.602 760.104 701.774 762.971 713.757C758.03 706.803 752.759 700.061 747.611 693.258Q729.4 669.668 711.752 645.655C702.535 632.903 693.712 619.819 683.998 607.439Q693.462 591.35 701.195 574.362C708.457 570.841 713.552 565.456 718.311 559.074Z"/>
	<path fill="#FDFCFB" transform="scale(0.770917 0.770917)" d="M583.716 201.234C592.244 213.905 600.904 226.848 608.446 240.135C605.136 246.643 601.461 252.988 598.306 259.567Q595.607 265.192 593.258 270.972Q590.91 276.752 588.92 282.666Q586.931 288.579 585.308 294.604Q583.686 300.628 582.436 306.741C564.53 298.646 544.903 296.076 525.496 295.327C543.928 263.38 564.563 232.74 583.716 201.234Z"/>
	<path fill="#F0D197" transform="scale(0.770917 0.770917)" d="M608.446 240.135L660.312 321.259C667.849 333.014 676.474 348.346 684.985 359.103C675.804 364.839 669.572 372.935 666.37 383.354C662.837 377.98 659.846 372.328 656.126 367.044C636.419 339.053 613.447 320.954 582.436 306.741Q583.686 300.628 585.308 294.604Q586.931 288.579 588.92 282.666Q590.909 276.752 593.258 270.972Q595.607 265.192 598.306 259.567C601.461 252.988 605.136 246.643 608.446 240.135Z"/>
	<path fill="#F0D197" transform="scale(0.770917 0.770917)" d="M709.846 378.45C710.006 378.435 710.165 378.408 710.326 378.403C713.155 378.33 725.028 388.833 728.307 391.032C747.553 403.941 768.196 409.948 791.278 410.497C793.44 425.058 793.759 439.256 791.671 453.834C788.495 475.998 778.793 497.432 760.514 511.085Q759.284 511.88 757.999 512.581C751.169 516.24 743.94 516.574 736.667 514.239C719.311 508.666 709.371 495.272 700.353 480.382C697.228 475.223 694.037 470.04 691.334 464.644C682.657 447.323 679.091 427.664 685.369 408.939C689.49 396.647 698.056 384.382 709.846 378.45Z"/>
	<path fill="#C2D9E1" transform="scale(0.770917 0.770917)" d="M658.759 548.986C659.864 550.185 659.604 553.981 659.898 555.715C661.019 562.32 664.368 569.11 670.013 572.943C677.609 578.101 687.381 577.548 695.972 576.037C690.605 586.668 685.139 597.055 679.049 607.298C684.51 615.772 691.055 623.808 696.957 632.001Q716.973 660.328 738.141 687.805C746.746 699.038 754.86 711.764 764.899 721.731C766.038 730.78 766.056 740.134 766.466 749.248C758.596 748.992 750.819 748.674 743.031 747.397C734.656 746.304 726.196 744.104 718.155 741.539C680.259 729.448 650.777 702.095 632.776 667.007C620.681 643.43 611.82 614.193 620.392 588.024C626.525 569.302 641.766 557.598 658.759 548.986Z"/>
	<path fill="#C2D9E1" transform="scale(0.770917 0.770917)" d="M841.757 521.663C859.115 526.979 873.072 539.548 883.557 554.073C883.561 554.354 883.554 554.636 883.568 554.916C883.762 558.812 887.343 563.33 888.704 567.014C890.673 572.344 892.412 577.924 893.742 583.447C901.189 614.366 892.387 650.139 883.281 680.007C882.922 681.186 882.784 681.066 883.153 682.306C880.036 688.719 872.477 696.733 867.681 702.141Q866.526 703.438 865.339 704.706Q864.152 705.974 862.934 707.212Q861.716 708.45 860.469 709.658Q859.221 710.866 857.944 712.044Q856.667 713.221 855.362 714.366Q854.056 715.511 852.723 716.625Q851.389 717.737 850.029 718.817Q848.669 719.897 847.283 720.944Q845.896 721.99 844.485 723.002Q843.073 724.014 841.638 724.99Q840.202 725.967 838.742 726.909Q837.282 727.85 835.8 728.755Q834.318 729.661 832.814 730.529Q831.31 731.398 829.785 732.229Q828.26 733.061 826.716 733.854Q825.171 734.648 823.607 735.404Q822.043 736.159 820.461 736.876Q818.88 737.593 817.281 738.271Q815.682 738.949 814.066 739.587Q812.451 740.226 810.821 740.824Q809.191 741.423 807.546 741.981Q805.901 742.539 804.244 743.057Q802.586 743.575 800.916 744.052Q799.246 744.529 797.565 744.965Q795.884 745.401 794.192 745.795Q792.501 746.19 790.8 746.542Q789.1 746.895 787.391 747.206Q785.682 747.517 783.966 747.786Q782.251 748.055 780.529 748.282Q778.807 748.508 777.08 748.693Q775.353 748.877 773.622 749.019Q771.891 749.161 770.157 749.26C770.153 741.351 768.317 729.121 769.828 721.919C771.709 712.957 779.864 697.072 783.597 687.687L822.34 589.469C815.516 581.06 808.023 573.199 801.29 564.731C805.392 566.771 809.575 568.247 814.112 568.965C823.559 570.459 835.318 568.682 843.074 562.782C848.053 558.994 850.965 553.472 851.625 547.281C852.743 536.794 848.002 529.432 841.757 521.663Z"/>
	<path fill="#F0D197" transform="scale(0.770917 0.770917)" d="M704.452 355.811C704.735 355.779 705.02 355.758 705.302 355.715C708.625 355.209 713.336 348.766 716.173 346.575C732.479 333.987 756.573 339.296 772.446 349.623C798.104 366.315 812.977 397.584 819.011 426.72Q820.564 434.016 821.456 441.423Q822.348 448.829 822.571 456.286C823.011 472.223 820.798 488.77 826.291 504.116C832.427 521.254 850.802 530.779 847.514 549.159C847.115 551.39 846.359 553.382 845.077 555.257C841.029 561.18 833.379 564.039 826.549 565.15C816.592 566.768 807.12 564.308 799.025 558.347C788.381 550.508 781.762 539.042 779.919 525.988C776.783 503.77 785.381 491.779 791.569 472.328C798.002 452.105 799.118 427.181 794.248 406.504C759.876 406.44 738.031 395.597 712.804 373.148C699.805 377.504 690.814 387.621 684.851 399.734C676.089 417.529 676.443 436.139 682.819 454.581C686.78 466.036 693.054 476.481 699.467 486.709C712.291 507.165 728.322 529.454 716.255 554.236C712.062 562.846 704.787 568.74 695.775 571.821C689.082 574.109 680.78 573.675 674.459 570.499C669.622 568.069 666.267 563.832 664.679 558.687C658.979 540.215 674.423 512.518 677.191 493.091C680.081 472.806 672.023 455.423 667.703 436.226Q666.956 432.852 666.437 429.436Q665.918 426.019 665.629 422.575Q665.341 419.132 665.285 415.676Q665.228 412.221 665.404 408.77Q665.524 405.17 665.966 401.596Q666.409 398.022 667.171 394.501Q667.932 390.981 669.007 387.544Q670.082 384.106 671.461 380.779Q671.999 379.507 672.593 378.26Q673.275 376.825 674.048 375.436C679.005 366.558 685.718 362.846 695.073 359.755C697.489 358.956 700.006 358.328 702.169 356.96C702.289 356.931 702.422 356.935 702.528 356.873C703.406 356.356 703.337 356.074 704.452 355.811Z"/>
	<path fill="#C2D9E1" transform="scale(0.770917 0.770917)" d="M449.365 420.14C457.488 407.758 464.989 394.942 472.657 382.276L505.19 328.643C511.896 317.568 518.189 306.004 525.496 295.327C544.903 296.076 564.53 298.646 582.436 306.741C613.447 320.954 636.419 339.053 656.126 367.044C659.846 372.328 662.837 377.98 666.37 383.354C661.778 395.225 661.267 407.583 661.289 420.142Q555.327 420.739 449.365 420.14Z"/>
	<path fill="#C2D9E1" transform="scale(0.770917 0.770917)" d="M491.58 300.715C500.915 297.712 511.644 295.919 521.326 294.251L470.633 378.025C465.108 387.125 446.379 415.622 444.372 423.163C445.145 424.137 445.293 424.229 446.625 424.382C452.383 425.043 459.253 424.161 465.12 424.13L508.747 424.183L661.633 424.077C665.353 449.941 678.088 471.994 672.129 498.81C668.801 513.782 661.902 527.894 659.637 543.083C642.457 553.477 629.327 561.704 618.861 579.557C609.029 588.2 575.737 655.758 567.852 671.228C566.084 674.698 562.68 683.964 559.953 686.186C560.739 677.697 567.579 623.396 566.63 619.229C565.551 617.835 564.535 617.24 562.985 616.427C560.851 609.535 544.922 589.567 540.024 582.494L460.451 468.286C453.911 458.899 447.435 449.448 440.747 440.165C436.282 433.967 431.397 428.037 427.391 421.522C424.204 416.337 421.303 410.554 419.577 404.701C414.231 386.581 418.391 365.674 427.446 349.491C440.733 325.745 465.63 308.029 491.58 300.715Z"/>
</svg>
