<?xml version="1.0" encoding="utf-8" ?>
<svg xmlns="http://www.w3.org/2000/svg" xmlns:xlink="http://www.w3.org/1999/xlink" width="891" height="713">
	<path fill="#373233" transform="scale(0.696411 0.696411)" d="M699.235 550.372L701.207 550.339L701.382 551.143C700.152 554.752 697.403 558.044 695.229 561.164C691.604 561.375 688.083 561.927 684.503 562.52L682.757 562.719L682.214 562.039C682.83 558.581 686.108 555.206 688.293 552.549C691.903 551.351 695.473 550.858 699.235 550.372Z"/>
	<path fill="#373233" transform="scale(0.696411 0.696411)" d="M769.687 238.438C782.667 237.827 819.693 238.422 828.748 246.67C829.812 247.638 830.383 248.787 830.438 250.213C830.513 252.12 829.951 253.612 828.584 254.964C826.673 256.853 824.364 257.298 821.764 257.173C815.207 256.857 808.023 253.994 801.597 252.459C792.303 250.24 781.985 249.491 772.419 249.691C716.465 250.856 676.8 280.378 639.403 319.246C629.568 330.479 620.769 342.365 611.218 353.791C608.826 353.499 606.552 352.902 604.222 352.309C613.589 337.307 624.194 323.438 635.828 310.128C673.733 266.761 711.486 242.339 769.687 238.438Z"/>
	<path fill="#373233" transform="scale(0.696411 0.696411)" d="M755.38 390.446C756.536 391.495 757.131 391.79 757.424 393.444C759.268 403.87 704.748 511.51 695.333 528.443Q679.777 556.877 661.517 583.654C617.744 648.21 562.106 694.988 483.892 709.951L482.505 710.081C485.004 708.067 492.964 707.264 496.34 706.357Q508.477 703.131 520.114 698.409Q528.018 695.168 535.669 691.367Q543.32 687.566 550.678 683.225Q558.036 678.883 565.063 674.024Q572.09 669.164 578.749 663.812C637.257 616.501 684.456 534.702 716.845 467.404C728.737 442.695 739.697 412.705 755.38 390.446Z"/>
	<path fill="#373233" transform="scale(0.696411 0.696411)" d="M748.465 560.51C749.72 561.68 750.006 563.079 750.318 564.706C751.387 570.27 751.574 576.231 752.188 581.891C753.93 597.929 755.881 614.001 761.035 629.35C775.018 670.994 799.376 720.479 840.784 740.786C850.961 745.777 861.529 748.774 872.84 749.566C904.51 751.783 927.596 731.697 955.897 722C973.021 716.133 992.821 713.831 1009.54 722.198C1017.53 726.195 1027.31 733.698 1030.19 742.505C1028.79 741.99 1027.96 740.45 1027.1 739.29C1025.82 737.26 1023.72 735.846 1021.75 734.527C995.478 716.965 963.268 725.054 936.873 737.692C922.979 744.344 909.046 752.812 893.762 755.678C867.716 760.562 840.326 751.538 818.978 736.656C786.06 713.71 758.95 664.287 750.177 625.791C745.882 606.948 745.016 587.788 741.655 568.845C744.155 566.26 746.28 563.359 748.465 560.51Z"/>
	<path fill="#373233" transform="scale(0.696411 0.696411)" d="M526.592 347.249C541.441 346.901 556.689 347.525 571.415 349.511C605.557 354.115 651.482 369.309 673.179 397.812C671.359 397.435 664.264 390.65 662.214 389.169C655.153 384.07 647.564 380.011 639.827 376.051C605.886 399.129 577.485 433.054 557.902 468.943C547.697 487.646 536.33 510.302 542.68 531.988C543.473 529.51 544.273 526.92 545.715 524.733C547.333 522.28 550.221 520.488 553.111 520.036C555.858 519.606 558.799 520.295 560.953 522.088C562.859 523.675 563.958 525.982 564.098 528.451C564.281 531.684 563.07 535.009 560.797 537.32C558.079 540.084 554.097 541.304 550.287 541.262C546.001 541.215 541.679 539.623 538.768 536.4C533.823 530.922 533.34 523.057 533.759 516.058C536.207 475.172 569.717 427.673 596.841 398.786C606.312 388.699 616.825 379.574 627.126 370.351C620.127 367.228 613.086 364.376 605.812 361.957C597.95 372.072 591.337 382.967 584.423 393.727L559.297 432.884C554.594 440.366 550.271 448.139 545.131 455.329C552.152 437.9 562.023 421.719 571.534 405.567C580.485 390.367 589.405 375.089 598.98 360.271C527.401 343.04 459.022 354.398 393.947 387.758C349.323 410.634 316.65 443.727 301.103 491.853C300.979 492.271 300.859 492.691 300.748 493.113Q300.363 494.587 300.015 496.071Q299.667 497.554 299.356 499.046Q299.045 500.537 298.77 502.036Q298.496 503.535 298.259 505.04Q298.021 506.545 297.821 508.056Q297.621 509.566 297.459 511.081Q297.296 512.596 297.171 514.115Q297.046 515.633 296.958 517.154Q296.87 518.676 296.82 520.198Q296.77 521.721 296.757 523.245Q296.745 524.769 296.77 526.292Q296.795 527.816 296.858 529.338Q296.921 530.861 297.021 532.381Q297.121 533.901 297.259 535.419Q297.397 536.936 297.572 538.45Q297.748 539.963 297.96 541.472Q298.173 542.981 298.423 544.484Q298.672 545.987 298.959 547.484Q299.246 548.98 299.57 550.469Q299.894 551.958 300.254 553.438Q300.614 554.919 301.011 556.39Q301.408 557.861 301.841 559.322Q302.274 560.783 302.743 562.232Q303.212 563.682 303.716 565.12Q304.221 566.558 304.761 567.982Q305.301 569.407 305.876 570.818Q306.451 572.229 307.06 573.625Q307.67 575.022 308.314 576.403Q308.958 577.784 309.636 579.148Q310.314 580.513 311.025 581.86Q311.736 583.208 312.481 584.537Q313.225 585.866 314.002 587.177Q314.809 588.549 315.648 589.9Q316.488 591.251 317.361 592.582Q318.233 593.912 319.138 595.221Q320.043 596.529 320.979 597.815Q321.916 599.102 322.884 600.364Q323.851 601.627 324.85 602.866Q325.848 604.105 326.876 605.319Q327.905 606.533 328.962 607.721Q330.02 608.91 331.106 610.072Q332.193 611.234 333.307 612.37Q334.422 613.505 335.564 614.613Q336.706 615.72 337.874 616.8Q339.043 617.879 340.238 618.93Q341.432 619.98 342.653 621.001Q343.873 622.022 345.117 623.013Q346.362 624.004 347.63 624.964Q348.899 625.924 350.19 626.853Q351.482 627.782 352.796 628.679Q354.11 629.576 355.445 630.44Q356.781 631.305 358.137 632.136Q359.493 632.968 360.869 633.766Q362.246 634.564 363.641 635.328Q365.036 636.093 366.449 636.822Q367.863 637.552 369.294 638.247Q370.725 638.942 372.172 639.602Q373.62 640.262 375.083 640.886Q376.546 641.511 378.024 642.099Q379.502 642.687 380.994 643.239Q382.486 643.791 383.991 644.307Q385.496 644.822 387.013 645.3Q388.531 645.778 390.059 646.22Q391.587 646.661 393.126 647.064C466.169 665.881 555.014 624.32 617.699 588.96C631.527 581.159 644.792 572.527 658.438 564.438C655.93 567.727 653.337 571.02 650.546 574.076Q647.228 577.772 643.546 581.105Q639.864 584.438 635.856 587.372C624.84 595.292 612.521 601.404 600.493 607.608C569.016 623.843 536.516 639.255 502.435 649.151C482.267 655.007 461.004 659.142 439.992 660.052C400.113 661.781 358.978 649.575 329.283 622.266Q328.054 621.153 326.854 620.009Q325.653 618.865 324.481 617.692Q323.31 616.519 322.168 615.316Q321.026 614.114 319.914 612.884Q318.802 611.653 317.722 610.396Q316.641 609.138 315.593 607.853Q314.544 606.569 313.528 605.259Q312.511 603.948 311.528 602.613Q310.545 601.278 309.595 599.918Q308.645 598.559 307.73 597.176Q306.815 595.794 305.934 594.389Q305.054 592.983 304.208 591.557Q303.363 590.13 302.554 588.683Q301.745 587.235 300.972 585.768Q300.199 584.301 299.463 582.815Q298.727 581.329 298.028 579.825Q297.33 578.321 296.669 576.8Q296.008 575.279 295.386 573.742Q294.763 572.205 294.179 570.653Q293.595 569.101 293.05 567.535Q292.505 565.969 291.999 564.389Q291.493 562.81 291.027 561.218Q290.561 559.627 290.135 558.024Q289.708 556.422 289.322 554.809Q288.936 553.196 288.59 551.574Q288.245 549.952 287.94 548.322Q287.635 546.692 287.37 545.055Q287.106 543.418 286.883 541.775Q286.66 540.131 286.477 538.483Q286.295 536.835 286.154 535.182Q286.013 533.53 285.914 531.875Q285.814 530.219 285.756 528.562C284.325 489.621 302.765 451.42 328.91 423.449C377.992 370.94 456.983 349.618 526.592 347.249Z"/>
	<path fill="#373233" transform="scale(0.696411 0.696411)" d="M804.368 300.959C804.428 300.953 804.488 300.943 804.548 300.939C834.666 298.91 867.979 305.669 891.534 325.322C911.21 341.737 922.217 366.356 924.245 391.659C926.971 425.676 913.836 457.924 891.977 483.53C854.02 527.994 792.993 550.086 736.157 554.629C698.997 624.287 633.99 689.528 560.689 720.05C500.487 745.117 428.166 751.503 366.94 726.169C323.531 708.208 290.334 677.094 262.643 639.786C256.841 631.969 249.413 623.266 245.652 614.23C251.115 621.473 257.417 628.268 263.446 635.052C296.301 672.03 334.116 699.555 382.102 713.16C446.1 731.306 514.756 718.88 572.104 686.8C647.063 644.406 693.958 576.723 737.122 504.476C746.199 489.283 754.511 473.654 763.791 458.579C776.295 438.266 800.582 398.278 825.416 392.658C830.758 391.45 836.262 392.006 840.883 395.145C848.261 400.157 850.343 408.389 852.098 416.578C849.509 410.936 846.578 403.627 840.633 400.714C837.417 399.139 833.989 399.203 830.646 400.35C799.074 411.18 759.454 510.963 743.39 541.707C753.806 539.782 764.267 538.334 774.598 535.926Q779.469 534.75 784.284 533.359Q789.098 531.968 793.847 530.366Q798.595 528.765 803.269 526.955Q807.942 525.144 812.53 523.13Q817.119 521.115 821.614 518.9Q826.109 516.684 830.502 514.272Q834.895 511.86 839.178 509.257Q843.46 506.653 847.623 503.863C876.315 484.515 904.822 454.156 911.42 419.053C915.687 396.349 911.031 370.722 897.817 351.616C883.532 330.964 860.604 319.839 836.475 315.357C787.73 306.302 729.015 324.356 686.169 346.919C672.624 354.052 659.968 362.462 647.365 371.111L636.253 364.568C672.492 334.742 720.228 312.836 766.422 304.649C778.984 302.423 791.645 301.623 804.368 300.959Z"/>
</svg>
