<svg xmlns="http://www.w3.org/2000/svg" xmlns:xlink="http://www.w3.org/1999/xlink" width="500" zoomAndPan="magnify" viewBox="0 0 375 374.999991" height="500" preserveAspectRatio="xMidYMid meet" version="1.0"><defs><clipPath id="0b1a7c3fcd"><path d="M 133 118 L 239 118 L 239 225 L 133 225 Z M 133 118 " clip-rule="nonzero"/></clipPath><clipPath id="f8198eda15"><path d="M 233.566406 232.730469 L 123.988281 220.585938 L 136.132812 111.007812 L 245.710938 123.152344 Z M 233.566406 232.730469 " clip-rule="nonzero"/></clipPath><clipPath id="00c42cf0d5"><path d="M 233.566406 232.730469 L 123.988281 220.585938 L 136.132812 111.007812 L 245.710938 123.152344 Z M 233.566406 232.730469 " clip-rule="nonzero"/></clipPath><clipPath id="47d1ecc2ae"><path d="M 34.089844 145.675781 L 205.839844 145.675781 L 205.839844 189.175781 L 34.089844 189.175781 Z M 34.089844 145.675781 " clip-rule="nonzero"/></clipPath><clipPath id="b258f73a3d"><path d="M 197 146 L 330 146 L 330 196 L 197 196 Z M 197 146 " clip-rule="nonzero"/></clipPath><clipPath id="e0ef1dc9dd"><path d="M 198.734375 145.675781 L 329.949219 148.777344 L 328.777344 198.261719 L 197.5625 195.160156 Z M 198.734375 145.675781 " clip-rule="nonzero"/></clipPath><clipPath id="bc3c1dee56"><path d="M 198.734375 145.675781 L 329.949219 148.777344 L 328.777344 198.261719 L 197.5625 195.160156 Z M 198.734375 145.675781 " clip-rule="nonzero"/></clipPath><clipPath id="c603b9e68e"><path d="M 198.734375 145.675781 L 329.949219 148.777344 L 328.777344 198.261719 L 197.5625 195.160156 Z M 198.734375 145.675781 " clip-rule="nonzero"/></clipPath><clipPath id="91d136ec38"><path d="M 174.960938 152.289062 L 180.417969 152.289062 L 180.417969 160.230469 L 174.960938 160.230469 Z M 174.960938 152.289062 " clip-rule="nonzero"/></clipPath><clipPath id="b8ef35a7b3"><path d="M 178.929688 154.164062 C 177.605469 159.128906 180.144531 158.6875 180.363281 159.128906 C 180.472656 159.347656 180.144531 159.898438 179.8125 160.007812 C 179.480469 160.121094 178.15625 159.457031 178.15625 159.128906 C 178.15625 158.796875 179.480469 158.023438 179.8125 158.132812 C 180.03125 158.355469 180.144531 159.789062 179.921875 160.007812 C 179.703125 160.121094 178.15625 159.457031 178.15625 159.128906 C 178.046875 158.796875 179.480469 157.914062 179.703125 158.132812 C 179.921875 158.246094 179.148438 160.121094 179.371094 160.230469 C 179.480469 160.230469 180.253906 159.457031 180.253906 159.347656 C 180.253906 159.347656 179.589844 160.230469 179.039062 160.230469 C 178.15625 160.230469 175.402344 158.90625 175.070312 157.804688 C 174.628906 156.480469 176.28125 153.394531 177.164062 152.730469 C 177.714844 152.289062 178.710938 152.179688 179.039062 152.398438 C 179.261719 152.621094 178.929688 154.164062 178.929688 154.164062 " clip-rule="nonzero"/></clipPath><clipPath id="42762458f4"><path d="M 174.9375 155.355469 L 183.476562 155.355469 L 183.476562 161.414062 L 174.9375 161.414062 Z M 174.9375 155.355469 " clip-rule="nonzero"/></clipPath><clipPath id="1b67b90b13"><path d="M 177.386719 156.699219 C 178.046875 158.90625 181.6875 156.371094 182.457031 156.921875 C 183.011719 157.140625 183.121094 158.796875 182.898438 159.015625 C 182.679688 159.125 181.355469 158.464844 181.246094 158.023438 C 181.246094 157.695312 182.015625 156.8125 182.347656 156.921875 C 182.679688 156.921875 183.5625 157.914062 183.449219 158.355469 C 183.121094 159.347656 178.488281 161.773438 177.054688 161.332031 C 175.953125 161 175.070312 158.90625 174.960938 157.804688 C 174.960938 156.921875 175.402344 155.488281 175.84375 155.378906 C 176.171875 155.265625 177.386719 156.699219 177.386719 156.699219 " clip-rule="nonzero"/></clipPath><clipPath id="b412459324"><path d="M 181.476562 151.800781 L 188.363281 151.800781 L 188.363281 158.566406 L 181.476562 158.566406 Z M 181.476562 151.800781 " clip-rule="nonzero"/></clipPath><clipPath id="58a43323e7"><path d="M 181.796875 156.8125 C 187.199219 151.738281 187.972656 151.847656 188.191406 152.070312 C 188.304688 152.398438 187.53125 153.945312 187.308594 153.945312 C 186.980469 153.832031 186.316406 152.398438 186.429688 152.070312 C 186.648438 151.847656 187.75 151.738281 188.082031 151.960938 C 188.304688 152.179688 188.414062 152.730469 188.304688 153.28125 C 187.863281 154.496094 184.445312 158.023438 183.230469 158.464844 C 182.570312 158.6875 181.796875 158.464844 181.578125 158.246094 C 181.355469 157.914062 181.796875 156.8125 181.796875 156.8125 " clip-rule="nonzero"/></clipPath><clipPath id="5609dcba4b"><path d="M 186.082031 147.378906 L 188.648438 147.378906 L 188.648438 153.816406 L 186.082031 153.816406 Z M 186.082031 147.378906 " clip-rule="nonzero"/></clipPath><clipPath id="61b9aeecf0"><path d="M 186.097656 152.289062 C 186.539062 147.660156 187.53125 147.328125 187.75 147.4375 C 188.082031 147.660156 188.082031 149.3125 187.75 149.421875 C 187.53125 149.644531 186.316406 148.871094 186.207031 148.539062 C 186.097656 148.210938 186.648438 147.546875 186.980469 147.4375 C 187.308594 147.328125 188.082031 147.660156 188.304688 148.210938 C 188.855469 149.09375 188.632812 152.511719 188.082031 153.28125 C 187.640625 153.722656 186.757812 153.945312 186.429688 153.722656 C 186.097656 153.503906 186.097656 152.289062 186.097656 152.289062 " clip-rule="nonzero"/></clipPath><clipPath id="d3aae87500"><path d="M 204.605469 159 L 207.3125 159 L 207.3125 166.230469 L 204.605469 166.230469 Z M 204.605469 159 " clip-rule="nonzero"/></clipPath><clipPath id="09f9866d74"><path d="M 204.625 165.523438 C 206.386719 159.015625 207.050781 159.566406 207.050781 159.566406 C 207.050781 159.457031 206.058594 159.125 206.058594 159.015625 C 206.058594 159.015625 206.9375 159.015625 207.160156 159.347656 C 207.492188 159.789062 207.160156 161.992188 206.828125 163.207031 C 206.609375 164.308594 205.945312 166.074219 205.503906 166.183594 C 205.175781 166.292969 204.625 165.523438 204.625 165.523438 " clip-rule="nonzero"/></clipPath><clipPath id="3a0a27b891"><path d="M 178.789062 151.816406 L 178.894531 151.816406 L 178.894531 152.664062 L 178.789062 152.664062 Z M 178.789062 151.816406 " clip-rule="nonzero"/></clipPath><clipPath id="b3f42f1f44"><path d="M 178.820312 151.847656 C 178.929688 153.613281 178.820312 151.847656 178.820312 151.847656 " clip-rule="nonzero"/></clipPath><clipPath id="6ec6ac5ee9"><path d="M 176.375 152.714844 L 179.40625 152.714844 L 179.40625 154.074219 L 176.375 154.074219 Z M 176.375 152.714844 " clip-rule="nonzero"/></clipPath><clipPath id="e1fe2d559b"><path d="M 179.371094 152.730469 C 177.714844 155.15625 176.394531 153.503906 176.394531 153.503906 " clip-rule="nonzero"/></clipPath><clipPath id="1c7aa3cec7"><path d="M 178.527344 152.363281 L 179.820312 152.363281 L 179.820312 153.089844 L 178.527344 153.089844 Z M 178.527344 152.363281 " clip-rule="nonzero"/></clipPath><clipPath id="3870bb938a"><path d="M 179.8125 152.398438 C 176.945312 153.945312 179.8125 152.398438 179.8125 152.398438 " clip-rule="nonzero"/></clipPath><clipPath id="c995507cfe"><path d="M 221.125 192.347656 L 223.152344 192.347656 L 223.152344 193.199219 L 221.125 193.199219 Z M 221.125 192.347656 " clip-rule="nonzero"/></clipPath><clipPath id="5c18e229e6"><path d="M 221.164062 192.761719 C 223.148438 191.769531 223.257812 192.871094 223.039062 193.089844 C 222.820312 193.421875 221.164062 192.761719 221.164062 192.761719 " clip-rule="nonzero"/></clipPath><clipPath id="0fea774a99"><path d="M 220.328125 191.878906 L 223.550781 191.878906 L 223.550781 194.566406 L 220.328125 194.566406 Z M 220.328125 191.878906 " clip-rule="nonzero"/></clipPath><clipPath id="8520bf3796"><path d="M 222.707031 192.980469 C 221.273438 193.640625 222.707031 193.203125 222.707031 192.871094 C 222.820312 192.539062 222.265625 191.988281 222.265625 191.988281 C 222.15625 191.988281 222.707031 192.761719 222.597656 192.980469 C 222.378906 193.421875 220.832031 194.195312 220.503906 193.972656 C 220.390625 193.972656 220.28125 193.421875 220.390625 193.203125 C 220.613281 192.648438 222.488281 191.65625 223.039062 191.988281 C 223.371094 192.097656 223.699219 193.421875 223.480469 193.863281 C 223.371094 194.195312 222.597656 194.636719 222.265625 194.523438 C 221.9375 194.414062 221.386719 192.980469 221.605469 192.761719 C 221.714844 192.539062 222.707031 192.980469 222.707031 192.980469 " clip-rule="nonzero"/></clipPath></defs><g clip-path="url(#0b1a7c3fcd)"><g clip-path="url(#f8198eda15)"><g clip-path="url(#00c42cf0d5)"><path fill="#3d3b3a" d="M 141.695312 200.296875 C 147.300781 208.964844 155.351562 215.246094 164.484375 218.984375 C 167.582031 220.601562 170.820312 221.867188 174.195312 222.773438 C 174.210938 222.78125 174.230469 222.789062 174.246094 222.792969 C 195.289062 228.410156 219.292969 219.308594 230.40625 200.316406 C 230.476562 200.191406 230.546875 200.0625 230.621094 199.9375 C 234.144531 194.371094 236.496094 188.34375 237.671875 181.859375 C 241.644531 159.914062 230.046875 137.257812 211.148438 125.9375 C 200.976562 119.84375 188.40625 117.058594 176.683594 119.390625 C 164.566406 121.800781 154.34375 130.210938 146.402344 139.324219 C 131.273438 156.671875 129.074219 180.792969 141.695312 200.296875 Z M 215.035156 214.410156 C 199.875 223.195312 180.648438 225.023438 164.535156 218.335938 C 159.226562 215.582031 154.625 211.9375 150.730469 207.402344 C 136.710938 191.152344 134.085938 167.464844 146.523438 149.5625 C 158.570312 132.214844 182.730469 121.601562 203.507812 127.71875 C 216.402344 131.519531 227.613281 143.238281 232.695312 155.429688 C 237.523438 167.003906 237.753906 180.417969 233.488281 192.183594 C 232.625 194.558594 231.574219 196.84375 230.328125 199.039062 C 227.691406 203.378906 224.476562 207.238281 220.683594 210.621094 C 216.890625 214 212.6875 216.753906 208.070312 218.875 C 196.640625 224.128906 183.992188 225.023438 172.589844 221.597656 C 177.199219 222.683594 181.875 223.1875 186.613281 223.105469 C 191.351562 223.023438 196.007812 222.359375 200.578125 221.113281 C 205.761719 219.671875 210.621094 217.515625 215.164062 214.640625 C 215.304688 214.5625 215.167969 214.34375 215.035156 214.410156 Z M 158.789062 128.757812 C 169.222656 120.734375 181.589844 117.699219 194.546875 120.277344 C 215.621094 124.496094 232.652344 142.3125 236.84375 163.269531 C 237.605469 167.09375 237.910156 170.949219 237.753906 174.84375 C 237.597656 178.734375 236.984375 182.554688 235.917969 186.304688 C 239.789062 169.113281 234.371094 150.472656 221.269531 137.972656 C 211.941406 129.082031 201.003906 124.714844 188.054688 125.519531 C 177.300781 126.191406 166.800781 130.207031 158.160156 136.613281 C 140.34375 149.800781 132.8125 172.332031 141.222656 193.171875 C 143.019531 197.652344 145.410156 201.789062 148.394531 205.582031 C 151.378906 209.375 154.832031 212.675781 158.761719 215.484375 C 156.789062 214.347656 154.90625 213.078125 153.113281 211.675781 C 136.945312 199 129.625 175.480469 136.976562 156.09375 C 141.144531 145.089844 149.566406 135.847656 158.789062 128.757812 Z M 158.789062 128.757812 " fill-opacity="1" fill-rule="nonzero"/></g></g></g><g clip-path="url(#47d1ecc2ae)"><path fill="#231f20" d="M 204.917969 165.109375 C 204.234375 165.644531 203.757812 166.085938 203.214844 166.414062 C 200.742188 167.90625 198.273438 169.414062 195.761719 170.839844 C 193.027344 172.402344 190.25 173.894531 187.492188 175.398438 C 185.863281 176.285156 184.238281 177.199219 182.585938 178.042969 C 180.925781 178.886719 179.222656 179.644531 177.554688 180.46875 C 173.804688 182.3125 170.027344 184.089844 166.050781 185.390625 C 164.21875 185.988281 162.339844 186.425781 160.410156 186.59375 C 159.25 186.703125 158.09375 186.648438 156.992188 186.238281 C 155.949219 185.847656 155.015625 185.28125 154.539062 184.195312 C 154.175781 183.367188 153.894531 182.511719 153.878906 181.585938 C 153.839844 179.570312 154.183594 177.5625 154.871094 175.71875 C 155.746094 173.378906 156.78125 171.09375 158.03125 168.894531 C 160.339844 164.839844 163.078125 161.144531 166.453125 157.9375 C 166.683594 157.714844 166.917969 157.488281 167.15625 157.273438 C 168.289062 156.238281 169.335938 155.074219 170.589844 154.207031 C 172.90625 152.597656 175.25 151.007812 177.828125 149.832031 C 179.597656 149.027344 181.476562 148.582031 183.390625 148.339844 C 183.886719 148.277344 184.414062 148.402344 184.917969 148.488281 C 185.085938 148.515625 185.226562 148.699219 185.328125 148.777344 C 185.257812 149.574219 184.851562 150.070312 184.484375 150.597656 C 183.105469 152.574219 181.222656 154.039062 179.472656 155.648438 C 178.53125 156.515625 177.519531 157.320312 176.566406 158.175781 C 176.292969 158.425781 176.109375 158.765625 175.894531 159.054688 C 176.121094 160.039062 176.417969 160.855469 177.449219 161.097656 C 180.316406 160.351562 183.460938 157.945312 184.863281 155.617188 C 187.265625 153.488281 188.988281 151.441406 188.59375 148.296875 C 188.320312 147.800781 188.046875 147.292969 187.710938 146.683594 C 187.324219 146.503906 186.878906 146.207031 186.398438 146.09375 C 184.898438 145.730469 183.382812 145.65625 181.839844 145.976562 C 179.144531 146.527344 176.800781 147.847656 174.460938 149.175781 C 172.371094 150.367188 170.503906 151.882812 168.605469 153.371094 C 167.058594 154.082031 165.527344 154.8125 163.953125 155.460938 C 160.34375 156.953125 156.722656 158.410156 153.101562 159.863281 C 151.007812 160.707031 148.90625 161.546875 146.777344 162.3125 C 141.621094 164.179688 136.472656 166.050781 131.285156 167.816406 C 125.773438 169.699219 120.246094 171.519531 114.695312 173.257812 C 110.378906 174.609375 106.019531 175.824219 101.65625 177.042969 C 98.097656 178.035156 94.535156 179.023438 90.945312 179.878906 C 86.878906 180.84375 82.789062 181.710938 78.691406 182.527344 C 73.921875 183.480469 69.121094 184.265625 64.292969 184.863281 C 60.691406 185.308594 57.085938 185.757812 53.457031 185.847656 C 51.0625 185.910156 48.664062 185.976562 46.265625 185.71875 C 43.5 185.425781 40.921875 184.628906 38.847656 183.085938 C 38.1875 182.050781 38.871094 181.207031 38.847656 180.308594 C 38.148438 179.765625 37.457031 179.375 36.609375 179.363281 C 36.007812 179.574219 35.421875 179.78125 34.84375 179.984375 C 34.582031 180.304688 34.316406 180.621094 34.128906 180.851562 L 34.136719 182.800781 C 34.421875 183.046875 34.664062 183.304688 34.949219 183.476562 C 35.414062 183.769531 35.910156 184.015625 36.40625 184.246094 C 36.835938 184.445312 37.316406 184.5625 37.734375 184.789062 C 41.1875 186.652344 44.933594 187.28125 48.800781 187.425781 C 51.613281 187.523438 54.414062 187.316406 57.207031 187.074219 C 62.394531 186.621094 67.550781 185.839844 72.679688 184.964844 C 76.324219 184.34375 79.957031 183.652344 83.570312 182.859375 C 87.851562 181.921875 92.117188 180.90625 96.363281 179.8125 C 99.746094 178.945312 103.085938 177.933594 106.4375 176.957031 C 110.25 175.839844 114.074219 174.757812 117.851562 173.53125 C 123.773438 171.601562 129.710938 169.71875 135.539062 167.515625 C 140.792969 165.527344 146.097656 163.679688 151.355469 161.714844 C 154.6875 160.464844 157.988281 159.121094 161.296875 157.789062 C 162.722656 157.214844 164.132812 156.617188 165.550781 156.039062 C 164.222656 157.289062 162.953125 158.59375 161.738281 159.964844 C 160.761719 161.070312 159.949219 162.308594 158.996094 163.445312 C 157.753906 164.925781 156.738281 166.5625 155.792969 168.226562 C 154.457031 170.574219 153.296875 173.015625 152.492188 175.609375 C 151.816406 177.773438 151.328125 179.957031 151.5 182.253906 C 151.652344 184.261719 152.347656 185.972656 153.890625 187.351562 C 155.167969 188.488281 156.695312 188.894531 158.28125 189.035156 C 159.605469 189.152344 160.96875 189.039062 162.289062 188.871094 C 164.785156 188.550781 167.128906 187.671875 169.476562 186.78125 C 172.785156 185.527344 175.992188 184.054688 179.125 182.425781 C 182.417969 180.710938 185.675781 178.921875 188.890625 177.074219 C 192.957031 174.746094 196.972656 172.328125 200.976562 169.894531 C 202.402344 169.03125 203.78125 168.074219 205 166.933594 C 205.3125 166.644531 205.507812 166.226562 205.8125 165.78125 C 205.492188 165.53125 205.257812 165.355469 204.929688 165.105469 Z M 204.917969 165.109375 " fill-opacity="1" fill-rule="nonzero"/></g><g clip-path="url(#b258f73a3d)"><g clip-path="url(#e0ef1dc9dd)"><g clip-path="url(#bc3c1dee56)"><g clip-path="url(#c603b9e68e)"><path fill="#231f20" d="M 329.835938 151.292969 C 329.636719 150.714844 329.476562 150.25 329.324219 149.804688 C 328.683594 149.058594 327.828125 148.863281 326.941406 148.808594 C 324.363281 148.660156 321.785156 148.738281 319.222656 149.082031 C 314.597656 149.707031 310 150.476562 305.433594 151.421875 C 301.5625 152.226562 297.695312 153.066406 293.867188 154.035156 C 287.046875 155.765625 280.3125 157.796875 273.699219 160.199219 C 269.007812 161.902344 264.324219 163.652344 259.722656 165.613281 C 256.140625 167.148438 252.539062 168.636719 248.992188 170.257812 C 243.746094 172.660156 238.511719 175.082031 233.40625 177.777344 C 231.027344 179.03125 228.683594 180.355469 226.328125 181.65625 C 224.5 182.65625 222.667969 183.648438 220.859375 184.683594 C 219.242188 185.601562 217.652344 186.570312 216.058594 187.539062 C 214.179688 188.667969 212.265625 189.75 210.339844 190.804688 C 208.988281 191.546875 207.617188 192.222656 206.171875 192.75 C 205.140625 193.132812 204.078125 193.417969 202.957031 193.410156 C 201.40625 193.398438 200.539062 192.625 200.269531 191.074219 C 200.054688 189.847656 200.265625 188.664062 200.554688 187.488281 C 201.164062 184.957031 202.578125 182.738281 203.429688 180.296875 C 203.5625 179.910156 203.949219 179.613281 204.210938 179.265625 C 204.277344 179.179688 204.328125 179.082031 204.378906 178.984375 C 205.804688 176.179688 207.691406 173.667969 209.414062 171.054688 C 210.417969 169.527344 211.359375 168.007812 212.011719 166.300781 C 212.390625 165.308594 212.613281 164.265625 212.25 163.261719 C 211.941406 162.410156 211.65625 161.503906 211.023438 160.785156 C 210.660156 160.375 210.308594 159.945312 210.019531 159.476562 C 209.453125 158.550781 208.835938 157.632812 208.679688 156.554688 C 208.765625 156.414062 208.804688 156.300781 208.882812 156.226562 C 209.410156 155.746094 209.9375 155.265625 210.480469 154.800781 C 211.054688 154.316406 211.421875 153.640625 212.089844 153.21875 C 212.632812 152.875 213.054688 152.324219 213.480469 151.824219 C 214.464844 150.683594 214.976562 149.40625 214.535156 148.132812 C 214.078125 147.480469 213.777344 147.039062 213.46875 146.59375 C 213.011719 146.417969 212.558594 146.242188 212.242188 146.121094 C 211.289062 145.980469 210.578125 146.253906 209.898438 146.660156 C 208.015625 147.792969 206.648438 149.425781 205.625 151.332031 C 204.894531 152.691406 204.386719 154.148438 204.449219 155.746094 C 204.460938 156.015625 204.4375 156.289062 204.433594 156.539062 C 204.414062 156.554688 204.398438 156.574219 204.378906 156.59375 C 204.730469 157.367188 205 158.160156 205.257812 159.042969 C 205.292969 159.160156 205.265625 159.253906 205.28125 159.367188 C 205.695312 159.910156 206.09375 160.453125 206.519531 160.972656 C 207.144531 161.734375 207.789062 162.480469 208.4375 163.21875 C 209.136719 164.003906 209.230469 164.886719 208.929688 165.84375 C 208.832031 166.15625 208.6875 166.460938 208.507812 166.738281 C 207.769531 167.886719 207.171875 169.117188 206.402344 170.25 C 205.347656 171.796875 204.445312 173.4375 203.414062 174.996094 C 201.917969 177.25 200.933594 179.761719 199.71875 182.152344 C 199.128906 183.316406 198.800781 184.628906 198.421875 185.890625 C 197.929688 187.542969 197.753906 189.242188 198.042969 190.945312 C 198.34375 192.699219 199.128906 194.183594 200.902344 194.886719 C 201.894531 195.28125 202.9375 195.300781 203.980469 195.105469 C 205.175781 194.882812 206.300781 194.460938 207.417969 193.972656 C 210.601562 192.582031 213.507812 190.699219 216.472656 188.917969 C 220.238281 186.652344 223.960938 184.316406 227.777344 182.140625 C 230.921875 180.351562 234.179688 178.757812 237.382812 177.070312 C 240.929688 175.203125 244.554688 173.488281 248.183594 171.804688 C 252.714844 169.695312 257.273438 167.65625 261.914062 165.808594 C 263.699219 165.097656 265.453125 164.300781 267.253906 163.632812 C 270.550781 162.417969 273.871094 161.265625 277.179688 160.089844 C 283.652344 157.78125 290.261719 155.941406 296.9375 154.371094 C 300.835938 153.457031 304.75 152.597656 308.710938 151.976562 C 312.175781 151.429688 315.632812 150.8125 319.121094 150.484375 C 321.085938 150.296875 323.070312 150.269531 325.046875 150.460938 C 325.75 150.53125 326.433594 150.65625 327.117188 151.128906 C 326.761719 151.703125 326.382812 152.171875 326.171875 152.707031 C 325.914062 153.359375 326.203125 153.992188 326.460938 154.609375 C 327.085938 154.710938 327.667969 154.808594 328.222656 154.894531 C 328.59375 154.59375 328.9375 154.316406 329.210938 154.097656 C 329.765625 153.132812 329.820312 152.152344 329.828125 151.292969 Z M 329.835938 151.292969 " fill-opacity="1" fill-rule="nonzero"/></g></g></g></g><g clip-path="url(#91d136ec38)"><g clip-path="url(#b8ef35a7b3)"><path fill="#232020" d="M 170.660156 147.988281 L 184.773438 147.988281 L 184.773438 164.640625 L 170.660156 164.640625 Z M 170.660156 147.988281 " fill-opacity="1" fill-rule="nonzero"/></g></g><g clip-path="url(#42762458f4)"><g clip-path="url(#1b67b90b13)"><path fill="#232020" d="M 170.550781 150.964844 L 187.867188 150.964844 L 187.867188 165.742188 L 170.550781 165.742188 Z M 170.550781 150.964844 " fill-opacity="1" fill-rule="nonzero"/></g></g><g clip-path="url(#b412459324)"><g clip-path="url(#58a43323e7)"><path fill="#232020" d="M 177.164062 147.546875 L 192.734375 147.546875 L 192.734375 162.875 L 177.164062 162.875 Z M 177.164062 147.546875 " fill-opacity="1" fill-rule="nonzero"/></g></g><g clip-path="url(#5609dcba4b)"><g clip-path="url(#61b9aeecf0)"><path fill="#232020" d="M 181.6875 143.027344 L 192.824219 143.027344 L 192.824219 158.253906 L 181.6875 158.253906 Z M 181.6875 143.027344 " fill-opacity="1" fill-rule="nonzero"/></g></g><g clip-path="url(#d3aae87500)"><g clip-path="url(#09f9866d74)"><path fill="#232020" d="M 200.210938 154.605469 L 211.570312 154.605469 L 211.570312 170.710938 L 200.210938 170.710938 Z M 200.210938 154.605469 " fill-opacity="1" fill-rule="nonzero"/></g></g><g clip-path="url(#3a0a27b891)"><g clip-path="url(#b3f42f1f44)"><path fill="#232020" d="M 174.410156 147.4375 L 183.449219 147.4375 L 183.449219 158.140625 L 174.410156 158.140625 Z M 174.410156 147.4375 " fill-opacity="1" fill-rule="nonzero"/></g></g><g clip-path="url(#6ec6ac5ee9)"><g clip-path="url(#e1fe2d559b)"><path fill="#232020" d="M 171.984375 148.320312 L 183.890625 148.320312 L 183.890625 159.566406 L 171.984375 159.566406 Z M 171.984375 148.320312 " fill-opacity="1" fill-rule="nonzero"/></g></g><g clip-path="url(#1c7aa3cec7)"><g clip-path="url(#3870bb938a)"><path fill="#232020" d="M 172.535156 147.988281 L 184.234375 147.988281 L 184.234375 158.355469 L 172.535156 158.355469 Z M 172.535156 147.988281 " fill-opacity="1" fill-rule="nonzero"/></g></g><g clip-path="url(#c995507cfe)"><g clip-path="url(#5c18e229e6)"><path fill="#232020" d="M 216.753906 187.246094 L 227.5625 187.246094 L 227.5625 197.613281 L 216.753906 197.613281 Z M 216.753906 187.246094 " fill-opacity="1" fill-rule="nonzero"/></g></g><g clip-path="url(#0fea774a99)"><g clip-path="url(#8520bf3796)"><path fill="#232020" d="M 215.980469 187.578125 L 227.898438 187.578125 L 227.898438 199.046875 L 215.980469 199.046875 Z M 215.980469 187.578125 " fill-opacity="1" fill-rule="nonzero"/></g></g></svg>